<svg xmlns="http://www.w3.org/2000/svg" width="80" height="80" viewBox="0 0 80 80">
    <g fill="none" fill-rule="nonzero">
        <path fill="#FFA22D" d="M19.65 67.308c-6.721 0-13.865 2.224-13.865 6.346 0 4.121 7.144 6.346 13.866 6.346 6.721 0 13.866-2.225 13.866-6.346 0-4.122-7.145-6.346-13.866-6.346z"/>
        <path fill="#FF596D" d="M19.651 24.047c-10.816 0-19.615 8.8-19.615 19.615 0 6.715 3.195 13.935 9.495 21.46 4.638 5.54 9.21 9.1 9.402 9.248a1.17 1.17 0 0 0 1.436 0c.192-.149 4.764-3.709 9.402-9.248 6.3-7.525 9.495-14.745 9.495-21.46 0-10.816-8.8-19.615-19.615-19.615zm7.356 19.615a7.355 7.355 0 1 1-14.711 0 7.355 7.355 0 0 1 14.71 0z"/>
        <path fill="#FFA22D" d="M71.957 34.5c-1.98-.806-4.587-1.25-7.34-1.25-2.755 0-5.362.444-7.342 1.25-2.313.943-3.587 2.328-3.587 3.898 0 1.57 1.274 2.955 3.587 3.897 1.98.807 4.587 1.252 7.341 1.252 2.754 0 5.361-.445 7.341-1.252 2.313-.942 3.588-2.327 3.588-3.897 0-1.57-1.275-2.955-3.588-3.898z"/>
        <g fill="#FFBB24">
            <path d="M19.65 77.07c-5.875 0-12.073-1.7-13.54-4.881a3.464 3.464 0 0 0-.325 1.465c0 4.122 7.144 6.346 13.866 6.346 6.721 0 13.866-2.224 13.866-6.346 0-.519-.114-1.007-.325-1.465-1.467 3.181-7.665 4.88-13.541 4.88zM71.957 39.365c-1.98.807-4.587 1.251-7.34 1.251-2.755 0-5.362-.444-7.342-1.25-1.56-.637-2.645-1.474-3.188-2.433-.262.463-.4.954-.4 1.465 0 1.57 1.275 2.955 3.589 3.897 1.98.807 4.586 1.252 7.34 1.252 2.754 0 5.361-.445 7.341-1.252 2.314-.942 3.588-2.327 3.588-3.897 0-.511-.138-1.002-.4-1.465-.542.959-1.628 1.796-3.188 2.432z"/>
        </g>
        <path fill="#FF596D" d="M64.617 0C56.154 0 49.27 6.885 49.27 15.347c0 5.226 2.476 10.834 7.36 16.668 3.584 4.28 7.12 7.033 7.269 7.148a1.171 1.171 0 0 0 1.436 0c.148-.115 3.685-2.868 7.268-7.148 4.884-5.834 7.36-11.441 7.36-16.668C79.964 6.885 73.08 0 64.618 0zm5.653 15.347a5.653 5.653 0 1 1-11.307 0 5.653 5.653 0 0 1 11.307 0z"/>
        <g fill="#E3465A">
            <path d="M19.651 24.047c-.747 0-1.484.044-2.21.125 9.78 1.102 17.406 9.421 17.406 19.49 0 6.715-3.194 13.935-9.495 21.46a70.687 70.687 0 0 1-7.91 8.016 40.783 40.783 0 0 0 1.491 1.232 1.17 1.17 0 0 0 1.436 0c.192-.149 4.764-3.709 9.402-9.249 6.3-7.524 9.495-14.744 9.495-21.46 0-10.815-8.8-19.614-19.615-19.614zM64.617 0c-.75 0-1.488.055-2.21.16 7.419 1.074 13.138 7.475 13.138 15.187 0 5.226-2.477 10.834-7.36 16.668a54.716 54.716 0 0 1-5.778 5.902 34.588 34.588 0 0 0 1.492 1.246 1.171 1.171 0 0 0 1.436 0c.148-.115 3.685-2.869 7.268-7.149 4.884-5.833 7.36-11.44 7.36-16.667C79.963 6.885 73.08 0 64.617 0z"/>
        </g>
        <path fill="#4C84FF" d="M37.848 74.829a1.173 1.173 0 0 1-.005-2.347l1.549-.007h.005a1.173 1.173 0 0 1 .006 2.347l-1.55.007h-.005zm6.197-.029a1.173 1.173 0 0 1-.005-2.346l1.55-.007h.005a1.173 1.173 0 0 1 .005 2.346l-1.55.007h-.005zm6.198-.028a1.173 1.173 0 0 1-.005-2.346l1.55-.007h.005a1.173 1.173 0 0 1 .005 2.346l-1.55.007h-.005zm6.198-.028a1.173 1.173 0 0 1-.005-2.346l1.55-.007h.005a1.173 1.173 0 0 1 .005 2.346l-1.55.007h-.005zm6.198-.028a1.173 1.173 0 0 1-.005-2.346l1.549-.007h.005a1.173 1.173 0 0 1 .006 2.346l-1.55.007h-.005zm6.198-.028a1.173 1.173 0 0 1-.006-2.346l.22-.001c.392-.002.785-.03 1.17-.083a1.173 1.173 0 0 1 .32 2.324c-.486.067-.984.103-1.48.105l-.219.001h-.005zm5.836-1.767a1.172 1.172 0 0 1-.67-2.138c.374-.259.73-.55 1.06-.863a1.173 1.173 0 1 1 1.618 1.699c-.417.397-.868.764-1.34 1.092-.205.142-.438.21-.668.21zm3.71-4.838a1.172 1.172 0 0 1-1.105-1.567 8.74 8.74 0 0 0 .356-1.317 1.173 1.173 0 0 1 2.305.434 11.101 11.101 0 0 1-.452 1.67c-.17.48-.622.78-1.104.78zm.19-6.094c-.51 0-.98-.335-1.127-.85a8.718 8.718 0 0 0-.479-1.277 1.173 1.173 0 0 1 2.127-.992c.244.523.448 1.068.607 1.622a1.173 1.173 0 0 1-1.128 1.497zm-3.403-5.06c-.255 0-.51-.083-.726-.253a8.818 8.818 0 0 0-1.134-.76 1.173 1.173 0 1 1 1.152-2.044c.5.282.984.606 1.436.963a1.173 1.173 0 0 1-.728 2.094zm-5.71-2.127h-.053a8.984 8.984 0 0 0-.396-.01H67.91a1.173 1.173 0 1 1 0-2.346h1.102c.166 0 .334.004.5.011a1.173 1.173 0 0 1-.051 2.345zm-6.199-.01h-1.55a1.173 1.173 0 1 1 0-2.346h1.55a1.173 1.173 0 0 1 0 2.346zm-6.198 0h-1.55a1.173 1.173 0 1 1 0-2.346h1.55a1.173 1.173 0 0 1 0 2.346zm-6.198 0h-1.55a1.173 1.173 0 1 1 0-2.346h1.55a1.173 1.173 0 0 1 0 2.346zm-5.976-1.166c-.214 0-.43-.059-.625-.181a8.828 8.828 0 0 1-1.405-1.1 1.173 1.173 0 1 1 1.627-1.691c.315.302.661.574 1.03.806a1.173 1.173 0 0 1-.627 2.166zm-3.41-4.97c-.55 0-1.04-.389-1.15-.949a8.834 8.834 0 0 1-.162-1.685v-.093a1.173 1.173 0 0 1 2.347.028v.065c0 .416.04.832.118 1.236a1.173 1.173 0 0 1-1.153 1.398zm1.282-5.888a1.173 1.173 0 0 1-.952-1.858 8.819 8.819 0 0 1 1.183-1.335 1.173 1.173 0 0 1 1.59 1.724c-.32.296-.612.626-.867.98-.23.32-.589.49-.954.49zm5.165-3.104a1.173 1.173 0 0 1-.154-2.336c.384-.051.776-.077 1.166-.077h.535a1.173 1.173 0 1 1 0 2.346h-.535c-.287 0-.575.019-.856.056-.053.008-.105.01-.156.01z"/>
    </g>
</svg>
