<svg xmlns="http://www.w3.org/2000/svg" width="671" height="600" viewBox="0 0 671 600">
    <g fill="none" fill-rule="evenodd">
        <path fill="#142345" d="M671 402.37c-23.751-35.49-56.641-66.047-94.858-88.764-60.64-36.05-131.716-58.807-204.027-57.557-67.711 1.17-139.347 32.26-176.137 96.74-29.86 52.33-38.988 101.04-87.348 140.132C75.232 519.92 21.57 528.876 4.9 566.684.228 577.287-.647 588.58.393 600H671V402.37z"/>
        <path fill="#FFD474" d="M208 40c0 3.868 3.134 7 6.999 7A7 7 0 1 0 208 40"/>
        <path fill="#84B4FE" d="M526 173a5 5 0 1 0 10 0c0-2.761-2.237-5-4.999-5a5 5 0 0 0-5.001 5"/>
        <path fill="#FFD474" d="M283.564 128.559l2.967-1.592c.186-.1.338-.251.437-.438l1.592-2.967c.403-.75 1.48-.75 1.882 0l1.59 2.967c.1.187.251.338.437.438l2.967 1.592c.752.403.752 1.48 0 1.882l-2.967 1.592a1.06 1.06 0 0 0-.437.435l-1.59 2.97c-.403.75-1.48.75-1.882 0l-1.592-2.97a1.06 1.06 0 0 0-.437-.435l-2.967-1.592a1.067 1.067 0 0 1 0-1.882M622.693 209.842l3.653-1.959c.229-.122.415-.308.535-.537l1.959-3.653c.497-.924 1.823-.924 2.318 0l1.959 3.653c.12.229.308.415.537.537l3.653 1.959a1.314 1.314 0 0 1 0 2.316l-3.653 1.959a1.302 1.302 0 0 0-.537.537l-1.959 3.653c-.495.924-1.821.924-2.318 0l-1.959-3.653a1.297 1.297 0 0 0-.535-.537l-3.653-1.959a1.314 1.314 0 0 1 0-2.316"/>
        <path fill="#C1DDF7" d="M147.823 285.124l4.337-2.326c.272-.144.492-.366.64-.638l2.324-4.337c.588-1.097 2.162-1.097 2.75 0l2.327 4.337c.145.272.368.494.638.638l4.337 2.326c1.099.588 1.099 2.162 0 2.75l-4.337 2.327c-.27.145-.493.368-.638.638l-2.327 4.337c-.588 1.099-2.162 1.099-2.75 0l-2.324-4.337a1.576 1.576 0 0 0-.64-.638l-4.337-2.327c-1.097-.588-1.097-2.162 0-2.75"/>
        <path fill="#84B4FE" d="M489.78 7.697l4.11-2.203c.255-.138.466-.348.603-.606L496.7.778c.556-1.038 2.048-1.038 2.605 0l2.203 4.11c.14.258.348.468.603.606l4.11 2.203c1.04.556 1.04 2.048 0 2.605l-4.11 2.205a1.486 1.486 0 0 0-.603.604l-2.203 4.109c-.557 1.04-2.049 1.04-2.605 0l-2.206-4.11a1.473 1.473 0 0 0-.603-.603l-4.11-2.205c-1.04-.557-1.04-2.049 0-2.605M362.78 72.697l4.11-2.203c.255-.138.466-.348.603-.606l2.206-4.11c.556-1.038 2.048-1.038 2.605 0l2.203 4.11c.14.258.348.468.603.606l4.11 2.203c1.04.556 1.04 2.048 0 2.605l-4.11 2.205a1.486 1.486 0 0 0-.603.604l-2.203 4.109c-.557 1.04-2.049 1.04-2.605 0l-2.206-4.11a1.473 1.473 0 0 0-.603-.603l-4.11-2.205c-1.04-.557-1.04-2.049 0-2.605M185.563 168.558l2.967-1.59c.185-.1.34-.253.437-.437l1.591-2.968c.403-.75 1.48-.75 1.883 0l1.591 2.968c.1.184.25.337.437.436l2.97 1.591c.748.401.748 1.479 0 1.882l-2.97 1.593c-.187.097-.337.25-.437.434l-1.59 2.97c-.404.75-1.481.75-1.884 0l-1.59-2.97a1.053 1.053 0 0 0-.438-.434l-2.967-1.593a1.067 1.067 0 0 1 0-1.882"/>
    </g>
</svg>
