<svg xmlns="http://www.w3.org/2000/svg" xmlns:xlink="http://www.w3.org/1999/xlink" width="868" height="915" viewBox="0 0 868 915">
    <defs>
        <ellipse id="b" cx="471.5" cy="544.5" rx="358.5" ry="159.5"/>
        <filter id="a" width="115.9%" height="135.7%" x="-7.9%" y="-14.1%" filterUnits="objectBoundingBox">
            <feOffset dy="12" in="SourceAlpha" result="shadowOffsetOuter1"/>
            <feGaussianBlur in="shadowOffsetOuter1" result="shadowBlurOuter1" stdDeviation="17"/>
            <feColorMatrix in="shadowBlurOuter1" values="0 0 0 0 0.298039216 0 0 0 0 0.517647059 0 0 0 0 1 0 0 0 0.215126812 0"/>
        </filter>
        <linearGradient id="c" x1="72.274%" x2="30.226%" y1="4.748%" y2="94.24%">
            <stop offset="0%" stop-color="#FFF"/>
            <stop offset="100%" stop-color="#EBF5FF"/>
        </linearGradient>
        <path id="d" d="M.142 1.922l1.32 1.093c.06.048.619-1.347.619-1.347L.096.385l.046 1.537z"/>
        <path id="f" d="M28.761.886L.974 16.93C-.088 17.542-.203 18.47.716 19l15.35 8.863c.92.53 2.525.464 3.586-.15l27.79-16.043c1.06-.613 1.176-1.54.256-2.071L32.349.737c-.416-.24-.974-.358-1.558-.358-.705 0-1.449.171-2.03.507"/>
        <linearGradient id="g" x1="50%" x2="50%" y1="0%" y2="100%">
            <stop offset="0%" stop-color="#FFF"/>
            <stop offset="100%" stop-color="#ECF4FF"/>
        </linearGradient>
        <path id="i" d="M38.555 1.132L1.68 20.69c-2.17 1.15-2.23 3.118-.135 4.328l26.112 15.075c2.08 1.202 5.458 1.176 7.458-.054l34.249-21.074c1.913-1.178 1.852-3.024-.137-4.172L45.742 1.232c-1.02-.588-2.357-.884-3.694-.884-1.253 0-2.505.26-3.493.784"/>
        <path id="k" d="M0 .056h6.048v6.423H0z"/>
        <path id="m" d="M0 .056h6.048v6.423H0z"/>
        <path id="o" d="M.404 1.908L.39 109.59c0 1.198.86 2.672 1.912 3.274l127.415 73.043c1.052.603 1.913.117 1.913-1.082l.015-107.682c0-1.197-.86-2.67-1.912-3.274L2.317.826C2.01.651 1.72.568 1.462.568c-.626 0-1.058.491-1.058 1.34"/>
        <path id="q" d="M48.873.495L.988 28.14c-.653.378-.725.953-.16 1.279 17.656 8.614 33.096 12.024 35.314 20.388L86.4 20.792C86.685 13.637 73.017 6.898 51.086.404c-.256-.148-.6-.22-.961-.22-.436 0-.896.105-1.252.31"/>
        <linearGradient id="r" x1="50%" x2="50%" y1="0%" y2="100%">
            <stop offset="0%" stop-color="#FFF"/>
            <stop offset="100%" stop-color="#B2C4DC"/>
        </linearGradient>
        <path id="t" d="M47.064.695L.746 28.329c-.631.377-.738.99-.239 1.367 15.739 10.018 31.284 14.996 29.673 24.75L80.408 25.14C81.18 17.464 68.968 8.619 49.12.69c-.25-.186-.604-.28-.976-.28-.374 0-.764.095-1.08.284"/>
    </defs>
    <g fill="none" fill-rule="evenodd">
        <path fill="#4C84FF" fill-rule="nonzero" d="M0 0h867.707L873 917 208.523 544.977a200 200 0 0 1-95.492-122.788L0 0z"/>
        <g fill-rule="nonzero">
            <use fill="#000" filter="url(#a)" xlink:href="#b"/>
            <use fill="#3A6EDF" xlink:href="#b"/>
        </g>
        <ellipse cx="471.5" cy="528.5" fill="url(#c)" fill-rule="nonzero" rx="358.5" ry="159.5"/>
        <ellipse cx="333" cy="599" fill="#DEEDFC" fill-rule="nonzero" rx="26" ry="13"/>
        <ellipse cx="243" cy="550" fill="#DEEDFC" fill-rule="nonzero" rx="26" ry="13"/>
        <ellipse cx="428" cy="522.5" fill="#DEEDFC" fill-rule="nonzero" rx="31" ry="15.5"/>
        <ellipse cx="423" cy="538.5" fill="#DEEDFC" fill-rule="nonzero" rx="21" ry="10.5"/>
        <ellipse cx="525" cy="627.5" fill="#DEEDFC" fill-rule="nonzero" rx="21" ry="10.5"/>
        <ellipse cx="705" cy="517.5" fill="#DEEDFC" fill-rule="nonzero" rx="21" ry="10.5"/>
        <ellipse cx="393" cy="510" fill="#DEEDFC" fill-rule="nonzero" rx="26" ry="13"/>
        <path fill="#5B6F9D" d="M705.145 521.178l.779-.116a4.269 4.269 0 0 0 3.597-4.85l-19.313-130.234a4.27 4.27 0 0 0-4.85-3.597l-.778.115a4.271 4.271 0 0 0-3.599 4.85l19.315 130.234a4.27 4.27 0 0 0 4.849 3.598M524.714 630.117a4.618 4.618 0 0 1-4.205-4.998l18.144-210.667a4.618 4.618 0 1 1 9.203.793l-18.144 210.666a4.62 4.62 0 0 1-4.998 4.206"/>
        <path fill="#40517B" d="M539.456 512.779l-8.788-6.012 2.512-25.305 9.36 1.462zM688.556 438.285l8.342-6.617-4.292-25.064-9.232 2.118z"/>
        <path fill="#BC4073" d="M351.631 495.78l-89.601-51.732c-8.304-4.794-4.944-15.31 7.467-23.368l32.208-20.913c12.411-8.058 62.596-13.635 70.9-8.84l56.1 34.488c8.303 4.795 5.209 35.459-7.202 43.518l-32.209 20.912c-12.41 8.058-29.359 10.73-37.663 5.935"/>
        <path fill="#142345" d="M412.411 501.548c-.542.424-8.459 3.869-8.966 4.264a82.766 82.766 0 0 1-4.478 3.158c-2.923 1.877-9.293 9.266-18.696 3.302-13.758-8.726 21.355-29.495 21.355-29.495l15.412-6.992c1.876-.851 4.077-.73 5.928.325 3.415 1.946 4.58 6.37 2.493 9.563-3.58 5.48-3.945 8.77-13.048 15.875"/>
        <path fill="#162C5E" d="M411.044 497.217c-.542.423-8.459 3.869-8.966 4.264-.779.607-3.089 2.267-4.478 3.158-2.923 1.877-9.292 9.266-18.695 3.302-13.758-8.726 21.354-29.495 21.354-29.495l15.412-6.992c1.876-.851 4.078-.73 5.928.324 3.415 1.947 4.58 6.37 2.493 9.564-3.58 5.48-3.945 8.77-13.048 15.875"/>
        <path fill="#915350" d="M420.994 486.952c.85-1.459 2.185-4.236 3.297-5.937 2.086-3.194.723-7.29-2.693-9.237-1.85-1.055-4.05-1.175-5.927-.324l-7.522 3.413c4.24 1.778 9.054 5.846 12.845 12.085"/>
        <path fill="#D69228" d="M387.338 425.868c-3.684 1.91 5.083-1.938 6.08-1.57-.823-.304-4.209.456-1.409.3 1.803-.1 2.054 1.211-1.682-.343.308.128 1.02.322 1.33.327 1.013.014-9.07 30.77-10.707 35.007-3.285 8.496-5.524 17.272-6 26.404-.362 6.91 6.33 13.514 13.205 13.206 7.464-.334 12.82-5.803 13.207-13.206.045-.87-.085-2.228.228-3.044-1.136 2.961-.042.369.131-.567a69.101 69.101 0 0 1 1.152-5.07c1.046-3.954 2.406-7.82 3.907-11.623.347-.88.648-1.856 1.09-2.694.555-1.278 1.188-2.715 1.817-4.155 1.444-3.3 3-6.59 4.15-10.006 1.457-4.325 1.078-8.793 1.001-13.265-.059-3.448-.082-6.904-.324-10.346-.553-7.843-1.925-15.776-7.834-21.493-7.236-7-18.087-6.382-26.865-3.078-15.194 5.72-28.896 15.053-42.241 24.12-5.704 3.877-8.784 11.794-4.738 18.07 3.66 5.679 11.958 8.891 18.069 4.738 11.208-7.615 35.976-21.476 36.433-21.712z"/>
        <path fill="#FFF" d="M399.104 483.396c-5.86 4.576-17.41 3.265-21.424-3.159-.257 3.405-.457 6.81-.56 10.215-.426 13.878 21.145 15.111 21.572 1.182.085-2.747.229-5.492.412-8.238"/>
        <path fill="#EEA532" d="M372.138 477.765l-.285 9.566c-.012.41.095.807.321 1.15 1.328 2.029 6.634 8.873 17.063 7.618 9.143-1.1 14.162-3.686 16.108-4.916.603-.381.946-1.049.92-1.762l-.36-9.776c-.053-1.46-1.598-2.392-2.894-1.72-4.768 2.472-15.234 5.957-27.794-1.781-1.323-.816-3.032.068-3.079 1.62M329.47 432.895c1.206 2.592-3.628-9.7-1.712-7.578 3.99 4.418 25.766 31.28 31.436 33.092 6.85 2.189-10.987-13.704-10.987-13.704s57.045-33.302 55.845-34.949c-9.389-12.874-18.292-16.901-36.293-9.899-20.491 7.972-44.06 20.638-38.29 33.038"/>
        <path fill="#142345" d="M447.19 521.13c-.557.405-8.582 3.589-9.103 3.967a83.062 83.062 0 0 1-4.578 3.01c-2.984 1.778-9.594 8.954-18.794 2.685-13.464-9.175 22.312-28.777 22.312-28.777l15.634-6.481c1.904-.79 4.099-.597 5.914.518 3.35 2.058 4.368 6.517 2.178 9.642-3.759 5.359-4.232 8.635-13.564 15.437"/>
        <path fill="#162C5E" d="M445.965 516.757c-.555.404-8.58 3.588-9.1 3.966-.798.581-3.163 2.165-4.58 3.01-2.983 1.779-9.593 8.954-18.794 2.684-13.464-9.174 22.313-28.776 22.313-28.776l15.634-6.482c1.903-.788 4.099-.596 5.913.52 3.35 2.058 4.369 6.517 2.179 9.64-3.76 5.36-4.233 8.636-13.565 15.438"/>
        <path fill="#162C5E" d="M456.248 506.825c.897-1.43 2.323-4.162 3.49-5.826 2.19-3.123.964-7.262-2.387-9.32-1.814-1.116-4.01-1.308-5.913-.52l-7.63 3.164c4.179 1.917 8.856 6.14 12.44 12.502"/>
        <path fill="#FFC35A" d="M375.907 464.828c10.815-7.8 21.61-15.857 33.156-22.565 1.745-1.014 3.515-1.989 5.332-2.872.416-.203.845-.386 1.259-.595 1.696-.854-1.803.733-1.722.71.886-.255 1.734-.68 2.622-.946.58-.175 1.176-.284 1.758-.447 2.206-.618-4.025.306-1.592.23 1.607-.05 2.83.707-1.697-.344 2.652.616-3.248-1.802-1.386-.666 1.348.822-3.193-2.847-1.534-1.147 1.378 1.412-2.32-3.312-1.131-1.407 1.445 2.317-.803-2.74-.537-1.37.129.667.37 1.348.534 2.01.735 2.949-.245-3.063-.108-1.146.058.822.147 1.64.187 2.465.093 1.943.073 3.891.008 5.835-.264 7.813-.165 15.608-.114 23.428.084 12.916.226 25.892-.69 38.784-.49 6.907 6.425 13.51 13.207 13.207 7.574-.34 12.681-5.809 13.207-13.207 1.484-20.913.25-41.916.823-62.85.24-8.767-.547-18.738-7.409-25.051-8.671-7.98-20.206-4.692-29.537-.043-13.518 6.733-25.771 16.383-37.968 25.18-5.588 4.03-8.858 11.678-4.737 18.07 3.572 5.54 12.076 9.058 18.069 4.737"/>
        <path fill="#FFF" d="M434.487 502.55c-6.006 4.381-17.509 2.691-21.309-3.862-.37 3.395-.68 6.792-.897 10.192-.881 13.856 20.639 15.797 21.523 1.89.174-2.742.409-5.481.683-8.22"/>
        <path fill="#EEA532" d="M407.72 496.035l-.599 9.551c-.026.41.069.81.283 1.162 1.26 2.07 6.34 9.085 16.803 8.174 9.175-.8 14.277-3.219 16.261-4.383.615-.362.98-1.018.977-1.733l-.037-9.78c-.005-1.461-1.519-2.445-2.837-1.816-4.846 2.314-15.421 5.454-27.719-2.694-1.296-.858-3.034-.031-3.131 1.52"/>
        <path fill="#5B6F9D" d="M423.968 547.947l.288-.042a3.564 3.564 0 0 0 3.001-4.048l-13.868-93.485a3.563 3.563 0 0 0-4.047-3.002l-.288.042a3.563 3.563 0 0 0-3.001 4.048l13.868 93.486a3.562 3.562 0 0 0 4.047 3.001"/>
        <path fill="#A8C4E5" d="M239.078 311.841h24.492v-14.224h-24.492zM684.398 402.791h24.493v-14.224h-24.493z"/>
        <path fill="#A8C4E5" d="M544.706 491.304l-302.504-174.65c-4.743-2.739-4.148-7.52 1.327-10.683l141.155-81.495c5.476-3.161 13.76-3.505 18.502-.767L705.69 398.36c4.742 2.738 4.147 7.521-1.329 10.683l-141.154 81.495c-5.476 3.161-13.76 3.505-18.501.767"/>
        <path fill="#E9F5FF" d="M544.706 477.66L242.202 303.01c-4.743-2.738-4.148-7.521 1.327-10.682l141.155-81.496c5.476-3.161 13.76-3.505 18.502-.767L705.69 384.716c4.742 2.738 4.147 7.52-1.329 10.681l-141.154 81.497c-5.476 3.16-13.76 3.505-18.501.766"/>
        <path fill="#A33467" d="M329.737 398.883l-62.62 48.375c-10.226 6.262-17.904.047-17.894-10.713l-1.193-17.518c.01-10.76 8.385-24.686 18.612-30.948l63.141-38.659c10.228-6.261 18.587-2.58 18.576 8.18l-.01 10.336c-.01 10.76-8.385 24.686-18.612 30.947"/>
        <path fill="#5B6F9D" d="M331.008 602.383a3.837 3.837 0 0 1-3.232-4.36l19.682-132.711a3.836 3.836 0 1 1 7.59 1.125L335.368 599.15a3.838 3.838 0 0 1-4.36 3.233M243.008 552.383a3.837 3.837 0 0 1-3.232-4.36l19.682-132.711a3.836 3.836 0 1 1 7.59 1.125L247.368 549.15a3.838 3.838 0 0 1-4.36 3.233"/>
        <path fill="#D84177" d="M346.808 508.347l-79.216-45.735c-8.515-4.916-13.22-14.708-13.22-14.708-3.187-7.317 4.413-12.613 12.928-7.697l83.293 49.037c8.514 4.916 11.728 10.052 10.352 16.148 0 0-3.345 8.525-14.137 2.955"/>
        <path fill="#A8C4E5" d="M505.315 348.346l-88.101-50.866a1.613 1.613 0 0 0-1.628.009l-26.745 15.785a1.615 1.615 0 0 0 .012 2.789l87.804 50.692c.499.289 1.114.289 1.614 0l27.044-15.613a1.615 1.615 0 0 0 0-2.796"/>
        <path fill="#FFF" d="M478.332 363.28l-87.804-50.693a1.614 1.614 0 0 1-.012-2.788l26.745-15.787a1.615 1.615 0 0 1 1.628-.007l88.1 50.865a1.615 1.615 0 0 1 0 2.797l-27.043 15.613c-.5.289-1.115.289-1.614 0"/>
        <path fill="#A8C4E5" d="M421.613 301.902c-.141.082-.43.048-.644-.075l-5.923-3.418c-.213-.124-.272-.29-.13-.373l3.924-2.267c.142-.082.43-.048.644.076l5.924 3.418c.213.123.272.29.13.372l-3.925 2.267zM428.485 312.108c-.143.083-.43.05-.647-.075l-5.922-3.417c-.213-.124-.27-.29-.127-.372l3.925-2.268c.14-.08.427-.048.64.075l5.924 3.419c.216.124.272.29.133.37l-3.926 2.268zM425.011 316.345c-.142.083-.43.047-.642-.075l-5.925-3.419c-.21-.121-.273-.289-.13-.371l3.925-2.268c.138-.08.432-.045.642.076l5.924 3.419c.213.123.272.29.132.37l-3.926 2.268zM415.613 317.163c-.14.08-.43.048-.642-.074l-5.924-3.419c-.21-.122-.27-.29-.13-.37l3.925-2.268c.141-.081.433-.048.643.074l5.924 3.419c.213.122.27.289.129.37l-3.925 2.268zM409.525 320.678c-.142.082-.484.017-.765-.145l-7.76-4.478c-.279-.16-.393-.359-.251-.44l4.609-2.663c.138-.08.485-.016.762.144l7.76 4.478c.282.163.391.362.253.442l-4.608 2.662zM460.508 350.143c-.118.068-.387.023-.6-.1l-5.92-3.416c-.215-.124-.296-.28-.177-.349l1.703-.984c.117-.068.39-.023.606.102l5.919 3.416c.213.123.29.28.172.347l-1.703.984zM468.422 354.829c-.118.068-.387.023-.6-.1l-5.92-3.416c-.215-.125-.295-.281-.177-.35l1.704-.984c.117-.067.388-.022.604.103l5.92 3.416c.213.123.29.28.173.347l-1.704.984zM476.813 359.561c-.114.066-.38.018-.594-.105l-5.92-3.417c-.213-.122-.298-.278-.184-.344l1.64-.948c.113-.065.383-.016.596.107l5.92 3.416c.214.123.295.278.183.343l-1.641.948zM471.652 353.022c-.113.066-.38.018-.593-.105l-5.92-3.416c-.213-.124-.299-.279-.185-.345l1.641-.948c.112-.065.383-.016.596.107l5.92 3.417c.213.122.295.277.183.342l-1.642.948zM450.27 344.19c-.142.08-.432.046-.646-.078l-38.546-22.244c-.21-.121-.273-.29-.131-.372l4.608-2.662c.139-.08.434-.046.644.076l38.546 22.244c.214.123.272.293.134.372l-4.609 2.663z"/>
        <path fill="#A8C4E5" d="M446.322 340.816a2.231 2.231 0 0 1-.327-.17l-30.678-17.703c-.167-.097-.301-.183-.292-.188l.286-.165c.008-.005.157.072.325.169l30.677 17.703c.171.098.304.184.296.19l-.287.164zM423.733 321.845c-.14.081-.43.048-.645-.076l-5.923-3.418c-.21-.121-.271-.29-.13-.371l3.924-2.268c.14-.081.435-.046.645.075l5.923 3.418c.215.124.271.291.13.373l-3.924 2.267zM431.888 326.552c-.14.08-.431.046-.642-.075l-5.922-3.417c-.212-.123-.273-.292-.132-.373l3.924-2.267c.141-.082.434-.048.647.075l5.921 3.418c.211.121.27.29.129.371l-3.925 2.268zM440.044 331.258c-.14.081-.43.048-.642-.074l-5.923-3.419c-.212-.121-.27-.289-.13-.37l3.926-2.267c.14-.082.43-.049.642.073l5.924 3.419c.212.122.269.29.128.37l-3.925 2.268zM448.2 335.966c-.14.08-.429.047-.642-.075l-5.923-3.419c-.215-.123-.272-.291-.132-.372l3.925-2.267c.14-.082.43-.049.646.074l5.923 3.42c.213.122.27.29.129.37l-3.925 2.269zM456.358 340.673c-.14.08-.432.046-.648-.077l-5.92-3.418c-.212-.122-.27-.29-.13-.37l3.925-2.268c.14-.081.432-.048.643.074l5.922 3.417c.214.124.274.292.133.374l-3.925 2.268zM464.515 345.376c-.14.08-.43.047-.644-.075l-5.922-3.418c-.213-.123-.271-.291-.132-.372l3.925-2.268c.14-.08.432-.047.646.076l5.922 3.417c.212.123.27.291.13.372l-3.925 2.268zM482.885 355.977c-.14.081-.43.048-.643-.075l-16.138-9.313c-.212-.122-.27-.29-.13-.37l3.925-2.268c.14-.082.431-.05.644.074l16.137 9.313c.214.123.271.29.13.372l-3.925 2.267zM433.128 321.026c-.142.082-.426.05-.64-.075l-5.924-3.419c-.213-.122-.272-.288-.13-.37l3.925-2.267c.14-.08.428-.048.64.074l5.925 3.42c.214.123.269.288.13.368l-3.926 2.269zM441.286 325.733c-.143.082-.43.047-.642-.075l-5.926-3.42c-.21-.121-.27-.286-.128-.369l3.926-2.267c.138-.08.428-.048.639.074l5.926 3.42c.21.121.27.289.131.37l-3.926 2.267zM449.442 330.44c-.142.082-.431.047-.643-.075l-5.922-3.419c-.21-.12-.275-.29-.134-.371l3.926-2.268c.14-.08.434-.044.643.076l5.924 3.419c.211.122.27.29.132.37l-3.926 2.268zM457.596 335.146c-.142.082-.428.048-.641-.075l-5.922-3.418c-.213-.123-.274-.288-.131-.37l3.925-2.269c.139-.08.429-.047.642.076l5.923 3.419c.212.122.27.288.13.369l-3.926 2.268zM465.756 339.851c-.142.082-.43.047-.642-.075l-5.925-3.42c-.213-.123-.272-.288-.13-.37l3.926-2.268c.139-.08.427-.048.64.075l5.926 3.42c.212.122.27.29.131.37l-3.926 2.268zM473.91 344.556c-.143.082-.429.048-.641-.074l-5.921-3.418c-.215-.124-.276-.29-.133-.371l3.925-2.269c.14-.08.429-.046.644.078l5.921 3.417c.213.122.27.289.13.369l-3.925 2.268zM482.066 349.263c-.143.082-.429.047-.641-.074l-5.926-3.42c-.21-.122-.27-.287-.127-.37l3.925-2.267c.14-.08.427-.048.638.074l5.926 3.42c.212.122.27.289.13.369l-3.925 2.268zM436.603 316.79c-.143.082-.431.048-.645-.075l-5.923-3.418c-.21-.122-.269-.288-.126-.371l3.925-2.268c.14-.08.429-.047.64.074l5.923 3.419c.213.123.271.29.132.37l-3.926 2.268zM444.758 321.495c-.143.083-.432.048-.644-.073l-5.922-3.418c-.213-.123-.273-.29-.129-.373l3.925-2.268c.14-.08.43-.047.642.076l5.923 3.419c.211.122.27.289.13.37l-3.925 2.267zM452.915 326.202c-.143.083-.432.05-.647-.075l-5.922-3.417c-.211-.123-.27-.289-.126-.372l3.924-2.267c.14-.08.429-.047.64.074l5.923 3.418c.215.124.273.29.133.372l-3.925 2.267zM461.07 330.908c-.144.083-.43.05-.644-.073l-5.924-3.419c-.213-.122-.271-.29-.128-.372l3.925-2.268c.139-.08.428-.047.642.076l5.923 3.42c.214.122.27.288.13.368l-3.925 2.268zM469.228 335.612c-.144.083-.432.049-.642-.072l-5.924-3.419c-.214-.123-.27-.29-.128-.371l3.925-2.269c.14-.08.427-.047.641.076l5.924 3.419c.21.12.268.288.13.368l-3.926 2.268zM477.385 340.32c-.143.082-.432.048-.647-.076l-5.923-3.417c-.21-.121-.27-.29-.127-.372l3.925-2.268c.14-.08.431-.046.641.075l5.923 3.419c.215.124.273.29.134.37l-3.926 2.269zM485.54 345.026c-.143.082-.432.048-.644-.073l-5.924-3.42c-.213-.122-.27-.289-.127-.371l3.924-2.268c.14-.08.429-.048.642.076l5.924 3.418c.211.122.27.29.13.37l-3.925 2.268zM420.33 307.401c-.144.083-.433.05-.647-.074l-10.043-5.796c-.213-.123-.272-.29-.13-.373l3.927-2.267c.139-.08.428-.047.641.076l10.044 5.796c.214.123.272.29.133.37l-3.926 2.268zM499.1 346.61c-.141.082-.43.048-.644-.074l-10.044-5.797c-.21-.12-.27-.29-.129-.371l3.924-2.267c.142-.082.434-.047.643.075l10.044 5.796c.214.123.272.289.13.371l-3.924 2.267zM416.853 311.638c-.142.082-.427.048-.643-.076l-11.973-6.91c-.213-.123-.274-.289-.131-.37l3.926-2.269c.139-.08.428-.047.641.076l11.974 6.91c.216.125.271.29.132.37l-3.926 2.269zM407.459 312.458c-.14.081-.43.047-.644-.076l-7.983-4.606c-.214-.124-.272-.291-.131-.372l3.925-2.268c.14-.081.43-.048.645.075l7.983 4.607c.213.123.27.291.13.372l-3.925 2.268zM429.768 306.607c-.142.082-.43.05-.646-.075l-5.919-3.416c-.213-.124-.272-.29-.13-.373l3.923-2.266c.143-.082.432-.048.645.075l5.92 3.416c.215.125.273.29.13.372l-3.923 2.267zM437.888 311.29c-.142.081-.432.047-.645-.076l-5.924-3.418c-.211-.122-.27-.29-.129-.372l3.924-2.267c.141-.082.432-.048.644.075l5.923 3.418c.214.123.273.29.13.372l-3.923 2.267zM446.04 315.994c-.141.082-.427.05-.641-.073l-5.924-3.419c-.211-.122-.27-.29-.128-.371l3.923-2.267c.143-.082.431-.048.643.075l5.923 3.418c.215.124.27.288.128.37l-3.923 2.267zM454.2 320.702c-.142.083-.432.048-.646-.074l-5.919-3.417c-.214-.124-.273-.29-.13-.373l3.923-2.266c.142-.082.43-.049.645.075l5.92 3.417c.212.122.273.29.13.372l-3.923 2.266zM462.352 325.407c-.142.082-.427.051-.641-.073l-5.922-3.417c-.214-.124-.273-.291-.131-.373l3.924-2.266c.142-.083.43-.049.645.075l5.922 3.418c.215.124.27.288.127.37l-3.924 2.266zM470.513 330.113c-.142.082-.432.048-.643-.074l-5.925-3.42c-.212-.122-.27-.288-.127-.37l3.923-2.266c.143-.083.43-.05.641.072l5.926 3.42c.211.122.271.289.129.371l-3.924 2.267zM478.669 334.82c-.142.081-.43.048-.644-.075l-5.923-3.418c-.214-.124-.274-.291-.132-.373l3.924-2.267c.142-.082.432-.048.646.075l5.923 3.42c.213.122.272.289.13.371l-3.924 2.267zM486.822 339.525c-.141.081-.428.049-.64-.073l-5.928-3.42c-.21-.122-.267-.288-.126-.37l3.923-2.267c.143-.083.431-.049.641.072l5.928 3.421c.212.122.269.288.126.37l-3.924 2.267zM491.565 343.676a.91.91 0 0 0-.346-.114.487.487 0 0 0-.293.04l-3.925 2.268c-.065.037-.096.096-.07.17a.431.431 0 0 0 .196.2l1.546.892-5.147 2.973c-.067.04-.093.1-.067.171.026.072.098.143.198.2l3.99 2.303c.101.058.223.1.35.116.125.016.229 0 .296-.04l9.33-5.389c.066-.038.092-.097.065-.17-.024-.074-.098-.144-.2-.202l-5.923-3.418z"/>
        <path fill="#FFAA82" d="M294.166 329.637c4.924 6.669 9.842 13.408 15.275 19.678 2.663 3.073 5.71 6.506 9.728 7.735 5.392 1.649 10.63-1.539 12.253-6.78.722-2.325.675-4.907.813-7.325.032-.546.082-1.09.114-1.637.133-2.251-.517 2.078-.057.355.114-.423.201-.87.293-1.3.498-2.338-.789 1.398-.108.158.981-1.79-1.463 1.53-.31.4.865-.847-1.991 1.402-.955.753.623-.389 1.676-.57-1.11.433 1.89-.68-1.453-.175-.566 0 1.59.318 3.585.035 5.197-.061 15.139-.906 28.92-7.51 41.63-15.368 5.963-3.688 11.734-7.705 17.828-11.18a68.548 68.548 0 0 1 4.083-2.173c.555-.27 1.117-.521 1.679-.777-2.192 1 .193-.039.673-.2 1.18-.398 2.367-.64 3.579-.907-2.46.543-1.025.088-.321.125.692.037 2.901.298.049-.139 4.53.694 9.137-1.146 10.452-5.935 1.105-4.022-1.37-9.754-5.935-10.453-11.725-1.795-21.894 4.962-31.347 11.028-5.51 3.535-10.988 7.125-16.721 10.292-6.587 3.64-11.032 5.72-18.238 7.495-3.68.905-4.951 1.104-8.313 1.243-2.682.11-5.36-.202-7.993.544-4.585 1.299-7.78 4.824-9.315 9.228-.9 2.579-1.126 5.362-1.282 8.076-.056.96-.127 1.929-.153 2.89-.053 1.978.296-1.526.15-.91-.422 1.773.31-.518.483-.81 1.052-1.79 3.617-3.604 6.42-3.595 2.634.008 2.554.462 1.704.202 2.587.791 2.002.904 1.154.408-1.06-.621.571-.302.855.687-.07-.247-.83-.729-1.026-.913a37.497 37.497 0 0 1-1.875-1.925c-5.461-5.928-9.335-11.45-14.113-17.919-2.722-3.686-7.363-5.541-11.626-3.049-3.635 2.127-5.79 7.914-3.048 11.626"/>
        <path fill="#A8C4E5" d="M553.805 366.963c-6.368 3.678-16.726 3.66-23.134-.04-6.41-3.7-6.442-9.681-.074-13.359 6.368-3.677 16.726-3.66 23.135.04 6.408 3.7 6.44 9.68.073 13.359M641.66 387.416c-5.593 3.235-14.685 3.226-20.308-.02-5.624-3.247-5.649-8.501-.056-11.737 5.593-3.236 14.685-3.226 20.308.02 5.623 3.247 5.648 8.5.056 11.737"/>
        <path fill="#8585FF" d="M547.183 365.245c-5.63 3.25-14.786 3.234-20.451-.038-5.665-3.27-5.694-8.556-.065-11.806 5.63-3.25 14.787-3.234 20.452.037 5.664 3.27 5.693 8.557.064 11.807"/>
        <path fill="#8585FF" d="M548.966 359.598l-26.502-.098v-23.605l26.502.22z"/>
        <path fill="#7878EA" d="M543.51 335.993v21.571l-.028.835c.024 3.639-1.854 4.273-4.68 5.905-1.694.979-3.782 2.065-5.924 2.451 4.965.895 10.547-.396 14.461-2.655 2.827-1.632 4.209-2.898 4.186-6.536h-.008l-.087-21.396-7.92-.175z"/>
        <path fill="#B3B3FF" d="M547.183 342.037c-5.63 3.25-14.786 3.233-20.451-.038-5.665-3.27-5.694-8.557-.064-11.807s14.786-3.233 20.45.037c5.665 3.271 5.694 8.557.065 11.808"/>
        <path fill="#A1A1E5" d="M545.475 340.875c-4.652 2.686-12.22 2.672-16.902-.03-4.682-2.704-4.706-7.073-.053-9.759 4.653-2.686 12.22-2.673 16.902.03 4.682 2.704 4.705 7.072.053 9.759"/>
        <path fill="#565682" d="M545.422 335.321c-4.682-2.703-12.249-2.717-16.902-.03-1.382.797-2.342 1.745-2.899 2.752.565 1.023 1.544 1.988 2.952 2.802 4.682 2.702 12.25 2.716 16.902.03 1.382-.798 2.341-1.746 2.899-2.752-.565-1.024-1.544-1.989-2.952-2.802"/>
        <path fill="#6B6B9B" d="M528.52 340.875c-1.382-.798-2.341-1.746-2.898-2.752.322-.586.786-1.151 1.383-1.68 4.045-.677 8.574-.104 11.748 1.729 1.381.797 2.34 1.746 2.898 2.752.26.449.436.883.507 1.301-.699.17-1.34.304-1.89.379-4.045.677-8.574.103-11.748-1.729"/>
        <path fill="#45446C" d="M545.917 346.78c1.637.86 4.126 1.612 4.694 3.606.476 1.667.129 4.036.127 5.76-.001.858-.095 1.771-.028 2.622l-.025.972c.615.762.625.98.028.656-.697.089-2.41-1.147-3.054-1.481-2.115-1.098-3.991 2.1-1.87 3.2 1.55.805 3.758 2.378 5.597 2.17 2.617-.295 2.963-2.916 3.02-5.032.084-3.228.527-7.1-.208-10.267-.682-2.938-4.022-4.152-6.41-5.407-2.11-1.109-3.985 2.089-1.87 3.201"/>
        <path fill="#162C5E" d="M292.824 313.219c-5.489 5.935-5.324 9.771-5.992 18.196-.654 8.236 4.219 15.62 11.989 18.218l77.417 25.887s21.654-30.1-3.762-41.024c-13.221-5.683-22.17-13.535-32.076-20.409-14.55-10.098-34.897-14.581-47.576-.868"/>
        <path fill="#162C5E" d="M285.283 445.667c-5.176-1.841-3.754-73.597 2.385-122.668l90.605 41.292c-8.022 42.467-7.995 74.697-4.42 125.316l-88.57-43.94z"/>
        <path fill="#162C5E" d="M378.272 364.291l-15.038-6.71c-9.149 43.158-10.947 74.467-4.314 123.098l-.25-.072c.024 2.816-2.1 5.875-6.24 8.308-7.377 4.336 3.432 6.538 10.81 2.202l19.181-37.78c-4.149-41.543-14.432-32.73-4.149-89.046"/>
        <path fill="#D84177" d="M427.486 468.678l-63.141 38.659c-10.227 6.262-18.132 3.323-17.566-6.53l.542-9.466c.566-9.853 9.396-23.038 19.622-29.3l63.142-38.659c10.226-6.261 18.131-3.323 17.565 6.53l-.542 9.466c-.565 9.854-9.395 23.038-19.622 29.3"/>
        <path fill="#D84177" d="M253.702 443.657l-9.763-88.191c-1.899-12.831 9.316-16.346 24.29-7.61l59.88 34.934c10.789 6.294 20.715 17.4 24.815 27.767l22.647 57.255c6.493 16.414-15.493 43.154-30.608 34.123l-91.26-58.278z"/>
        <path fill="#45446C" d="M492.817 385.152l-11.915 8.166c-4.393 3.01-10.45 1.879-13.46-2.513-3.011-4.393-1.88-10.45 2.513-13.461l11.916-8.165c4.392-3.01 10.449-1.88 13.46 2.512 3.01 4.394 1.88 10.45-2.514 13.461"/>
        <path fill="#FFAA82" d="M377.951 366.66c7.029 6.29 13.318 13.18 19.545 20.246 4.388 4.98 9.021 9.628 15.327 12.059 15.095 5.818 31.992-4.28 45.078-10.845 9.093-4.563 16.562-8.766 25.922-11.081 10.611-2.626 6.116-19.02-4.518-16.388-8.164 2.02-15.897 5.802-23.407 9.507-3.944 1.947-7.858 3.953-11.806 5.892a254.17 254.17 0 0 1-5.557 2.656c-2.258 1.04-2.867 1.314-4.53 1.967-3.145 1.233-6.324 2.206-9.63 2.888-1.528.314 1.28.059-.674.028-.637-.01-1.274.034-1.911.016-.697-.02-1.385-.106-2.079-.146 1.606.092.884.125-.165-.147-.565-.147-1.165-.454-1.732-.547 1.08.177 1.27.656.18.02-.441-.257-.89-.496-1.32-.77-.894-.572-1.582-1.458-.405-.229-1.903-1.985-3.974-3.77-5.817-5.836-6.589-7.383-13.094-14.693-20.483-21.307-3.418-3.06-8.646-3.371-12.018 0-3.112 3.112-3.433 8.944 0 12.017"/>
        <path fill="#264386" d="M362.077 358.878l32.53 31.737c10.572 7.745 24.461-11.724 16.263-18.82l-31.671-33.15c-5.26-4.515-12.368-4.492-16.439.054-4.242 4.739-5.584 14.78-.683 20.179"/>
        <path fill="#FCFEFF" d="M389.687 385.725c9-2.98 15.156-8.02 18.03-17.317 1.056-3.417-4.296-4.88-5.348-1.474-2.287 7.395-7.049 11.09-14.158 13.444-3.37 1.116-1.927 6.474 1.476 5.347"/>
        <path fill="#A8C4E5" d="M440.617 264.81h-.01c-.002-.662-.196-.697-.61-.937l-15.35-8.882c-.919-.531-2.525-.475-3.586.139l-27.789 16.038c-.553.32-.843.722-.87 1.111l-.008-.006.046 1.536.009.008c-.138.431.038.867.566 1.172l15.35 8.861c.459.266 1.09.382 1.739.355.65-.027 1.317-.197 1.847-.503l27.788-16.044c.564-.325.853-.74.868-1.136l.006.039.004-1.75z"/>
        <g transform="translate(390.038 270.425)">
            <mask id="e" fill="#fff">
                <use xlink:href="#d"/>
            </mask>
            <path d="M.142 1.922l1.32 1.093c.06.048.619-1.347.619-1.347L.096.385l.046 1.537z" mask="url(#e)"/>
        </g>
        <g transform="translate(390.038 254.527)">
            <mask id="h" fill="#fff">
                <use xlink:href="#f"/>
            </mask>
            <path fill="url(#g)" d="M28.761.886L.974 16.93C-.088 17.542-.203 18.47.716 19l15.35 8.863c.92.53 2.525.464 3.586-.15l27.79-16.043c1.06-.613 1.176-1.54.256-2.071L32.349.737c-.416-.24-.974-.358-1.558-.358-.705 0-1.449.171-2.03.507" mask="url(#h)"/>
        </g>
        <g>
            <path fill="#B2D0ED" d="M407.775 273.871l11.025-18.459c1.062-.613 2.668-.68 3.587-.148l15.35 8.862c.919.53.803 1.458-.258 2.071L409.69 282.24c-.531.306-1.198.476-1.848.504l-.068-8.873z"/>
            <path fill="#8DB0DA" d="M419.867 267.75l2.817-3.824 15.673-.659-.004 1.792-17.128 5.458z"/>
            <path fill="#45446C" d="M392.318 273.404c0 .267-.188.374-.421.24a.928.928 0 0 1-.42-.726c0-.267.188-.374.42-.24.233.134.421.46.421.726M406.104 280.634l-15.35-8.861c-.92-.531-.804-1.459.258-2.072l27.788-16.043c1.062-.613 2.668-.68 3.587-.149l15.349 8.862c.92.531.804 1.458-.258 2.071l-27.787 16.043c-1.062.614-2.668.68-3.587.15"/>
            <path fill="#565682" d="M430.577 259.766l-4.239-2.447c-.175-.1-.153-.279.05-.395.2-.116.51-.129.684-.028l4.238 2.446c.175.102.153.28-.05.396-.2.116-.509.129-.683.028"/>
            <path fill="#45446C" d="M399.8 278.191l-3.404-1.965c-.144-.083-.263-.309-.263-.501s.119-.282.263-.198l3.404 1.965c.144.083.262.31.262.501 0 .192-.118.281-.262.198"/>
            <path fill="#565682" d="M433.525 267.687l1.676-.968c.1-.058.181-.213.181-.345 0-.133-.08-.194-.18-.137l-1.677.968c-.1.057-.18.212-.18.345 0 .133.08.194.18.137M431.148 269.18l1.676-.968c.1-.057.181-.213.181-.345 0-.133-.081-.194-.181-.137l-1.676.967c-.1.058-.18.214-.18.346 0 .133.08.194.18.137M401.677 275.076c-.71.41-1.866.408-2.582-.005-.715-.412-.719-1.08-.008-1.49.71-.41 1.866-.409 2.582.005.715.412.718 1.08.008 1.49"/>
            <path fill="#97CBFF" d="M419.665 254.576l-23.367 13.49a.816.816 0 0 0 0 1.415l14.187 8.19a.815.815 0 0 0 .816 0l23.367-13.49a.816.816 0 0 0 0-1.414l-14.187-8.19a.816.816 0 0 0-.816 0"/>
            <path fill="#87A6C4" d="M634.74 384.18c-6.179 3.568-16.229 3.55-22.447-.041-6.218-3.59-6.25-9.392-.07-12.96 6.179-3.568 16.23-3.549 22.448.04 6.217 3.59 6.249 9.393.07 12.961"/>
            <path fill="#87A6C4" d="M600.19 355.424l7.469 22.898 31.58.52 7.21-22.07z"/>
            <path fill="#7694AD" d="M637.477 356.89l-7.21 22.523h-.004c-.409 1.325-1.903 3.566-4.494 5.062-1.874 1.081-4.106 1.741-6.476 2.147 5.333.896 11.272.3 15.447-2.11 2.592-1.496 4.086-3.774 4.495-5.099h.005l7.209-22.523h-8.972z"/>
            <path fill="#93B5D1" d="M640.114 363.57c-9.128 5.27-23.975 5.244-33.162-.06-9.186-5.304-9.232-13.875-.103-19.146 9.128-5.27 23.976-5.243 33.162.06 9.185 5.304 9.232 13.876.103 19.146"/>
            <path fill="#162C5E" d="M637.596 361.773c-7.835 4.523-20.58 4.5-28.465-.051-7.885-4.553-7.925-11.911-.089-16.435 7.836-4.524 20.58-4.501 28.465.05 7.886 4.554 7.926 11.912.09 16.436"/>
            <path fill="#27E0C0" d="M607.956 348.89c-.974-1.278-1.841-2.718-2.003-4.317-.163-1.598.551-3.375 2.015-4.036 1.702-.77 3.72.188 5.04 1.508 1.321 1.32 2.26 3.002 3.686 4.209a87161.11 87161.11 0 0 0-5.476-17.332c-.554-1.753-1.115-3.602-.742-5.403.372-1.802 2.033-3.478 3.848-3.18 3.486.572 2.975 6.473 6.077 8.165a44.517 44.517 0 0 1-4.565-13.76c-.443-2.804-.587-5.81.68-8.35 1.265-2.543 4.348-4.364 7.003-3.356 3.283 1.247 3.924 5.534 4.041 9.044l.454 13.55c1.107-4.523 2.824-9.74 7.243-11.21 1.203 6.196.282 12.785-2.575 18.414 1.17-2.056 3.456-3.428 5.819-3.497 1.115 6.318-1.048 13.126-5.605 17.643l3.766-4.19c1.126 4.377-.398 9.33-3.793 12.315-7.95 6.995-19.518.866-24.913-6.217"/>
            <path fill="#A8C4E5" d="M454.417 271.033l115.763 68.341c.812.48 1.86.457 2.75-.058l8.361-4.827c1.92-1.109 2.137-3.784.39-4.815l-115.763-68.341c-.811-.479-1.86-.457-2.75.058l-8.362 4.827c-1.92 1.108-2.136 3.783-.39 4.815" opacity=".425"/>
            <path fill="#8AACCE" d="M575.21 333.816l6.392-4.353-17.468-21.512 6.14 10.193z"/>
            <path fill="#B5CFEA" d="M445.191 147.574l6.193-4.995 13.707 15.37s-8.74 6.429-9.535 6.429c-.796 0-10.365-16.804-10.365-16.804"/>
            <path fill="#8AACCE" d="M493.875 324.652l-26.111-15.076c-2.096-1.21-2.035-3.178.134-4.328l36.876-19.557c2.043-1.083 5.213-1.039 7.187.1l23.484 13.559c1.99 1.149 2.05 2.996.137 4.172l-34.248 21.075c-2 1.23-5.379 1.255-7.459.055"/>
        </g>
        <g transform="translate(466.22 281.024)">
            <mask id="j" fill="#fff">
                <use xlink:href="#i"/>
            </mask>
            <path d="M38.555 1.132L1.68 20.69c-2.17 1.15-2.23 3.118-.135 4.328l26.112 15.075c2.08 1.202 5.458 1.176 7.458-.054l34.249-21.074c1.913-1.178 1.852-3.024-.137-4.172L45.742 1.232c-1.02-.588-2.357-.884-3.694-.884-1.253 0-2.505.26-3.493.784" mask="url(#j)"/>
        </g>
        <g transform="translate(337 127)">
            <ellipse cx="55" cy="111.5" fill="#A8C4E5" fill-rule="nonzero" rx="37" ry="11.5"/>
            <g transform="rotate(-70 76.066 53.013)">
                <g fill-rule="nonzero" transform="rotate(70 47.904 68.414)">
                    <path fill="#E09B2D" d="M45.071 98.785H4.22A45.27 45.27 0 0 0 24.645 83.27a45.27 45.27 0 0 0 20.426 15.514z"/>
                    <path fill="#43F3C2" d="M34.32 11.443a13.288 13.288 0 0 1 3.39 6.475 45.735 45.735 0 0 0-3.152 2.09c-.078-.087-.159-.172-.237-.258a13.3 13.3 0 0 0-9.675-4.156 13.293 13.293 0 0 0-9.914 4.415 45.735 45.735 0 0 0-3.152-2.09 13.25 13.25 0 0 1 3.39-6.476 13.297 13.297 0 0 1 9.675-4.158 13.325 13.325 0 0 1 9.675 4.158z"/>
                    <path fill="#E3465A" d="M34.558 20.009a45.374 45.374 0 0 0-9.913 9.844 45.374 45.374 0 0 0-9.913-9.844c.076-.088.157-.173.238-.259a13.293 13.293 0 0 1 9.675-4.156 13.3 13.3 0 0 1 9.676 4.156c.078.086.159.171.237.259z"/>
                    <path fill="#43F3C2" d="M47.499 6.807l-2.428 7.532a44.834 44.834 0 0 0-7.36 3.58 13.288 13.288 0 0 0-3.635-6.727 13.325 13.325 0 0 0-6.498-3.582l5.153-5.648 3.23 3.022 4.154-3.253 1.846 5.538 5.538-.462zM16.558 1.962l5.155 5.648a13.297 13.297 0 0 0-6.743 3.833 13.25 13.25 0 0 0-3.39 6.475 44.834 44.834 0 0 0-7.36-3.579L1.79 6.807l5.538.462L9.174 1.73l4.153 3.253 3.23-3.022z"/>
                    <path fill="#FFC35A" d="M37.71 17.918a44.834 44.834 0 0 1 7.361-3.579v84.446A45.27 45.27 0 0 1 24.645 83.27a44.918 44.918 0 0 0 8.753-26.71c0-9.993-3.252-19.23-8.753-26.708a45.374 45.374 0 0 1 13.066-11.935z"/>
                    <path fill="#FFC35A" d="M14.732 20.009a45.374 45.374 0 0 1 9.913 9.844 44.923 44.923 0 0 1 8.753 26.709 44.918 44.918 0 0 1-8.753 26.71A45.27 45.27 0 0 1 4.22 98.784V14.339a44.834 44.834 0 0 1 10.513 5.67z"/>
                    <path fill="#EEA532" d="M13.68 19.271a44.834 44.834 0 0 0-9.46-4.932v84.446a45.025 45.025 0 0 0 9.46-4.93V19.27z"/>
                    <circle cx="27.019" cy="20.053" r="1.731" fill="#FFF"/>
                    <circle cx="40.439" cy="11.313" r="1.731" fill="#FFF"/>
                    <path fill="#162C5E" d="M48.855 5.731a1.729 1.729 0 0 0-1.5-.648l-4.182.348-1.416-4.248a1.73 1.73 0 0 0-2.71-.815l-2.985 2.34-2.149-2.01a1.732 1.732 0 0 0-2.46.097L26.95 5.73a15.273 15.273 0 0 0-4.613-.003l-4.5-4.933a1.73 1.73 0 0 0-2.461-.097l-2.148 2.01L10.24.368a1.73 1.73 0 0 0-2.709.815L6.117 5.431l-4.183-.348A1.728 1.728 0 0 0 .143 7.338l2.344 7.274v84.174c0 .955.775 1.73 1.731 1.73h40.853a1.73 1.73 0 0 0 1.73-1.73V14.61l2.345-7.273a1.73 1.73 0 0 0-.291-1.607zM32.829 4.423l1.95 1.825a1.73 1.73 0 0 0 2.25.099l2.22-1.74 1.07 3.209a1.734 1.734 0 0 0 1.786 1.177l2.95-.246-1.379 4.277a46.89 46.89 0 0 0-4.921 2.302A15.016 15.016 0 0 0 35.3 9.968a15.077 15.077 0 0 0-4.643-3.165l2.172-2.38zM23.25 30.879c5.505 7.482 8.415 16.363 8.415 25.683s-2.91 18.202-8.415 25.684a43.405 43.405 0 0 1-17.302 13.95V16.93a43.405 43.405 0 0 1 17.302 13.949zm1.394-3.852a47.01 47.01 0 0 0-7.24-7.167 11.481 11.481 0 0 1 7.24-2.536c2.662 0 5.188.894 7.24 2.536a47.01 47.01 0 0 0-7.24 7.167zm0 59.07a46.868 46.868 0 0 0 12.784 10.958H11.86a46.869 46.869 0 0 0 12.784-10.958zm2.15-2.86c5.455-7.854 8.332-17.048 8.332-26.675 0-9.627-2.878-18.82-8.332-26.673a43.374 43.374 0 0 1 16.545-12.96v79.266a43.379 43.379 0 0 1-16.545-12.959zm6.06-70.819a11.571 11.571 0 0 1 2.86 4.701c-.324.208-.646.419-.965.635a14.968 14.968 0 0 0-10.105-3.891 14.909 14.909 0 0 0-10.102 3.893c-.32-.217-.644-.428-.97-.637.528-1.667 1.431-3.2 2.652-4.484a11.498 11.498 0 0 1 8.42-3.618 11.54 11.54 0 0 1 8.21 3.401zM7.185 8.993A1.733 1.733 0 0 0 8.97 7.816l1.07-3.21 2.22 1.74a1.73 1.73 0 0 0 2.25-.098l1.95-1.825 2.167 2.374a15.03 15.03 0 0 0-4.912 3.454 15.034 15.034 0 0 0-3.18 5.075 46.874 46.874 0 0 0-4.922-2.302l-1.38-4.277 2.951.246z"/>
                </g>
                <path stroke="#243265" stroke-width="5" d="M63.125 50.558a13.155 13.155 0 0 1-5.698-6.09 13.382 13.382 0 0 1-1.005-8.257c.39-1.91 2.442-3.43 4.59-3.389 1.588.035 2.788.938 3.14 2.17.133.436.134.912.044 1.394-.007.06-.018.113-.024.173a7.044 7.044 0 0 0 .015 2.506c-.005.04.014.08.029.111.116.577.288 1.146.518 1.688.08.174.158.339.247.506.265.518.592.996.959 1.437l.03.063c.58.646 1.23 1.214 1.99 1.624.014.004.017.012.03.016.453.248.815.575 1.042.986.717 1.043.619 2.53-.377 3.768-1.332 1.661-3.818 2.246-5.53 1.294"/>
                <path fill="#E3465A" d="M63.125 50.558a13.155 13.155 0 0 1-5.698-6.09 13.382 13.382 0 0 1-1.005-8.257c.39-1.91 2.442-3.43 4.59-3.389 1.588.035 2.788.938 3.14 2.17.133.436.134.912.044 1.394-.007.06-.018.113-.024.173a7.044 7.044 0 0 0 .015 2.506c-.005.04.014.08.029.111.116.577.288 1.146.518 1.688.08.174.158.339.247.506.265.518.592.996.959 1.437l.03.063c.58.646 1.23 1.214 1.99 1.624.014.004.017.012.03.016.453.248.815.575 1.042.986.717 1.043.619 2.53-.377 3.768-1.332 1.661-3.818 2.246-5.53 1.294"/>
                <path fill="#FFF" d="M63.143 41.631c-1.057-.032-1.98-.562-2.36-1.455-.55-1.3.257-2.884 1.812-3.543a3.587 3.587 0 0 1 1.648-.275 7.01 7.01 0 0 0-.073 2.504c-.006.04.01.08.024.113.096.58.248 1.155.46 1.704.075.177.145.345.228.515.247.527.558 1.017.909 1.47l.027.064c.558.666 1.187 1.256 1.932 1.692a3.491 3.491 0 0 1-1.4 1.074c-1.555.658-3.254.138-3.805-1.163-.38-.893-.117-1.927.598-2.7z"/>
                <g transform="rotate(103 26.76 42.244)">
                    <mask id="l" fill="#fff">
                        <use xlink:href="#k"/>
                    </mask>
                    <path fill="#000" d="M6.018 2.866c.235 1.76-.915 3.366-2.569 3.588C1.795 6.675.265 5.429.03 3.67-.205 1.909.945.302 2.597.08c1.656-.222 3.186 1.026 3.42 2.785" mask="url(#l)"/>
                </g>
                <path fill="#FFF" d="M71.094 28.031c-.698-.066-1.213-.663-1.149-1.336.062-.669.679-1.16 1.378-1.095.698.066 1.212.664 1.15 1.335-.064.672-.68 1.163-1.38 1.096M68.528 29.78a.863.863 0 0 1-.782-.94.864.864 0 0 1 .943-.777.866.866 0 0 1 .783.94.863.863 0 0 1-.944.776"/>
                <g>
                    <g transform="rotate(103 23.74 55.283)">
                        <mask id="n" fill="#fff">
                            <use xlink:href="#m"/>
                        </mask>
                        <path fill="#000" d="M6.018 2.866c.235 1.76-.915 3.366-2.569 3.588C1.795 6.675.265 5.429.03 3.67-.205 1.909.945.302 2.597.08c1.656-.222 3.186 1.026 3.42 2.785" mask="url(#n)"/>
                    </g>
                    <path fill="#FFF" d="M80.098 46.947c-.698-.067-1.213-.664-1.148-1.337.061-.669.678-1.16 1.377-1.095.698.066 1.212.664 1.15 1.335-.064.672-.68 1.163-1.38 1.097M77.532 48.695a.863.863 0 0 1-.782-.94.864.864 0 0 1 .943-.777.866.866 0 0 1 .784.94.863.863 0 0 1-.945.777"/>
                </g>
                <circle cx="44.339" cy="42.112" r="1.731" fill="#333" fill-rule="nonzero"/>
                <circle cx="29.574" cy="39.681" r="1.731" fill="#333" fill-rule="nonzero"/>
                <circle cx="33.983" cy="63.242" r="1.731" fill="#333" fill-rule="nonzero"/>
            </g>
        </g>
        <g>
            <path fill="#45446C" d="M488.039 291.032l32.002 18.653 6.638-4.085-31.691-18.253z"/>
            <path fill="#B5CFEA" d="M580.241 216.41l-.168.041h.038l-126.039-73.038-1.172-.755c-.96-.558-2.126.082-2.126 1.272l1.062.315h.708V260.2c0 1.293.494 2.848 1.537 3.455 0 0 127.504 61.979 127.504 60.686l.136-104.7v-.188c0-1.19-.52-2.485-1.48-3.043"/>
            <path fill="#8AACCE" d="M528.168 261.625c16.385-16.476 25.609 30.28 35.966 55.91 5.194 12.854 17.398 12.06 17.398 12.06l.19-109.266v-.5c0-.646-.048-1.578-.367-2.188l-53.187 43.984z"/>
        </g>
        <g transform="translate(444.359 147.872)">
            <mask id="p" fill="#fff">
                <use xlink:href="#o"/>
            </mask>
            <path fill="url(#g)" d="M.404 1.908L.39 109.59c0 1.198.86 2.672 1.912 3.274l127.415 73.043c1.052.603 1.913.117 1.913-1.082l.015-107.682c0-1.197-.86-2.67-1.912-3.274L2.317.826C2.01.651 1.72.568 1.462.568c-.626 0-1.058.491-1.058 1.34" mask="url(#p)"/>
        </g>
        <g>
            <path fill="#162C5E" d="M574.16 318.94l-127.936-73.863c-.97-.56-1.765-1.944-1.768-3.076l-.205-93.304c-.002-1.132.789-1.6 1.759-1.04l127.936 73.864c.97.56 1.764 1.943 1.767 3.075l.204 93.304c.003 1.132-.788 1.6-1.757 1.04"/>
            <path fill="#97CBFF" d="M569.273 306.324L448.9 236.828l.261-80.893 120.37 69.496z"/>
            <path fill="#6F6F9E" d="M539.901 225.873l-65.448-37.787c-.96-.553-1.737-2.04-1.737-3.319 0-1.28.777-1.867 1.737-1.314L539.9 221.24c.96.554 1.738 2.04 1.738 3.32 0 1.28-.779 1.867-1.738 1.313"/>
            <path fill="#D84177" d="M540.584 247.018l-52.71-30.432c-.96-.554-1.738-2.04-1.738-3.32 0-1.279.778-1.867 1.738-1.313l52.71 30.432c.959.554 1.737 2.04 1.737 3.32 0 1.28-.778 1.867-1.737 1.313"/>
            <path fill="#6F6F9E" d="M540.584 258.568l-17.432-10.064c-.96-.554-1.738-2.04-1.738-3.32 0-1.28.777-1.867 1.738-1.313l17.432 10.064c.959.554 1.737 2.04 1.737 3.32 0 1.28-.778 1.867-1.737 1.313M497.077 233.45l-8.438-4.872c-.96-.554-1.737-2.04-1.737-3.32 0-1.28.777-1.867 1.737-1.314l8.438 4.873c.96.554 1.738 2.04 1.738 3.32 0 1.28-.778 1.867-1.738 1.313M486.531 239.629l-11.14-6.432c-.96-.554-1.737-2.04-1.737-3.32 0-1.278.778-1.867 1.738-1.313l11.14 6.432c.959.554 1.737 2.04 1.737 3.32 0 1.28-.778 1.867-1.738 1.313"/>
            <path fill="#D84177" d="M504.445 261.62l-29.053-16.775c-.96-.554-1.738-2.04-1.738-3.32 0-1.28.778-1.867 1.738-1.313l29.053 16.774c.959.554 1.737 2.04 1.737 3.32 0 1.28-.778 1.867-1.737 1.313"/>
            <path fill="#6F6F9E" d="M540.243 270.64l-45.29-26.148c-.959-.555-1.736-2.04-1.737-3.32 0-1.28.778-1.867 1.738-1.313l45.289 26.147c.959.554 1.737 2.04 1.737 3.32 0 1.28-.778 1.867-1.737 1.313M514.809 243.687l-7.303-4.216c-.96-.554-1.737-2.04-1.737-3.32 0-1.28.777-1.867 1.737-1.314l7.303 4.217c.96.554 1.738 2.04 1.738 3.32 0 1.28-.778 1.867-1.738 1.313M506.048 215.724l-18.175-10.492c-.96-.555-1.737-2.04-1.737-3.32 0-1.28.778-1.867 1.737-1.313l18.175 10.492c.959.554 1.737 2.04 1.737 3.32 0 1.28-.778 1.867-1.737 1.313"/>
            <path fill="#D84177" d="M517.59 222.389l-5.1-2.946c-.96-.554-1.738-2.04-1.738-3.32 0-1.278.778-1.867 1.737-1.313l5.102 2.945c.959.555 1.737 2.04 1.737 3.32 0 1.28-.778 1.867-1.737 1.314"/>
            <path fill="#FFF" d="M453.227 235.456l76.928-28.318 27.744 15.459-76.58 27.454zM453.869 229.086l70.03-24.423-15.633-8.05-54.397 19.32z" opacity=".406"/>
            <path fill="#A8C4E5" d="M505.235 286.72c0 2.76-1.95 3.871-4.355 2.483-2.406-1.389-4.355-4.752-4.355-7.512s1.95-3.872 4.355-2.483c2.405 1.389 4.355 4.751 4.355 7.512"/>
            <path fill="#FFF" d="M358.823 263.753l-.041 2.91s-.066 8.778-8.453 3.809c-8.388-4.968-7.563-15.878-7.563-15.878s6.591-.437 16.057 9.159"/>
            <path fill="#513554" d="M343.187 255.025s6.412-.01 15.586 8.835l-.049 2.52s-.093 7.605-8.234 2.83c-8.141-4.774-7.303-14.185-7.303-14.185m7.072 15.698c10.942 6.417 11.066-3.821 11.066-3.821l.089.047-.157-3.493c-11.989-11.414-19.988-11.305-19.988-11.305s-1.952 12.155 8.99 18.572"/>
            <path fill="#513554" d="M365.43 269.072l-6.527-3.39-.17-3.801 6.527 3.39zM341.663 255.083l-1.156-.601c-.63-.327-1.172-1.258-1.208-2.077-.037-.82.445-1.22 1.076-.892l1.156.601c.63.327 1.17 1.258 1.208 2.077.036.82-.445 1.219-1.076.892M383.877 277.008l-1.156-.601c-.631-.327-1.172-1.257-1.209-2.077-.036-.82.446-1.219 1.076-.892l1.156.601c.63.328 1.171 1.258 1.208 2.077.037.82-.445 1.22-1.075.892"/>
            <path fill="#FFF" d="M365.691 267.545l.3 3.002s.845 8.993 8.933 12.6c8.089 3.607 6.283-8.339 6.283-8.339s-6.741-7.248-15.516-7.263"/>
            <path fill="#513554" d="M374.979 281.93c-8.092-3.658-8.882-11.72-8.882-11.72l-.282-2.693c8.802.492 15.52 7.322 15.52 7.322s1.736 10.747-6.356 7.09m8.1-8.062s-8.388-8.62-19.903-9.415l.156 3.494.088.044s1.064 10.854 11.94 15.77c10.874 4.915 7.72-9.893 7.72-9.893"/>
            <path fill="#FCFEFF" d="M367.54 272.212c-.262-.347-.327-.775-.146-.954l2.109-2.098c.18-.18.539-.045.8.302.262.347.327.774.146.954l-2.109 2.098c-.18.18-.54.044-.8-.302M344.224 259.618c-.261-.347-.326-.774-.146-.953l2.109-2.098c.18-.18.54-.045.8.302.262.347.327.774.147.954l-2.11 2.098c-.18.18-.538.044-.8-.303"/>
            <path fill="#FFAA82" d="M328.549 316.453l5.397-30.315 18.858 11.505-4.295 27.573c-.34 4.462-20.829 1.493-19.96-8.763"/>
            <path fill="#FFAA82" d="M341.887 244.275s-17.65-12.32-19.236 15.787c-1.105 19.552 10.212 37.126 26.27 45.604 9.998 5.28 22.826-.165 23.88-9.874 3.158-14.079 3.866-27.357-.332-39.033 1.271-11.708-7.22-7.956-21.491-9.45l-9.091-3.034z"/>
            <path fill="#0C1831" d="M326.973 297.298c-5.957-3.411-17.372-12.74-14.922-33.336 2.18-18.322 18.09-21.692 29.347-26.966 7.098-3.325 6.29-11.148 9.21-11.148 2.92 0 20.02 2.629 26.056 17.05 3.454 8.254-.527 18.324-9.63 18.679-3.61.14-2.46 9.906-3.355 13.19-1.592 5.841-5.418 8.54-7.071 14.197-1.564 5.352-10.051 12.884-15.21 13.771-6.11 1.052-8.827-.239-10.034-1.593-1.307-1.465-2.686-2.868-4.39-3.844z"/>
            <path fill="#513554" d="M383.378 277.9l-25.53 1.138a1.658 1.658 0 0 1-1.725-1.578 1.658 1.658 0 0 1 1.577-1.724l25.53-1.138c.908-.04 1.684.669 1.725 1.577.04.908-.67 1.684-1.577 1.724"/>
            <path fill="#FFAA82" d="M361.514 283.396c.165 4.762-2.468 8.719-5.879 8.836-.373.013-.74-.02-1.098-.096-2.915-.621-5.231-4.071-5.378-8.312-.164-4.762 2.467-8.718 5.88-8.837 3.411-.118 6.31 3.647 6.475 8.41"/>
            <path fill="#264386" d="M361.097 328.338c-20.781-4.135-36.45 8.335-38.275-22.001 3.284-1.747 7.16-.644 8.908 2.404 3.07 5.35 10.429 8.988 19.056 8.354 2.582-.19 4.961 1.09 6.122 3.293l4.189 7.95z"/>
            <path fill="#DD4078" d="M530.653 430.437l-39.375-22.733a.728.728 0 0 1 0-1.26l53.98-31.166a.729.729 0 0 1 .728 0l39.374 22.733c.485.28.485.98 0 1.26l-53.98 31.166a.73.73 0 0 1-.727 0"/>
            <path fill="#DD4078" d="M490.966 407.236h1.325v-1.987h-1.325zM584.37 398.625h1.988V397.3h-1.987z"/>
            <path fill="#EF487C" d="M530.653 429.102l-39.375-22.732a.728.728 0 0 1 0-1.262l53.98-31.165a.729.729 0 0 1 .728 0l39.374 22.734c.485.28.485.98 0 1.26l-53.98 31.165a.73.73 0 0 1-.727 0"/>
            <path fill="#DD4078" d="M569.998 453.074l-39.375-22.733a.728.728 0 0 1 0-1.261l53.98-31.165a.728.728 0 0 1 .727 0l39.375 22.733c.485.28.485.98 0 1.261l-53.98 31.165a.73.73 0 0 1-.727 0"/>
            <path fill="#DD4078" d="M530.713 429.76h1.325v-1.325h-1.325zM623.455 420.485h1.988v-.662h-1.988z"/>
            <path fill="#EF487C" d="M569.998 451.74l-39.375-22.733a.728.728 0 0 1 0-1.262l53.98-31.165a.728.728 0 0 1 .727 0l39.375 22.734c.485.28.485.98 0 1.26l-53.98 31.165a.73.73 0 0 1-.727 0"/>
            <path fill="#DD4078" d="M504.976 410.123l25.65 16.549 15.57-12.39s-30.223-12.315-41.22-4.16"/>
        </g>
        <g transform="translate(494.705 376.417)">
            <mask id="s" fill="#fff">
                <use xlink:href="#q"/>
            </mask>
            <path fill="url(#r)" d="M48.873.495L.988 28.14c-.653.378-.725.953-.16 1.279 17.656 8.614 33.096 12.024 35.314 20.388L86.4 20.792C86.685 13.637 73.017 6.898 51.086.404c-.256-.148-.6-.22-.961-.22-.436 0-.896.105-1.252.31" mask="url(#s)"/>
        </g>
        <g transform="translate(500.667 371.78)">
            <mask id="u" fill="#fff">
                <use xlink:href="#t"/>
            </mask>
            <path fill="url(#g)" d="M47.064.695L.746 28.329c-.631.377-.738.99-.239 1.367 15.739 10.018 31.284 14.996 29.673 24.75L80.408 25.14C81.18 17.464 68.968 8.619 49.12.69c-.25-.186-.604-.28-.976-.28-.374 0-.764.095-1.08.284" mask="url(#u)"/>
        </g>
        <g>
            <path fill="#D2D5DE" d="M569.34 386.89l-16.979-10.86c-.216-.138-.177-.36.085-.497.264-.137.651-.135.868.003l16.978 10.861c.216.138.178.361-.085.498-.263.135-.651.134-.867-.004zm-5.57 3.6l-16.979-10.86c-.216-.14-.177-.361.085-.498.264-.136.651-.135.868.004l16.978 10.86c.216.138.178.36-.084.497-.264.137-.652.135-.868-.004zm-5.57 3.599l-16.979-10.861c-.216-.138-.177-.36.086-.497.263-.136.65-.134.867.003l16.978 10.861c.216.139.178.361-.084.497-.264.137-.652.135-.868-.003zm-5.57 3.599l-16.978-10.86c-.216-.139-.178-.36.085-.497s.651-.135.868.003l16.977 10.86c.216.139.179.361-.084.498-.263.136-.652.134-.868-.004zm-5.57 3.6l-16.978-10.862c-.216-.137-.178-.36.085-.497.263-.136.651-.134.868.004l16.977 10.86c.217.139.179.362-.084.497-.263.137-.652.136-.868-.003zm-5.7 4.972L524.38 395.4c-.216-.139-.177-.36.085-.498.264-.135.651-.134.868.004l16.978 10.86c.216.139.178.361-.084.498-.264.136-.652.134-.868-.004zm-5.57 3.6l-16.979-10.861c-.216-.139-.177-.36.086-.497s.65-.135.867.003l16.978 10.86c.216.14.178.362-.084.498-.264.136-.652.134-.868-.004zm-5.57 3.598l-16.978-10.86c-.216-.138-.178-.36.085-.497.263-.136.651-.135.868.004l16.977 10.86c.216.138.179.36-.084.497-.263.136-.652.135-.868-.004z"/>
            <path fill="#DD4078" d="M530.626 426.672l20.867 10.154s-14.7-17.11-20.867-10.154"/>
            <path fill="#FFF" d="M530.847 426.225s4.844-1.804 8.752 1.43c3.907 3.235 28.835 21.963 28.835 21.963l50.663-28.97s-27.072-26.263-37.992-23.44l-50.258 29.017z"/>
            <path fill="#D2D5DE" d="M603.564 413.666l-16.73-11.241c-.212-.143-.17-.365.097-.495.266-.13.654-.12.867.023l16.728 11.24c.213.144.17.366-.095.495-.266.131-.654.121-.867-.022zm-5.65 3.473l-16.73-11.241c-.212-.144-.17-.365.098-.495.265-.13.653-.12.866.023l16.729 11.24c.213.143.17.365-.096.495s-.654.12-.867-.022zm-5.65 3.472l-16.729-11.24c-.212-.144-.17-.366.097-.496.266-.13.654-.12.867.023l16.728 11.241c.213.143.17.365-.095.495-.266.13-.655.12-.868-.023zm-5.65 3.472l-16.728-11.24c-.213-.143-.17-.365.096-.495s.654-.12.867.023l16.729 11.24c.212.144.17.365-.096.496-.267.13-.655.12-.867-.024zm-5.649 3.473l-16.729-11.241c-.212-.143-.17-.364.096-.495.267-.13.655-.12.867.023l16.73 11.241c.212.143.17.365-.096.495-.267.13-.655.12-.868-.023zm-5.811 4.843l-16.73-11.24c-.212-.144-.17-.366.097-.495.266-.13.654-.12.867.023l16.729 11.24c.213.143.17.365-.096.495s-.655.12-.867-.023zm-5.65 3.473l-16.729-11.24c-.212-.144-.17-.366.096-.496.267-.13.655-.12.868.023l16.728 11.24c.213.144.17.366-.096.496s-.654.12-.867-.023zm-5.65 3.472l-16.728-11.24c-.213-.143-.17-.365.096-.495s.654-.12.867.022l16.729 11.242c.212.143.17.364-.096.494-.267.13-.655.12-.867-.023z"/>
            <path fill="#7878EA" d="M599.248 404.43c-5.814 5.19-21.576 17.575-29.94 24.036-.398.307-.15.94.35.902l6.24-.481a.505.505 0 0 1 .52.658l-1.39 4.338c-.148.46.374.852.768.57 3.48-2.485 13.026-12.873 26.823-26.41a2.475 2.475 0 0 0-.389-3.846 2.468 2.468 0 0 0-2.982.233M664.715 231.14l-37.963-22.002c-1.563-.903-2.93-.907-3.966-.197l.006-.006-6.393 3.621s2.42 3.795 4.407 8.261v34.324c0 4.354 2.66 9.414 5.925 11.299l30.948 17.87c2.888 4.861 4.84 8.042 4.84 8.042l5.983-3.453v-.01c1.325-.624 1.987-2.36 1.987-4.917v-41.533c0-4.355-2.508-9.413-5.774-11.299"/>
            <path fill="#8585FF" d="M658.295 292.268l-38.109-22.002c-3.266-1.886-5.914-6.945-5.914-11.3v-41.532c0-4.355 2.648-6.357 5.914-4.47l38.11 22.002c3.266 1.885 5.913 6.944 5.913 11.3v41.531c0 4.355-2.647 6.357-5.914 4.471"/>
            <path fill="#8585FF" d="M653.282 294.442l-38.109-22.002c-3.266-1.886-5.914-6.945-5.914-11.3v-41.532c0-4.355 2.648-6.357 5.914-4.47l38.11 22.002c3.266 1.886 5.914 6.944 5.914 11.3v41.531c0 4.355-2.648 6.357-5.915 4.471" opacity=".371"/>
            <path fill="#FFF" d="M628.763 260.37l-10.106-17.43 11.003-6.273 2.125 3.725-7.25 4.135 7.938 13.691zM648.763 271.02l-2.124-3.725 7.145-4.074-8.043-13.874 3.71-2.151 10.21 17.611zM637.939 268.87l-4.14-1.121 7.55-27.882 4.139 1.121z"/>
            <path fill="#22C6A6" d="M594.354 116.37l-38.033-22.002c-1.562-.903-2.966-.907-4.002-.197l-.01-.005-6.262 3.62s1.89 3.795 4.54 8.261v34.324c0 4.354 2.518 9.414 5.784 11.299l30.877 17.87c2.889 4.862 4.945 8.042 4.945 8.042l6.09-3.452v-.011c.662-.624 1.987-2.36 1.987-4.917v-41.533c0-4.354-2.65-9.413-5.916-11.299"/>
            <path fill="#27E0C0" d="M587.794 177.498l-38.11-22.002c-3.266-1.886-5.914-6.945-5.914-11.3v-41.532c0-4.355 2.648-6.357 5.915-4.47l38.109 22.002c3.266 1.885 5.914 6.944 5.914 11.3v41.531c0 4.355-2.648 6.357-5.914 4.471"/>
            <path fill="#27E0C0" d="M581.534 179.312l-38.109-22.003c-3.267-1.886-5.914-6.944-5.914-11.299v-41.533c0-4.355 2.647-6.356 5.914-4.47l38.11 22.003c3.265 1.885 5.913 6.944 5.913 11.299v41.532c0 4.355-2.648 6.356-5.914 4.471" opacity=".371"/>
            <path fill="#FFF" d="M567.942 148.74c-5.243-3.028-9.493-10.359-9.493-16.375 0-6.017 4.25-8.44 9.493-5.413 5.244 3.027 9.494 10.359 9.494 16.375s-4.25 8.44-9.494 5.413m15.606-6.898c-1.867-1.077-2.801-4.206-1.481-4.959 1.493-.852 1.493-3.63 0-6.208l-.77-1.326c-1.493-2.577-3.915-3.974-5.41-3.123-1.319.752-3.575-1.623-3.575-3.764 0-2.425-1.713-5.38-3.826-6.599l-1.087-.628c-2.113-1.22-3.825-.243-3.825 2.182 0 2.141-2.257 1.911-3.576-.365-1.495-2.577-3.917-3.976-5.41-3.124l-.77.439c-1.493.851-1.493 3.63 0 6.207 1.32 2.277.386 4.326-1.48 3.248-2.113-1.22-3.826-.243-3.826 2.181v1.248c0 2.425 1.713 5.379 3.825 6.598 1.867 1.078 2.802 4.207 1.482 4.96-1.494.851-1.494 3.63 0 6.207l.769 1.326c1.493 2.577 3.915 3.975 5.41 3.124 1.32-.753 3.576 1.622 3.576 3.764 0 2.424 1.712 5.378 3.825 6.598l1.087.628c2.113 1.22 3.826.244 3.826-2.18 0-2.142 2.256-1.912 3.576.364 1.494 2.577 3.916 3.975 5.41 3.123l.768-.438c1.494-.852 1.494-3.63 0-6.208-1.32-2.276-.385-4.326 1.482-3.248 2.112 1.22 3.825.243 3.825-2.181v-1.248c0-2.424-1.713-5.378-3.825-6.598"/>
            <path fill="#EEA532" d="M664.441 152.987l-38.099-22.002c-1.562-.903-2.998-.907-4.035-.196l-.027-.006-6.468 3.62s2.344 3.795 4.331 8.261v34.324c0 4.355 2.718 9.414 5.984 11.299l30.976 17.87c2.89 4.862 4.797 8.042 4.797 8.042l5.94-3.452v-.011c1.324-.624 2.65-2.36 2.65-4.917v-41.533c0-4.354-2.782-9.413-6.049-11.299"/>
            <path fill="#FFC35A" d="M657.749 214.115l-38.11-22.002c-3.266-1.886-5.913-6.945-5.913-11.3v-41.532c0-4.355 2.647-6.356 5.913-4.47l38.11 22.002c3.266 1.886 5.913 6.944 5.913 11.3v41.532c0 4.354-2.647 6.356-5.913 4.47"/>
            <path fill="#FFD22D" d="M652.395 217.589l-38.109-22.003c-3.266-1.886-5.913-6.944-5.913-11.3v-41.531c0-4.355 2.647-6.357 5.913-4.471l38.11 22.002c3.266 1.886 5.914 6.945 5.914 11.3v41.532c0 4.355-2.648 6.357-5.915 4.47" opacity=".371"/>
            <path fill="#FFF" d="M642.691 191.043l.668.386c1.48.854 1.867.471 1.867-1.751 0-2.181-.14-4.203-.14-6.668 0-3.07.844-3.755 2.605-3.223v-.161c-1.76-1.502-2.606-3.161-2.606-6.233 0-2.465.141-4.323.141-6.505 0-2.223-.387-3.052-1.867-3.906l-.668-.386v-3.152l2.218 1.28c3.099 1.79 4.507 3.976 4.507 8.341 0 2.869-.352 4.161-.352 6.707 0 1.414.74 3.335 3.03 4.738v3.476c-2.29-1.242-3.03-.173-3.03 1.241 0 2.546.352 4.244.352 7.113 0 4.364-1.408 4.925-4.507 3.135l-2.218-1.28v-3.152zM631.688 187.842l-2.218-1.28c-3.099-1.79-4.507-3.976-4.507-8.34 0-2.87.351-4.161.351-6.707 0-1.414-.739-3.337-3.028-4.739v-3.475c2.29 1.241 3.028.172 3.028-1.241 0-2.547-.351-4.245-.351-7.114 0-4.364 1.408-4.924 4.507-3.136l2.218 1.282v3.152l-.669-.387c-1.479-.854-1.866-.471-1.866 1.751 0 2.182.141 4.203.141 6.668 0 3.071-.846 3.754-2.606 3.224v.16c1.76 1.502 2.606 3.163 2.606 6.233 0 2.466-.141 4.324-.141 6.505 0 2.223.387 3.053 1.866 3.907l.67.386v3.151z"/>
        </g>
    </g>
</svg>
