<svg xmlns="http://www.w3.org/2000/svg" xmlns:xlink="http://www.w3.org/1999/xlink" width="671" height="600" viewBox="0 0 671 600">
    <defs>
        <path id="a" d="M0 .333h467.65v23.235H0z"/>
        <path id="c" d="M0 .203h76.515v140.875H0z"/>
        <path id="e" d="M.627.138h56.667v50.955H.627z"/>
        <path id="g" d="M.175.138h28.333v50.955H.175z"/>
        <path id="i" d="M0 .121h13.069V14H0z"/>
        <path id="k" d="M0 .121h13.069V14H0z"/>
    </defs>
    <g fill="none" fill-rule="evenodd">
        <path fill="#142345" d="M671 402.37c-23.751-35.49-56.641-66.047-94.858-88.764-60.64-36.05-131.716-58.807-204.027-57.557-67.711 1.17-139.347 32.26-176.137 96.74-29.86 52.33-38.988 101.04-87.348 140.132C75.232 519.92 21.57 528.876 4.9 566.684.228 577.287-.647 588.58.393 600H671V402.37z"/>
        <path fill="#FFD474" d="M208 40c0 3.868 3.134 7 6.999 7A7 7 0 1 0 208 40"/>
        <path fill="#84B4FE" d="M526 173a5 5 0 1 0 10 0c0-2.761-2.237-5-4.999-5a5 5 0 0 0-5.001 5"/>
        <path fill="#FFD474" d="M283.564 128.559l2.967-1.592c.186-.1.338-.251.437-.438l1.592-2.967c.403-.75 1.48-.75 1.882 0l1.59 2.967c.1.187.251.338.437.438l2.967 1.592c.752.403.752 1.48 0 1.882l-2.967 1.592a1.06 1.06 0 0 0-.437.435l-1.59 2.97c-.403.75-1.48.75-1.882 0l-1.592-2.97a1.06 1.06 0 0 0-.437-.435l-2.967-1.592a1.067 1.067 0 0 1 0-1.882M622.693 209.842l3.653-1.959c.229-.122.415-.308.535-.537l1.959-3.653c.497-.924 1.823-.924 2.318 0l1.959 3.653c.12.229.308.415.537.537l3.653 1.959a1.314 1.314 0 0 1 0 2.316l-3.653 1.959a1.302 1.302 0 0 0-.537.537l-1.959 3.653c-.495.924-1.821.924-2.318 0l-1.959-3.653a1.297 1.297 0 0 0-.535-.537l-3.653-1.959a1.314 1.314 0 0 1 0-2.316"/>
        <path fill="#C1DDF7" d="M147.823 285.124l4.337-2.326c.272-.144.492-.366.64-.638l2.324-4.337c.588-1.097 2.162-1.097 2.75 0l2.327 4.337c.145.272.368.494.638.638l4.337 2.326c1.099.588 1.099 2.162 0 2.75l-4.337 2.327c-.27.145-.493.368-.638.638l-2.327 4.337c-.588 1.099-2.162 1.099-2.75 0l-2.324-4.337a1.576 1.576 0 0 0-.64-.638l-4.337-2.327c-1.097-.588-1.097-2.162 0-2.75"/>
        <path fill="#84B4FE" d="M489.78 7.697l4.11-2.203c.255-.138.466-.348.603-.606L496.7.778c.556-1.038 2.048-1.038 2.605 0l2.203 4.11c.14.258.348.468.603.606l4.11 2.203c1.04.556 1.04 2.048 0 2.605l-4.11 2.205a1.486 1.486 0 0 0-.603.604l-2.203 4.109c-.557 1.04-2.049 1.04-2.605 0l-2.206-4.11a1.473 1.473 0 0 0-.603-.603l-4.11-2.205c-1.04-.557-1.04-2.049 0-2.605M362.78 72.697l4.11-2.203c.255-.138.466-.348.603-.606l2.206-4.11c.556-1.038 2.048-1.038 2.605 0l2.203 4.11c.14.258.348.468.603.606l4.11 2.203c1.04.556 1.04 2.048 0 2.605l-4.11 2.205a1.486 1.486 0 0 0-.603.604l-2.203 4.109c-.557 1.04-2.049 1.04-2.605 0l-2.206-4.11a1.473 1.473 0 0 0-.603-.603l-4.11-2.205c-1.04-.557-1.04-2.049 0-2.605M185.563 168.558l2.967-1.59c.185-.1.34-.253.437-.437l1.591-2.968c.403-.75 1.48-.75 1.883 0l1.591 2.968c.1.184.25.337.437.436l2.97 1.591c.748.401.748 1.479 0 1.882l-2.97 1.593c-.187.097-.337.25-.437.434l-1.59 2.97c-.404.75-1.481.75-1.884 0l-1.59-2.97a1.053 1.053 0 0 0-.438-.434l-2.967-1.593a1.067 1.067 0 0 1 0-1.882"/>
        <g>
            <g transform="translate(126 559.027)">
                <mask id="b" fill="#fff">
                    <use xlink:href="#a"/>
                </mask>
                <path fill="#0D1831" d="M467.65 11.95c0 6.417-104.686 11.619-233.824 11.619C104.686 23.569 0 18.367 0 11.949 0 5.535 104.686.334 233.826.334 362.964.333 467.65 5.534 467.65 11.95" mask="url(#b)"/>
            </g>
            <path fill="#16C3A5" d="M550.872 320.81c0 2.031-.834 3.87-2.161 5.196a7.335 7.335 0 0 1-5.195 2.159H519.4v-14.711h24.117c.493 0 .983.042 1.433.148a7.347 7.347 0 0 1 5.923 7.207"/>
            <path fill="#27E0C0" d="M545.248 315.72v.02c0 4.043-3.292 7.356-7.334 7.356h-18.515v-9.641h24.117c.492 0 .985.042 1.433.148.193.663.3 1.37.3 2.117"/>
            <path fill="#27E0C0" d="M585.254 457.44v78.662H150.238c-13.127 0-23.775-10.648-23.775-23.775v-61.753h329.26v-137.12h63.675c5.986 0 11.16 4.19 12.423 10.05l22.066 102.032a12.732 12.732 0 0 0 5.43 7.954l9.024 5.946 11.183 7.377a12.71 12.71 0 0 1 5.73 10.627"/>
            <path fill="#162C5E" d="M455.723 536.102h2.069V354.356h-2.069z"/>
            <path fill="#27E0C0" d="M126.464 457.525H455.19v-6.95H126.464z"/>
            <path fill="#16C3A5" d="M126.463 506.168v6.158c0 13.13 10.648 23.778 23.775 23.778h435.016v-29.936h-458.79z"/>
            <path fill="#162C5E" d="M522.54 482.905a1.07 1.07 0 0 1-1.07-1.07V355.783h-65.749a1.067 1.067 0 0 1-1.067-1.07c0-.592.476-1.068 1.067-1.068h66.82c.59 0 1.07.476 1.07 1.068v127.122c0 .592-.48 1.07-1.07 1.07"/>
            <path fill="#C5D8EB" d="M543.688 431.995h-9.944c-4.018 0-7.29-3.271-7.29-7.292v-69.982c3.29.13 6.093 2.437 6.777 5.665l14.369 66.52c0 .022 0 .043.021.064.556 2.567-1.303 5.025-3.933 5.025"/>
            <path fill="#EBF5FF" d="M540.032 431.995h-6.286c-4.02 0-7.292-3.271-7.292-7.292v-55.592l13.578 62.884z"/>
            <path fill="#A2A1A6" d="M593.187 527.935v1.71c0 3.571-2.908 6.459-6.458 6.459h-6.63a7.309 7.309 0 0 1-5.172-2.138 7.304 7.304 0 0 1-2.138-5.176c0-.919.17-1.795.49-2.609a7.295 7.295 0 0 1 6.82-4.68h6.63c2.93 0 5.43 1.987 6.201 4.68.17.557.257 1.134.257 1.754"/>
            <path fill="#BCBBC0" d="M592.93 526.182a6.454 6.454 0 0 1-6.2 4.683h-6.63a7.309 7.309 0 0 1-5.173-2.138 6.97 6.97 0 0 1-1.648-2.545 7.294 7.294 0 0 1 6.82-4.683h6.63c2.93 0 5.43 1.99 6.201 4.683"/>
            <path fill="#0D1831" d="M569.146 530.865c0 1.775-.106 3.528-.278 5.239h-97.5a52.407 52.407 0 0 1-.278-5.24c0-27.07 21.958-49.027 49.05-49.027 27.048 0 49.006 21.958 49.006 49.028"/>
            <path fill="#1A1B38" d="M562.375 530.865c0 23.327-18.923 42.25-42.25 42.25-1.134 0-2.267-.042-3.377-.149-21.746-1.71-38.873-19.907-38.873-42.101s17.127-40.39 38.873-42.102a35.625 35.625 0 0 1 3.377-.148c23.327 0 42.25 18.922 42.25 42.25"/>
            <path fill="#23254C" d="M555.597 530.865c0 22.172-17.106 40.39-38.85 42.101-21.745-1.71-38.874-19.907-38.874-42.101s17.129-40.39 38.875-42.102c21.743 1.711 38.849 19.93 38.849 42.102"/>
            <path fill="#142345" d="M545.804 530.865c0 14.176-11.504 25.68-25.68 25.68-.662 0-1.324-.022-1.989-.085-13.257-1.007-23.69-12.081-23.69-25.595s10.433-24.59 23.69-25.595a20.828 20.828 0 0 1 1.99-.085c14.175 0 25.679 11.504 25.679 25.68"/>
            <path fill="#162C5E" d="M541.806 530.865c0 13.492-10.434 24.567-23.67 25.595-13.256-1.007-23.692-12.081-23.692-25.595s10.436-24.59 23.693-25.595c13.235 1.028 23.669 12.102 23.669 25.595"/>
            <path fill="#A2A1A6" d="M533.146 530.865a13.004 13.004 0 0 1-13.02 13.021c-.684 0-1.349-.042-2.011-.17-6.243-.942-11.011-6.33-11.011-12.851 0-6.521 4.768-11.911 11.01-12.852.663-.127 1.328-.17 2.011-.17a13.003 13.003 0 0 1 13.021 13.022"/>
            <path fill="#DDDDDF" d="M529.147 530.865a12.974 12.974 0 0 1-11.032 12.851c-6.245-.942-11.013-6.33-11.013-12.851 0-6.521 4.768-11.911 11.013-12.852a12.972 12.972 0 0 1 11.032 12.852"/>
            <path fill="#FFF" d="M514.344 529.654c0 2.774-1.266 5.022-2.828 5.022-1.563 0-2.828-2.248-2.828-5.022s1.265-5.022 2.828-5.022c1.562 0 2.828 2.248 2.828 5.022"/>
            <path fill="#162C5E" d="M467.654 437.298v13.726a2.75 2.75 0 0 1-2.758 2.76c-.429 0-.834-.107-1.2-.3a2.71 2.71 0 0 1-1.56-2.46v-13.726c0-1.091.642-2.032 1.56-2.458.366-.194.771-.3 1.2-.3a2.749 2.749 0 0 1 2.758 2.758"/>
            <path fill="#EEA532" d="M585.254 457.44v5.43h-5.687c-6.201 0-11.226-5.025-11.226-11.226v-12.208l4.938 3.25 6.245 4.127a12.71 12.71 0 0 1 5.73 10.627"/>
            <path fill="#FFC35A" d="M585.254 457.44v1.944h-.748c-6.2 0-11.227-5.001-11.227-11.204v-5.494l6.245 4.127a12.71 12.71 0 0 1 5.73 10.627"/>
            <path fill="#EEA532" d="M576.808 470.61v.022c0 1.411-1.176 2.566-2.588 2.566h-3.292a2.578 2.578 0 0 1-2.588-2.566v-.022c0-.447.108-.855.32-1.218a2.586 2.586 0 0 1 2.268-1.348h3.292c.964 0 1.84.556 2.267 1.348.215.363.321.77.321 1.218"/>
            <path fill="#FFC35A" d="M576.487 469.392a2.558 2.558 0 0 1-2.265 1.369h-3.295a2.558 2.558 0 0 1-2.265-1.37 2.584 2.584 0 0 1 2.265-1.347h3.295a2.61 2.61 0 0 1 2.265 1.348"/>
            <path fill="#E3465A" d="M455.723 313.454v137.122h-329.26V330.24c0-2.095.384-4.106 1.113-5.968 2.394-6.328 8.508-10.817 15.672-10.817h312.475z"/>
            <path fill="#C33245" d="M456.792 313.454l-1.07 5.324-21.233 105.541-5.281 26.257H152.976l-25.401-126.305c2.394-6.328 8.51-10.817 15.672-10.817h313.545z"/>
            <path fill="#162C5E" d="M144.749 322.997l22.939 127.578h246.811l4.723-26.257 18.214-101.32z"/>
            <path fill="#142345" d="M176.608 322.997l18.213 101.32h224.402l18.213-101.32z"/>
            <path fill="#E3465A" d="M433.463 345.092l5.69-31.637H143.033l5.687 31.637z"/>
            <path fill="#27E0C0" d="M433.432 346.1l-12.785-17.146h-259.11L148.751 346.1z"/>
            <path fill="#16C3A5" d="M426.302 336.538l-5.654-7.584h-259.11l-5.656 7.584z"/>
            <path fill="#E3465A" d="M423.265 365.427c-5.614 0-10.167-4.55-10.167-10.167v-9.16h20.334v9.16c0 5.616-4.55 10.167-10.167 10.167zm-40.669 0c-5.613 0-10.167-4.55-10.167-10.167v-9.16h20.335v9.16c0 5.616-4.551 10.167-10.168 10.167zm-40.668 0c-5.616 0-10.167-4.55-10.167-10.167v-9.16h20.334v9.16c0 5.616-4.553 10.167-10.167 10.167zm-40.668 0c-5.616 0-10.167-4.55-10.167-10.167v-9.16h20.334v9.16c0 5.616-4.553 10.167-10.167 10.167zm-40.67 0c-5.613 0-10.167-4.55-10.167-10.167v-9.16h20.335v9.16c0 5.616-4.551 10.167-10.167 10.167zm-40.668 0c-5.614 0-10.167-4.55-10.167-10.167v-9.16h20.334v9.16c0 5.616-4.55 10.167-10.167 10.167zm-40.668 0c-5.614 0-10.168-4.55-10.168-10.167v-9.16h20.335v9.16c0 5.616-4.553 10.167-10.167 10.167z"/>
            <path fill="#27E0C0" d="M402.93 365.427c-5.613 0-10.166-4.55-10.166-10.167v-9.16h20.334v9.16c0 5.616-4.551 10.167-10.167 10.167zm-40.668 0c-5.613 0-10.167-4.55-10.167-10.167v-9.16h20.335v9.16c0 5.616-4.551 10.167-10.168 10.167zm-40.668 0c-5.616 0-10.167-4.55-10.167-10.167v-9.16h20.334v9.16c0 5.616-4.553 10.167-10.167 10.167zm-40.668 0c-5.616 0-10.167-4.55-10.167-10.167v-9.16h20.334v9.16c0 5.616-4.553 10.167-10.167 10.167zm-40.67 0c-5.614 0-10.167-4.55-10.167-10.167v-9.16h20.334v9.16c0 5.616-4.55 10.167-10.167 10.167zm-40.668 0c-5.614 0-10.167-4.55-10.167-10.167v-9.16h20.334v9.16c0 5.616-4.55 10.167-10.167 10.167zm-40.668 0c-5.617 0-10.168-4.55-10.168-10.167v-9.16h20.335v9.16c0 5.616-4.551 10.167-10.167 10.167z"/>
            <path fill="#DDDDDF" d="M585.67 528.802H582a2.087 2.087 0 0 1 0-4.172h3.67a2.085 2.085 0 1 1 0 4.172"/>
            <path fill="#C5D8EB" d="M516.126 366.567v53.581a5.44 5.44 0 0 1-5.432 5.432h-43.127a5.438 5.438 0 0 1-5.43-5.432v-53.581a5.426 5.426 0 0 1 5.43-5.433h43.127a5.428 5.428 0 0 1 5.432 5.433"/>
            <path fill="#EBF5FF" d="M497.738 425.58H467.57a5.438 5.438 0 0 1-5.432-5.432v-53.581a5.426 5.426 0 0 1 5.432-5.433h16.25l13.92 64.446z"/>
            <path fill="#C33245" d="M413.258 313.454H185.713l21.937-92.433h183.67z"/>
            <path fill="#E3465A" d="M344.665 313.454H185.71l21.937-92.433h115.077z"/>
            <path fill="#FFC35A" d="M438.752 495.118h-65.745v-13.92h82.182v13.92h-16.437zm-82.18-13.92h16.433v13.92h-65.742v-13.92h49.308zm-65.748 0h16.436v13.92h-65.742v-13.92h49.306zm-65.745 0h16.436v13.92H175.773v-13.92H225.079zm-65.745 13.92h-32.872v-13.92h49.309v13.92h-16.437z"/>
            <path fill="#E3465A" d="M373.006 495.117l8.218-13.919 8.218 13.92H356.571l8.218-13.92 8.218 13.92zm-82.181 0l8.218-13.919 8.218 13.92h-32.872l8.218-13.92 8.218 13.92zm-82.182 0l8.219-13.919 8.218 13.92h-32.872l8.218-13.92 8.218 13.92zm-65.744 0l8.218-13.919 8.218 13.92h-32.872l8.218-13.92 8.218 13.92zm16.436 0l8.218-13.919 8.218 13.92h-16.436zm16.437 0l8.218-13.919 8.218 13.92h-16.436zm49.308 0l8.218-13.919 8.218 13.92H225.08zm16.436 0l8.218-13.919 8.219 13.92h-16.437zm16.437 0l8.218-13.919 8.218 13.92h-16.436zm49.308 0l8.218-13.919 8.218 13.92h-16.436zm16.437 0l8.218-13.919 8.218 13.92h-16.436zm16.436 0l8.218-13.919 8.218 13.92h-16.436zm49.308 0l8.219-13.919 8.218 13.92h-16.437zm16.437 0l8.218-13.919 8.218 13.92H405.88zm16.437 0l8.218-13.919 8.218 13.92h-16.436zm16.436 0l8.218-13.919 8.218 13.92h-16.436zM438.752 479.07h-65.745v-5.314h82.182v5.314h-16.437zm-82.18-5.314h16.433v5.314h-65.742v-5.314h49.308zm-65.748 0h16.436v5.314h-65.742v-5.314h49.306zm-65.745 0h16.436v5.314H175.773v-5.314H225.079zm-65.745 5.314h-32.872v-5.314h49.309v5.314h-16.437z"/>
            <path fill="#FFC35A" d="M438.752 502.706h-65.745v-5.314h82.182v5.314h-16.437zm-82.18-5.314h16.433v5.314h-65.742v-5.314h49.308zm-65.748 0h16.436v5.314h-65.742v-5.314h49.306zm-65.745 0h16.436v5.314H175.773v-5.314H225.079zm-65.745 5.314h-32.872v-5.314h49.309v5.314h-16.437zM138.79 467.122c0 2.218-1.84 4.019-4.11 4.019-2.27 0-4.108-1.8-4.108-4.019 0-2.22 1.838-4.018 4.108-4.018 2.27 0 4.11 1.798 4.11 4.018zm16.436 0c0 2.218-1.839 4.019-4.108 4.019-2.27 0-4.11-1.8-4.11-4.019 0-2.22 1.84-4.018 4.11-4.018 2.27 0 4.108 1.798 4.108 4.018zm16.436 0c0 2.218-1.838 4.019-4.108 4.019-2.27 0-4.11-1.8-4.11-4.019 0-2.22 1.84-4.018 4.11-4.018 2.27 0 4.108 1.798 4.108 4.018zm16.437 0c0 2.218-1.841 4.019-4.11 4.019-2.27 0-4.108-1.8-4.108-4.019 0-2.22 1.838-4.018 4.107-4.018 2.27 0 4.11 1.798 4.11 4.018zm16.436 0c0 2.218-1.84 4.019-4.11 4.019-2.27 0-4.108-1.8-4.108-4.019 0-2.22 1.838-4.018 4.108-4.018 2.27 0 4.11 1.798 4.11 4.018zm16.437 0c0 2.218-1.841 4.019-4.11 4.019-2.27 0-4.109-1.8-4.109-4.019 0-2.22 1.839-4.018 4.108-4.018 2.27 0 4.11 1.798 4.11 4.018zm16.435 0c0 2.218-1.838 4.019-4.108 4.019-2.27 0-4.11-1.8-4.11-4.019 0-2.22 1.84-4.018 4.11-4.018 2.27 0 4.108 1.798 4.108 4.018zm16.437 0c0 2.218-1.839 4.019-4.108 4.019-2.272 0-4.11-1.8-4.11-4.019 0-2.22 1.838-4.018 4.11-4.018 2.27 0 4.108 1.798 4.108 4.018zm16.436 0c0 2.218-1.84 4.019-4.11 4.019-2.27 0-4.108-1.8-4.108-4.019 0-2.22 1.838-4.018 4.108-4.018 2.27 0 4.11 1.798 4.11 4.018zm16.436 0c0 2.218-1.84 4.019-4.11 4.019-2.27 0-4.108-1.8-4.108-4.019 0-2.22 1.839-4.018 4.108-4.018 2.27 0 4.11 1.798 4.11 4.018zm16.437 0c0 2.218-1.84 4.019-4.11 4.019-2.27 0-4.108-1.8-4.108-4.019 0-2.22 1.838-4.018 4.108-4.018 2.27 0 4.11 1.798 4.11 4.018zm16.435 0c0 2.218-1.838 4.019-4.108 4.019-2.27 0-4.11-1.8-4.11-4.019 0-2.22 1.84-4.018 4.11-4.018 2.27 0 4.108 1.798 4.108 4.018zm16.437 0c0 2.218-1.838 4.019-4.11 4.019-2.27 0-4.108-1.8-4.108-4.019 0-2.22 1.838-4.018 4.108-4.018 2.272 0 4.11 1.798 4.11 4.018zm16.436 0c0 2.218-1.84 4.019-4.11 4.019-2.27 0-4.108-1.8-4.108-4.019 0-2.22 1.838-4.018 4.108-4.018 2.27 0 4.11 1.798 4.11 4.018zm16.437 0c0 2.218-1.841 4.019-4.11 4.019-2.27 0-4.108-1.8-4.108-4.019 0-2.22 1.838-4.018 4.107-4.018 2.27 0 4.11 1.798 4.11 4.018zm16.436 0c0 2.218-1.84 4.019-4.11 4.019-2.27 0-4.108-1.8-4.108-4.019 0-2.22 1.839-4.018 4.108-4.018 2.27 0 4.11 1.798 4.11 4.018zm16.436 0c0 2.218-1.839 4.019-4.108 4.019-2.27 0-4.11-1.8-4.11-4.019 0-2.22 1.84-4.018 4.11-4.018 2.27 0 4.108 1.798 4.108 4.018zm16.436 0c0 2.218-1.84 4.019-4.11 4.019-2.27 0-4.108-1.8-4.108-4.019 0-2.22 1.838-4.018 4.108-4.018 2.27 0 4.11 1.798 4.11 4.018zm16.437 0c0 2.218-1.841 4.019-4.11 4.019-2.27 0-4.109-1.8-4.109-4.019 0-2.22 1.839-4.018 4.108-4.018 2.27 0 4.11 1.798 4.11 4.018zm16.436 0c0 2.218-1.84 4.019-4.11 4.019-2.27 0-4.108-1.8-4.108-4.019 0-2.22 1.838-4.018 4.108-4.018 2.27 0 4.11 1.798 4.11 4.018z"/>
            <path fill="#0D1831" d="M277.846 530.865c0 1.775-.106 3.528-.278 5.239h-97.5a52.407 52.407 0 0 1-.278-5.24c0-27.07 21.958-49.027 49.05-49.027 27.048 0 49.006 21.958 49.006 49.028"/>
            <path fill="#1A1B38" d="M271.075 530.865c0 23.327-18.922 42.25-42.25 42.25-1.134 0-2.267-.042-3.38-.149-21.743-1.71-38.87-19.907-38.87-42.101s17.127-40.39 38.87-42.102a35.71 35.71 0 0 1 3.38-.148c23.328 0 42.25 18.922 42.25 42.25"/>
            <path fill="#23254C" d="M264.297 530.865c0 22.172-17.106 40.39-38.852 42.101-21.743-1.71-38.872-19.907-38.872-42.101s17.129-40.39 38.872-42.102c21.746 1.711 38.852 19.93 38.852 42.102"/>
            <path fill="#142345" d="M254.505 530.865c0 14.176-11.503 25.68-25.68 25.68-.664 0-1.326-.022-1.989-.085-13.256-1.007-23.69-12.081-23.69-25.595s10.434-24.59 23.69-25.595a20.762 20.762 0 0 1 1.99-.085c14.176 0 25.68 11.504 25.68 25.68"/>
            <path fill="#162C5E" d="M250.506 530.865c0 13.492-10.433 24.567-23.669 25.595-13.257-1.007-23.693-12.081-23.693-25.595s10.436-24.59 23.693-25.595c13.236 1.028 23.67 12.102 23.67 25.595"/>
            <path fill="#A2A1A6" d="M241.847 530.865a13.004 13.004 0 0 1-13.022 13.021c-.683 0-1.348-.042-2.01-.17-6.243-.942-11.01-6.33-11.01-12.851 0-6.521 4.767-11.911 11.01-12.852.662-.127 1.327-.17 2.01-.17a13.003 13.003 0 0 1 13.022 13.022"/>
            <path fill="#DDDDDF" d="M237.848 530.865a12.974 12.974 0 0 1-11.032 12.851c-6.246-.942-11.014-6.33-11.014-12.851 0-6.521 4.768-11.911 11.014-12.852a12.972 12.972 0 0 1 11.032 12.852"/>
            <path fill="#FFF" d="M223.044 529.654c0 2.774-1.265 5.022-2.828 5.022s-2.828-2.248-2.828-5.022 1.265-5.022 2.828-5.022 2.828 2.248 2.828 5.022M386.99 304.267c.674-.478 1.206-1.122 1.597-1.928.394-.81.59-1.692.59-2.646 0-1.08-.283-1.95-.847-2.612-.563-.66-1.322-.992-2.276-.992-.785 0-1.504.24-2.152.716-.648.479-1.171 1.118-1.562 1.914-.392.794-.587 1.671-.587 2.626 0 1.129.275 2.017.827 2.665.551.65 1.291.973 2.222.973.785 0 1.513-.238 2.187-.716zm-9.095 5.164c-1.153-.736-2.048-1.758-2.685-3.069-.638-1.31-.954-2.823-.954-4.539 0-2.18.46-4.171 1.378-5.972.917-1.8 2.178-3.222 3.785-4.263a9.48 9.48 0 0 1 5.273-1.563c1.371 0 2.561.276 3.565.827 1.004.552 1.79 1.355 2.352 2.409l.59-2.98h7.386l-3.969 19.996h-7.424l.44-2.168c-1.689 1.616-3.626 2.425-5.806 2.425-1.47 0-2.781-.368-3.931-1.103zm-3.31-26.425l-5.439 27.27h-7.424l5.44-27.27h7.424zm-12.311 0l-5.44 27.27h-7.423l5.439-27.27h7.424zm-13.101-1.378c.575.575.862 1.329.862 2.26 0 1.275-.452 2.347-1.36 3.215-.907.87-2.008 1.305-3.306 1.305-.957 0-1.723-.287-2.298-.862s-.863-1.33-.863-2.26c0-1.276.453-2.348 1.36-3.218.905-.87 2.008-1.305 3.307-1.305.957 0 1.72.29 2.298.865zm-.46 8.654l-4.007 19.995h-7.423l4.006-19.995h7.424zm-18.376 12.9c-.05.345-.073.564-.073.663 0 .342.092.587.276.735.181.147.445.22.79.22.341 0 .704-.062 1.083-.184.38-.123.863-.295 1.452-.514l.736 5.329c-.762.391-1.643.686-2.647.881a15.54 15.54 0 0 1-2.977.295c-1.937 0-3.46-.483-4.577-1.452-1.114-.966-1.67-2.272-1.67-3.912 0-.54.047-1.042.146-1.509l1.508-7.68h-2.758l.955-4.742h2.757l1.103-5.55h7.386l-1.1 5.55h4.923l-.954 4.742h-4.926l-1.433 7.129zm-8.821-13.192l-.882 6.65c-.49-.047-.858-.073-1.103-.073-1.593 0-2.972.418-4.134 1.25-1.164.834-1.868 1.9-2.114 3.198l-1.873 9.262h-7.424l4.004-19.995h7.424l-.552 2.83c1.79-2.08 4.007-3.122 6.654-3.122zm-32.194 7.313c-.761.93-1.14 2.144-1.14 3.639 0 1.176.287 2.111.862 2.811.577.698 1.355 1.047 2.335 1.047 1.2 0 2.18-.46 2.94-1.377.758-.921 1.14-2.126 1.14-3.622 0-1.176-.287-2.119-.865-2.828-.575-.712-1.353-1.068-2.333-1.068-1.202 0-2.18.467-2.939 1.398zm8.911-6.137c1.532.759 2.708 1.83 3.528 3.214.823 1.386 1.233 3.01 1.233 4.872 0 2.227-.516 4.195-1.544 5.899-1.03 1.701-2.47 3.026-4.318 3.969-1.852.942-3.966 1.414-6.342 1.414-2.057 0-3.853-.38-5.383-1.139-1.532-.758-2.708-1.838-3.528-3.235-.822-1.398-1.232-3.024-1.232-4.888 0-2.206.516-4.16 1.543-5.862 1.03-1.701 2.47-3.026 4.32-3.969 1.848-.942 3.962-1.416 6.34-1.416 2.058 0 3.851.382 5.383 1.14zm-25.008 12.017c-.05.344-.075.563-.075.662 0 .342.092.587.275.735.184.147.448.22.79.22.344 0 .705-.062 1.084-.184.382-.123.865-.295 1.454-.514l.736 5.329c-.762.391-1.643.686-2.647.881a15.582 15.582 0 0 1-2.98.295c-1.934 0-3.459-.483-4.574-1.452-1.114-.966-1.673-2.272-1.673-3.912 0-.54.05-1.042.149-1.509l1.506-7.68h-2.756l.955-4.742h2.755l1.105-5.55h7.387l-1.103 5.55h4.925l-.957 4.742h-4.925l-1.43 7.129z"/>
        </g>
        <text fill="#FFF" font-family="Montserrat-ExtraBold, Montserrat" font-size="24" font-weight="600">
            <tspan x="215.516" y="405">We don&apos;t sell</tspan> <tspan x="218.984" y="434">tortilla here!</tspan>
        </text>
        <ellipse cx="54.5" cy="571" fill="#0D1831" fill-rule="nonzero" rx="40.5" ry="6"/>
        <g>
            <g transform="translate(16 388.246)">
                <mask id="d" fill="#fff">
                    <use xlink:href="#c"/>
                </mask>
                <path fill="#27E0C0" d="M76.515 23.605a7.584 7.584 0 0 0-7.584-7.584 7.584 7.584 0 0 0-7.585 7.584v41.788l.002.083V65.533h-.002a5.593 5.593 0 0 1-1.884 4.136V18.948C59.462 8.594 51.069.203 40.716.203 30.363.203 21.97 8.594 21.97 18.948v61.176a6.753 6.753 0 0 1-3.727-5.966h-.002l.002-.044-.001-.025.003-.1V23.73a9.122 9.122 0 0 0-9.124-9.124A9.122 9.122 0 0 0 0 23.728V74.04c0 .04.003.078.003.118H0c0 12.139 9.835 21.978 21.97 21.988v26.187c0 10.353 8.393 18.745 18.746 18.745 10.353 0 18.746-8.392 18.746-18.745v-38.58c9.52-.636 17.053-8.539 17.053-18.22h-.002l.002-.098v-41.83z" mask="url(#d)"/>
            </g>
            <path fill="#16C3A5" d="M37.97 407.193v61.177a6.752 6.752 0 0 1-3.725-5.966h-.002l.001-.044-.001-.025.003-.1v-50.261a9.123 9.123 0 0 0-9.124-9.123A9.122 9.122 0 0 0 16 411.974v50.312l.002.118H16c0 12.138 9.835 21.978 21.97 21.988v26.186c0 9.786 7.5 17.81 17.065 18.661V388.533c-9.565.851-17.065 8.875-17.065 18.66"/>
            <path fill="#18937E" d="M72.536 409.649a.926.926 0 0 1-.656-1.582l4.575-4.576a.926.926 0 1 1 1.31 1.31l-4.575 4.576a.921.921 0 0 1-.654.272zm0 15.754a.926.926 0 0 1-.656-1.582l4.575-4.576a.926.926 0 1 1 1.31 1.311l-4.575 4.576a.921.921 0 0 1-.654.27zm0 15.754a.926.926 0 0 1-.656-1.582L76.455 435a.926.926 0 1 1 1.31 1.31l-4.575 4.577a.924.924 0 0 1-.654.271zm0 15.754a.926.926 0 0 1-.656-1.582l4.575-4.576a.926.926 0 1 1 1.31 1.31l-4.575 4.577a.921.921 0 0 1-.654.271zm0 15.754a.926.926 0 0 1-.656-1.582l4.575-4.576a.926.926 0 1 1 1.31 1.312l-4.575 4.575a.921.921 0 0 1-.654.271zm0 15.754a.926.926 0 0 1-.656-1.582l4.575-4.575a.926.926 0 1 1 1.31 1.31l-4.575 4.576a.924.924 0 0 1-.654.271zm0 13.9a.926.926 0 0 1-.656-1.582l4.575-4.577a.928.928 0 0 1 1.31 1.31l-4.575 4.577a.924.924 0 0 1-.654.271zM40.5 409.648a.92.92 0 0 1-.655-.272l-4.576-4.576a.928.928 0 0 1 1.31-1.31l4.577 4.576a.926.926 0 0 1-.656 1.582zm0 15.754a.92.92 0 0 1-.655-.271l-4.576-4.576a.926.926 0 1 1 1.31-1.311l4.577 4.576a.926.926 0 0 1-.656 1.582zm0 15.754a.923.923 0 0 1-.655-.271l-4.576-4.576a.928.928 0 0 1 1.31-1.31l4.577 4.575a.926.926 0 0 1-.656 1.582zm0 15.754a.92.92 0 0 1-.655-.271l-4.576-4.576a.928.928 0 0 1 1.31-1.31l4.577 4.575a.926.926 0 0 1-.656 1.582zm0 15.754a.92.92 0 0 1-.655-.271l-4.576-4.575a.926.926 0 1 1 1.31-1.311l4.577 4.576a.926.926 0 0 1-.656 1.581zm0 15.754a.923.923 0 0 1-.655-.27l-4.576-4.576a.926.926 0 1 1 1.31-1.311l4.577 4.576a.926.926 0 0 1-.656 1.581zm0 13.9a.923.923 0 0 1-.655-.272l-4.576-4.576a.928.928 0 0 1 1.31-1.31l4.577 4.575a.926.926 0 0 1-.656 1.582zm10.3-79.684a.926.926 0 0 1-.655-.27l-4.576-4.576a.927.927 0 0 1 1.31-1.311l4.576 4.576a.926.926 0 0 1-.655 1.581zm0 15.755a.926.926 0 0 1-.655-.272l-4.576-4.576a.926.926 0 1 1 1.31-1.31l4.576 4.576a.926.926 0 0 1-.655 1.582zm0 15.754a.924.924 0 0 1-.655-.272l-4.576-4.575a.926.926 0 1 1 1.31-1.31l4.576 4.575a.926.926 0 0 1-.655 1.582zm0 15.754a.926.926 0 0 1-.655-.272l-4.576-4.575a.926.926 0 1 1 1.31-1.31l4.576 4.575a.926.926 0 0 1-.655 1.582zm0 15.754a.926.926 0 0 1-.655-.271l-4.576-4.576a.926.926 0 1 1 1.31-1.31l4.576 4.575a.926.926 0 0 1-.655 1.582zm0 15.754a.923.923 0 0 1-.655-.271l-4.576-4.576a.926.926 0 1 1 1.31-1.31l4.576 4.575a.926.926 0 0 1-.655 1.582zm0 13.9a.924.924 0 0 1-.655-.273l-4.576-4.575a.926.926 0 1 1 1.31-1.31l4.576 4.575a.926.926 0 0 1-.655 1.582zm2.288-121.349a.927.927 0 0 1-.656-.271l-4.575-4.575a.927.927 0 0 1 1.31-1.312l4.576 4.576a.926.926 0 0 1-.655 1.582zm0 13.899a.927.927 0 0 1-.656-.271l-4.575-4.576a.926.926 0 1 1 1.31-1.31l4.576 4.575a.926.926 0 0 1-.655 1.582zm10.067 14.78a.926.926 0 0 1-.656-1.582l4.576-4.576a.927.927 0 0 1 1.31 1.31l-4.575 4.576a.924.924 0 0 1-.655.271zm0 15.754a.926.926 0 0 1-.656-1.582l4.576-4.576a.927.927 0 0 1 1.31 1.31l-4.575 4.576a.924.924 0 0 1-.655.272zm0 15.754a.926.926 0 0 1-.656-1.582l4.576-4.576a.927.927 0 0 1 1.31 1.31l-4.575 4.576a.922.922 0 0 1-.655.272zm0 15.754a.926.926 0 0 1-.656-1.582l4.576-4.575a.926.926 0 1 1 1.31 1.31l-4.575 4.575a.924.924 0 0 1-.655.272zm0 15.754a.926.926 0 0 1-.656-1.582l4.576-4.576a.927.927 0 0 1 1.31 1.31l-4.575 4.577a.924.924 0 0 1-.655.27zm0 15.754a.926.926 0 0 1-.656-1.582l4.576-4.576a.927.927 0 0 1 1.31 1.31l-4.575 4.577a.921.921 0 0 1-.655.271zm0 13.9a.926.926 0 0 1-.656-1.582l4.576-4.577a.927.927 0 0 1 1.31 1.31l-4.575 4.576a.922.922 0 0 1-.655.272zm-2.288-121.349a.926.926 0 0 1-.655-1.582l4.575-4.576a.926.926 0 1 1 1.31 1.312l-4.575 4.575a.925.925 0 0 1-.655.271zm0 13.899a.926.926 0 0 1-.655-1.582l4.575-4.576a.926.926 0 1 1 1.31 1.31l-4.575 4.577a.925.925 0 0 1-.655.271zm-33.876 9.7a.926.926 0 0 1-.656-1.583l4.576-4.575a.926.926 0 1 1 1.31 1.31l-4.575 4.577a.924.924 0 0 1-.655.27zm0 15.754a.926.926 0 0 1-.656-1.582l4.576-4.575a.926.926 0 1 1 1.31 1.31l-4.575 4.575a.921.921 0 0 1-.655.272zm0 15.754a.926.926 0 0 1-.656-1.582l4.576-4.575a.926.926 0 1 1 1.31 1.31l-4.575 4.575a.921.921 0 0 1-.655.272zm0 15.754a.926.926 0 0 1-.656-1.581l4.576-4.577a.926.926 0 1 1 1.31 1.31l-4.575 4.577a.924.924 0 0 1-.655.271zm0 13.899a.926.926 0 0 1-.656-1.582l4.576-4.576a.926.926 0 1 1 1.31 1.31l-4.575 4.577a.924.924 0 0 1-.655.271zm-4.561-67.693a.923.923 0 0 1-.656-.27l-4.575-4.577a.926.926 0 1 1 1.31-1.31l4.577 4.576a.926.926 0 0 1-.656 1.581zm0 15.755a.926.926 0 0 1-.656-.272l-4.575-4.575a.927.927 0 0 1 1.31-1.311l4.577 4.576a.926.926 0 0 1-.656 1.582zm0 15.754a.926.926 0 0 1-.656-.272l-4.575-4.576a.926.926 0 1 1 1.31-1.31l4.577 4.575a.927.927 0 0 1-.656 1.583zm0 15.753a.923.923 0 0 1-.656-.27L17.2 453.44a.926.926 0 1 1 1.31-1.31l4.577 4.575a.926.926 0 0 1-.656 1.581zm0 15.755a.926.926 0 0 1-.656-.271l-4.575-4.576a.927.927 0 0 1 1.31-1.31l4.577 4.575a.926.926 0 0 1-.656 1.582zm63.683-65.762a.926.926 0 0 1-.655-1.582l4.575-4.575a.926.926 0 1 1 1.31 1.31l-4.574 4.576a.923.923 0 0 1-.656.271zm0 15.755a.926.926 0 0 1-.655-1.582l4.575-4.576a.926.926 0 1 1 1.31 1.31l-4.574 4.576a.924.924 0 0 1-.656.272zm0 15.754a.926.926 0 0 1-.655-1.582l4.575-4.575a.926.926 0 1 1 1.31 1.31l-4.574 4.575a.926.926 0 0 1-.656.272zm0 15.754a.926.926 0 0 1-.655-1.582l4.575-4.576a.926.926 0 1 1 1.31 1.31l-4.574 4.577a.926.926 0 0 1-.656.27zm-4.561-38.04a.924.924 0 0 1-.655-.27l-4.576-4.577a.926.926 0 1 1 1.311-1.31l4.576 4.576a.926.926 0 0 1-.656 1.581zm0 15.755a.924.924 0 0 1-.655-.272l-4.576-4.576a.926.926 0 1 1 1.311-1.31l4.576 4.575a.927.927 0 0 1-.656 1.583zm0 15.754a.924.924 0 0 1-.655-.272l-4.576-4.576a.926.926 0 1 1 1.311-1.31l4.576 4.575a.927.927 0 0 1-.656 1.583zm0 15.753a.921.921 0 0 1-.655-.27l-4.576-4.576a.926.926 0 1 1 1.311-1.31l4.576 4.575a.926.926 0 0 1-.656 1.581z"/>
            <path fill="#FFC35A" d="M87.542 505.604v12.412c0 .896-.725 1.62-1.62 1.62H24.147a1.618 1.618 0 0 1-1.619-1.62v-12.412c0-.895.725-1.62 1.619-1.62h61.775c.895 0 1.62.725 1.62 1.62"/>
            <path fill="#EEA532" d="M85.922 503.983H55.035v15.653h30.887c.895 0 1.62-.723 1.62-1.62v-12.413a1.62 1.62 0 0 0-1.62-1.62"/>
            <g transform="translate(26.075 518.498)">
                <mask id="f" fill="#fff">
                    <use xlink:href="#e"/>
                </mask>
                <path fill="#FFC35A" d="M57.265.138H.655a1.602 1.602 0 0 0-.028.3L8.92 49.476c0 .893.724 1.619 1.618 1.619h36.844a1.62 1.62 0 0 0 1.619-1.62L57.294.44c0-.103-.01-.203-.03-.301" mask="url(#f)"/>
            </g>
            <g transform="translate(54.86 518.498)">
                <mask id="h" fill="#fff">
                    <use xlink:href="#g"/>
                </mask>
                <path fill="#EEA532" d="M28.48.138H.175v50.956h18.422a1.62 1.62 0 0 0 1.619-1.62L28.508.44c0-.103-.01-.203-.028-.301" mask="url(#h)"/>
            </g>
            <path fill="#E3465A" d="M57.046 390.508c1.314-2.179 3.345-4.181 5.954-5.646 2.684-1.506 5.538-2.195 8.141-2.137-1.306 2.253-3.38 4.332-6.064 5.838-2.684 1.506-5.538 2.194-8.142 2.136l-.002.004c-1.601-2.712-2.564-6.13-2.564-9.853 0-3.722.963-7.138 2.564-9.85 1.603 2.712 2.566 6.128 2.566 9.85 0 3.635-.918 6.978-2.453 9.658zm-6.232-5.646c2.685 1.507 4.759 3.585 6.065 5.837-2.603.059-5.457-.63-8.142-2.136-2.685-1.506-4.76-3.585-6.066-5.838 2.604-.058 5.46.631 8.143 2.137z"/>
            <path fill="#C33245" d="M56.907 390.293c-.008.137-.018.274-.029.41-2.626-1.741-4.984-4.395-6.608-7.746-1.624-3.35-2.248-6.844-1.988-9.984 2.625 1.741 4.98 4.396 6.606 7.745 1.225 2.528 1.88 5.137 2.019 7.614.137-2.477.793-5.086 2.019-7.614 1.624-3.349 3.981-6.004 6.607-7.745.257 3.14-.366 6.634-1.99 9.984-1.625 3.351-3.981 6.005-6.608 7.746-.011-.136-.02-.273-.028-.41z"/>
        </g>
        <g transform="translate(177 131)">
            <g fill-rule="nonzero" transform="rotate(70 102.426 146.28)">
                <path fill="#E09B2D" d="M97.387 213.446H9.117c17.764-6.716 33.061-18.468 44.135-33.52 11.073 15.052 26.37 26.804 44.135 33.52z"/>
                <path fill="#43F3C2" d="M74.157 24.725a28.713 28.713 0 0 1 7.325 13.99 98.821 98.821 0 0 0-6.811 4.518c-.17-.19-.344-.374-.514-.558a18 18 0 0 0-.528-.539 28.737 28.737 0 0 0-20.377-8.441 28.723 28.723 0 0 0-20.906 8.98c-.175.184-.35.369-.514.558a98.821 98.821 0 0 0-6.81-4.517 28.63 28.63 0 0 1 7.324-13.99 28.73 28.73 0 0 1 14.569-8.282 28.54 28.54 0 0 1 6.337-.703 28.791 28.791 0 0 1 20.906 8.985z"/>
                <path fill="#E3465A" d="M74.67 43.233a98.04 98.04 0 0 0-21.418 21.27 98.04 98.04 0 0 0-21.42-21.27c.165-.19.34-.374.514-.558a28.723 28.723 0 0 1 20.906-8.98 28.737 28.737 0 0 1 20.377 8.441 18 18 0 0 1 .528.539c.17.184.344.369.514.558z"/>
                <path fill="#43F3C2" d="M102.632 14.709l-5.245 16.274a96.874 96.874 0 0 0-15.905 7.733 28.713 28.713 0 0 0-7.853-14.534 28.791 28.791 0 0 0-14.04-7.738L70.722 4.238l6.98 6.532 8.975-7.03 3.989 11.966 11.966-.997zM35.776 4.238l11.139 12.206a28.73 28.73 0 0 0-14.57 8.281 28.63 28.63 0 0 0-7.323 13.99 96.874 96.874 0 0 0-15.905-7.732l-5.25-16.274 11.966.997L19.82 3.74l8.975 7.03 6.98-6.532z"/>
                <path fill="#FFC35A" d="M81.482 38.716a96.874 96.874 0 0 1 15.905-7.733v182.463c-17.765-6.716-33.062-18.468-44.135-33.52 11.886-16.155 18.911-36.118 18.911-57.712s-7.025-41.552-18.911-57.711a98.04 98.04 0 0 1 28.23-25.787z"/>
                <path fill="#FFC35A" d="M31.832 43.233a98.04 98.04 0 0 1 21.42 21.27c11.886 16.159 18.911 36.117 18.911 57.711s-7.025 41.557-18.911 57.712c-11.074 15.052-26.37 26.804-44.135 33.52V30.983a96.874 96.874 0 0 1 15.905 7.733 98.821 98.821 0 0 1 6.81 4.517z"/>
                <path fill="#EEA532" d="M29.559 41.64a97.58 97.58 0 0 0-4.537-2.924 96.874 96.874 0 0 0-15.905-7.733v182.463a97.287 97.287 0 0 0 20.442-10.653V41.64z"/>
                <circle cx="58.38" cy="43.33" r="3.739" fill="#FFF"/>
                <circle cx="87.376" cy="24.443" r="3.739" fill="#FFF"/>
                <path fill="#162C5E" d="M105.56 12.383a3.736 3.736 0 0 0-3.238-1.401l-9.038.753-3.06-9.178A3.74 3.74 0 0 0 84.372.796L77.92 5.85l-4.642-4.342a3.742 3.742 0 0 0-5.317.21l-9.73 10.664a33.216 33.216 0 0 0-9.966-.006L38.54 1.718a3.739 3.739 0 0 0-5.317-.21L28.582 5.85 22.129.796a3.739 3.739 0 0 0-5.854 1.76l-3.059 9.179-9.037-.753a3.743 3.743 0 0 0-3.87 4.874l5.066 15.716v181.876a3.74 3.74 0 0 0 3.74 3.74h88.27a3.74 3.74 0 0 0 3.74-3.74V31.57l5.066-15.715a3.738 3.738 0 0 0-.63-3.473zM70.934 9.556l4.215 3.944a3.739 3.739 0 0 0 4.86.213l4.8-3.759 2.31 6.934a3.746 3.746 0 0 0 3.859 2.544l6.375-.532-2.98 9.242c-3.652 1.455-7.2 3.119-10.634 4.973a32.446 32.446 0 0 0-6.858-10.95 32.576 32.576 0 0 0-10.64-7.466l4.693-5.143zM50.238 66.72c11.896 16.167 18.184 35.357 18.184 55.495 0 20.139-6.288 39.328-18.184 55.495-9.707 13.195-22.558 23.525-37.384 30.14V36.58c14.826 6.616 27.677 16.945 37.384 30.14zm3.012-8.321A101.576 101.576 0 0 0 37.605 42.91c4.42-3.55 9.862-5.479 15.645-5.479a24.9 24.9 0 0 1 15.643 5.48A101.575 101.575 0 0 0 53.25 58.4zm0 127.633a101.268 101.268 0 0 0 27.622 23.676H25.627a101.27 101.27 0 0 0 27.623-23.676zm4.645-6.182C69.682 162.88 75.9 143.016 75.9 122.215c0-20.801-6.218-40.665-18.005-57.634 9.497-12.172 21.738-21.748 35.75-28v171.27c-14.012-6.253-26.252-15.83-35.75-28.001zM70.99 26.832c.15.15.296.3.455.47a25.002 25.002 0 0 1 5.725 9.688c-.7.449-1.396.904-2.084 1.37-6-5.433-13.692-8.406-21.836-8.406-8.18 0-15.834 2.972-21.828 8.412-.69-.468-1.39-.925-2.093-1.376a25.002 25.002 0 0 1 5.729-9.69c4.781-5.042 11.242-7.818 18.192-7.818 6.696 0 12.994 2.61 17.74 7.35zm-55.466-7.4a3.743 3.743 0 0 0 3.858-2.544l2.311-6.934 4.798 3.76a3.739 3.739 0 0 0 4.861-.214l4.215-3.944 4.68 5.13a32.476 32.476 0 0 0-10.613 7.464 32.485 32.485 0 0 0-6.872 10.966 101.281 101.281 0 0 0-10.635-4.974L9.148 18.9l6.376.532z"/>
            </g>
            <circle cx="93.643" cy="90.992" r="3.739" fill="#333" fill-rule="nonzero"/>
            <circle cx="61.739" cy="85.739" r="3.739" fill="#333" fill-rule="nonzero"/>
            <circle cx="71.267" cy="136.649" r="3.739" fill="#333" fill-rule="nonzero"/>
            <g transform="rotate(103 53.919 91.198)">
                <mask id="j" fill="#fff">
                    <use xlink:href="#i"/>
                </mask>
                <path fill="#000" d="M13.003 6.192c.508 3.805-1.977 7.273-5.55 7.753-3.574.478-6.88-2.215-7.387-6.016C-.442 4.124 2.04.653 5.612.176c3.578-.48 6.883 2.215 7.39 6.016" mask="url(#j)"/>
            </g>
            <path fill="#FFF" d="M148.756 64.273c-1.508-.144-2.62-1.434-2.481-2.887.133-1.446 1.466-2.509 2.976-2.366 1.509.143 2.62 1.434 2.486 2.883-.139 1.453-1.469 2.514-2.981 2.37M143.211 68.05a1.866 1.866 0 0 1-1.688-2.03 1.867 1.867 0 0 1 2.038-1.68 1.87 1.87 0 0 1 1.692 2.033 1.865 1.865 0 0 1-2.042 1.677"/>
            <g>
                <g transform="rotate(103 50.896 116.55)">
                    <mask id="l" fill="#fff">
                        <use xlink:href="#k"/>
                    </mask>
                    <path fill="#000" d="M13.003 6.192c.508 3.805-1.977 7.273-5.55 7.753-3.574.478-6.88-2.215-7.387-6.016C-.442 4.124 2.04.653 5.612.176c3.578-.48 6.883 2.215 7.39 6.016" mask="url(#l)"/>
                </g>
                <path fill="#FFF" d="M169.756 98.273c-1.508-.144-2.62-1.434-2.481-2.887.133-1.446 1.466-2.509 2.976-2.366 1.509.143 2.62 1.434 2.486 2.883-.139 1.453-1.469 2.514-2.981 2.37M164.211 102.05a1.866 1.866 0 0 1-1.688-2.03 1.867 1.867 0 0 1 2.038-1.68 1.87 1.87 0 0 1 1.692 2.033 1.865 1.865 0 0 1-2.042 1.677"/>
            </g>
            <g>
                <path fill="#E3465A" stroke="#162C5E" stroke-linejoin="bevel" stroke-width="10" d="M140.226 111.491c-2.88.178-5.052-1.165-5.695-3.211-.243-.713-.24-1.524-.079-2.353.308-1.535.321-3.067.026-4.542a.297.297 0 0 0-.06-.188c-.47-2.229-1.54-4.3-3.136-5.908l-.051-.094c-1.038-1.03-2.258-1.9-3.658-2.475-.822-.356-1.466-.871-1.892-1.524-1.289-1.672-1.114-4.205.685-6.45 1.961-2.448 5.287-3.808 8.135-3.525a6.4 6.4 0 0 1 1.919.488c1.84.79 3.524 1.8 5.013 2.994.356.275.701.57 1.03.88a19.99 19.99 0 0 1 4.289 5.607c.012.018.013.028.025.048.103.202.208.402.3.605a20.234 20.234 0 0 1 1.92 7.654l.02.452a21.748 21.748 0 0 1-.461 5.109c-.255 1.174-.88 2.286-1.768 3.255-1.608 1.771-4.044 3.023-6.562 3.178"/>
                <path fill="#E3465A" d="M140.226 111.491c-2.88.178-5.052-1.165-5.695-3.211-.243-.713-.24-1.524-.079-2.353.308-1.535.321-3.067.026-4.542a.297.297 0 0 0-.06-.188c-.47-2.229-1.54-4.3-3.136-5.908l-.051-.094c-1.038-1.03-2.258-1.9-3.658-2.475-.822-.356-1.466-.871-1.892-1.524-1.289-1.672-1.114-4.205.685-6.45 1.961-2.448 5.287-3.808 8.135-3.525a6.4 6.4 0 0 1 1.919.488c1.84.79 3.524 1.8 5.013 2.994.356.275.701.57 1.03.88a19.99 19.99 0 0 1 4.289 5.607c.012.018.013.028.025.048.103.202.208.402.3.605a20.234 20.234 0 0 1 1.92 7.654l.02.452a21.748 21.748 0 0 1-.461 5.109c-.255 1.174-.88 2.286-1.768 3.255-1.608 1.771-4.044 3.023-6.562 3.178"/>
                <path fill="#FFF" d="M138.184 88.872c-2.61.136-4.83-1.777-4.962-4.286a4.444 4.444 0 0 1 1.28-3.365 6.45 6.45 0 0 1 1.918.487c1.842.791 3.523 1.8 5.014 2.995.355.274.701.57 1.029.88-.464 1.581-1.816 2.834-3.518 3.195-.248.048-.5.077-.761.094"/>
                <path fill="#FFF" d="M143.898 93.248a4.643 4.643 0 0 1-.64-.009c-2.32-.18-4.202-1.98-4.315-4.28-.006-.058-.001-.12.001-.181-.03-1.75.975-3.289 2.489-4.074.357.273.702.57 1.03.878a19.993 19.993 0 0 1 4.288 5.61c.013.017.014.026.025.045.103.202.209.403.301.607a4.833 4.833 0 0 1-3.18 1.404"/>
                <path fill="#FFF" d="M147.415 100.31a4.71 4.71 0 0 1-2.182-.389c-1.562-.657-2.689-2.136-2.783-3.898a4.404 4.404 0 0 1 .807-2.784 4.747 4.747 0 0 1 3.52-2.001c.103.202.208.402.3.605a20.212 20.212 0 0 1 1.92 7.654l.02.452a4.863 4.863 0 0 1-1.602.36"/>
                <path fill="#FFF" d="M146.788 108.314c-2.125-.333-3.786-2.066-3.902-4.221-.092-1.755.87-3.329 2.346-4.171a4.943 4.943 0 0 1 2.132-.62 4.693 4.693 0 0 1 1.633.194l.02.453a21.77 21.77 0 0 1-.461 5.11c-.255 1.173-.88 2.286-1.768 3.255"/>
            </g>
        </g>
    </g>
</svg>
