<svg xmlns="http://www.w3.org/2000/svg" xmlns:xlink="http://www.w3.org/1999/xlink" width="811" height="764" viewBox="0 0 811 764">
    <defs>
        <path id="a" d="M.245.2H123.5v80.176H.245z"/>
        <path id="c" d="M1.132.2H111.55v73.848H1.132z"/>
        <path id="e" d="M.461 1.059h222.712v38.417H.461z"/>
        <path id="g" d="M.868.2h166.97v73.848H.868z"/>
        <path id="i" d="M1.486.912h236.009v51.86H1.485z"/>
        <path id="k" d="M1.209.723h166.966v45.08H1.21z"/>
        <path id="m" d="M.766.54h187.72v65.53H.766z"/>
        <path id="o" d="M66.944 33.665c0 18.477-14.971 33.452-33.437 33.452C15.042 67.117.071 52.142.071 33.665.07 15.19 15.04.212 33.507.212s33.437 14.979 33.437 33.453"/>
        <path id="q" d="M0 .046h4.968v5.276H0z"/>
        <path id="s" d="M0 .046h4.968v5.276H0z"/>
        <linearGradient id="u" x1="9.918%" x2="65.356%" y1="17.452%" y2="62.776%">
            <stop offset="0%" stop-color="#FFF"/>
            <stop offset="100%" stop-color="#ECF4FF" stop-opacity="0"/>
        </linearGradient>
    </defs>
    <g fill="none" fill-rule="evenodd">
        <path fill="#EBF5FF" d="M843.03 515.257c-29.812-44.542-71.093-82.893-119.06-111.404-76.11-45.245-165.32-73.806-256.08-72.237-84.987 1.468-174.899 40.489-221.076 121.414-37.477 65.676-48.934 126.81-109.633 175.873C95.262 662.786 27.91 674.027 6.988 721.479 1.12 734.786.023 748.96 1.328 763.292H843.03V515.257z"/>
        <path fill="#FFF" d="M611.272 651.057c4.24-3.861 8.737-3.175 11.068-2.41 2.05-5.276 6.457-11.286 15.923-11.286 16.868 0 18.219 16.603 18.219 16.603 11.876-3.598 14.17 6.917 14.17 7.332H606.82c0-6.78 4.453-10.239 4.453-10.239M402.301 568.55c-4.24-3.861-8.737-3.175-11.068-2.409-2.05-5.276-6.457-11.286-15.923-11.286-16.868 0-18.219 16.602-18.219 16.602-11.876-3.598-14.17 6.917-14.17 7.332h63.833c0-6.779-4.453-10.239-4.453-10.239M161.672 469.1c3.086 0 5.981.838 8.493 2.29 4.798-8.372 13.65-14.007 23.804-14.007 9.487 0 17.85 4.904 22.82 12.371 2.629-8.996 10.752-15.555 20.38-15.555 10.928 0 19.918 8.45 21.13 19.318.88-.14 1.773-.236 2.69-.236 6.664 0 12.443 3.861 15.343 9.518H144.814c1.797-7.848 8.653-13.699 16.858-13.699M608.65 469.1c3.086 0 5.981.838 8.493 2.29 4.798-8.372 13.65-14.007 23.804-14.007 9.487 0 17.85 4.904 22.82 12.371 2.629-8.996 10.752-15.555 20.38-15.555 10.928 0 19.918 8.45 21.13 19.318.88-.14 1.773-.236 2.69-.236 6.664 0 12.442 3.861 15.343 9.518H591.792c1.797-7.848 8.652-13.699 16.858-13.699"/>
        <path fill="#FFD474" d="M598.37 123.956a9.084 9.084 0 0 1-18.168 0 9.086 9.086 0 0 1 9.085-9.087c5.016 0 9.082 4.07 9.082 9.087"/>
        <path fill="#84B4FE" d="M356.546 330.372a6.079 6.079 0 0 1-12.156 0 6.079 6.079 0 1 1 12.156 0"/>
        <path fill="#FFD474" d="M599.575 265.4l-3.642-1.954a1.307 1.307 0 0 1-.537-.538l-1.954-3.643a1.312 1.312 0 0 0-2.31 0l-1.95 3.643a1.307 1.307 0 0 1-.538.538l-3.641 1.954a1.31 1.31 0 0 0 0 2.311l3.641 1.955a1.3 1.3 0 0 1 .537.534l1.951 3.646c.495.92 1.816.92 2.31 0l1.954-3.646a1.3 1.3 0 0 1 .537-.534l3.642-1.955a1.31 1.31 0 0 0 0-2.31M384.94 176.476l-4.591-2.462a1.63 1.63 0 0 1-.673-.676l-2.461-4.593c-.625-1.162-2.291-1.162-2.913 0l-2.462 4.593a1.637 1.637 0 0 1-.675.676l-4.59 2.462c-1.162.623-1.162 2.29 0 2.912l4.59 2.463c.287.154.524.388.675.675l2.462 4.593c.622 1.162 2.288 1.162 2.913 0l2.461-4.593a1.63 1.63 0 0 1 .673-.675l4.59-2.463c1.162-.622 1.162-2.29 0-2.912"/>
        <path fill="#C1DDF7" d="M703.398 268.718l-5.55-2.978a1.986 1.986 0 0 1-.819-.817l-2.974-5.552c-.752-1.405-2.767-1.405-3.52 0l-2.976 5.552a1.98 1.98 0 0 1-.817.817l-5.55 2.978c-1.406.753-1.406 2.769 0 3.521l5.55 2.979c.346.186.63.47.817.816l2.977 5.553c.752 1.407 2.767 1.407 3.519 0l2.974-5.553c.19-.345.471-.63.82-.816l5.55-2.979c1.403-.752 1.403-2.768 0-3.52"/>
        <path fill="#84B4FE" d="M336.684 65.818l-5.083-2.725a1.829 1.829 0 0 1-.747-.75l-2.727-5.085c-.688-1.285-2.533-1.285-3.222 0l-2.724 5.085c-.173.319-.43.58-.747.75l-5.082 2.725c-1.287.69-1.287 2.535 0 3.224l5.082 2.728c.316.17.574.428.747.747l2.724 5.085c.689 1.287 2.534 1.287 3.222 0l2.727-5.085c.17-.319.431-.577.747-.747l5.083-2.728c1.286-.69 1.286-2.535 0-3.224M303.696 296.837l-5.082-2.726a1.829 1.829 0 0 1-.747-.75l-2.727-5.085c-.689-1.284-2.533-1.284-3.222 0l-2.724 5.085c-.173.32-.431.58-.747.75l-5.083 2.726c-1.286.689-1.286 2.534 0 3.223l5.083 2.728c.316.17.574.429.747.748l2.724 5.085c.689 1.287 2.533 1.287 3.222 0l2.727-5.085c.17-.32.43-.577.747-.748l5.082-2.728c1.287-.689 1.287-2.534 0-3.223M610.114 215.632l-3.719-1.995a1.342 1.342 0 0 1-.547-.547l-1.994-3.72a1.34 1.34 0 0 0-2.36 0l-1.994 3.72a1.342 1.342 0 0 1-.548.547l-3.72 1.995c-.94.503-.94 1.854 0 2.359l3.72 1.997c.234.122.423.314.548.545l1.994 3.723a1.34 1.34 0 0 0 2.36 0l1.994-3.723a1.32 1.32 0 0 1 .547-.545l3.72-1.997c.94-.505.94-1.856 0-2.36"/>
        <path fill="#FFF" d="M453.64 700.239h52.972V352.345H453.64z"/>
        <path fill="#FFD22D" d="M500.364 366.559c0-10.701-8.673-19.379-19.367-19.379-10.702 0-19.37 8.678-19.37 19.379 0 0-2.504 45.821 19.37 70.216 21.868-24.395 19.367-70.216 19.367-70.216"/>
        <path fill="#E3465A" d="M413.348 261.619s-72.535 35.143-43.795 138.782c0 0 15.348-52.1 64.56-65.588l-20.765-73.194zM549.296 261.619s72.538 35.143 43.796 138.782c0 0-15.349-52.1-64.562-65.588l20.766-73.194z"/>
        <path fill="#214A81" d="M504.86 356.427h-49.3a4.164 4.164 0 0 1-4.062-3.245l-2.709-11.943c-.587-2.606 1.393-5.09 4.064-5.09h54.716c2.669 0 4.651 2.484 4.061 5.09l-2.708 11.943a4.164 4.164 0 0 1-4.062 3.245"/>
        <path fill="#C1DDF7" d="M409.058 233.624s7.567 69.51 30.956 113.555c0 0 37.145-17.892 81.172 0 0 0 26.83-37.162 32.332-119.06 3.17-47.191-.617-101.073-16.24-147.493h-109.11c-14.522 37.814-24.863 88.598-19.11 152.998"/>
        <path fill="#4C84FF" d="M428.169 80.625h109.112c-9.998-29.705-24.833-56.363-45.83-76.236-5.403-5.114-13.97-4.657-18.899.92C461.577 17.73 442.76 42.63 428.17 80.625z"/>
        <path fill="#E3465A" d="M479.382 230.264s-33.466 76.083 0 166.544c0 0 37.19-75.484 0-166.544"/>
        <path fill="#162C5E" d="M524.607 159.665c0 23.261-18.85 42.12-42.1 42.12-23.251 0-42.1-18.859-42.1-42.12 0-23.262 18.849-42.117 42.1-42.117 23.25 0 42.1 18.855 42.1 42.117"/>
        <path fill="#FFC35A" d="M511.734 159.665c0 16.15-13.086 29.24-29.227 29.24-16.14 0-29.226-13.09-29.226-29.24 0-16.148 13.086-29.24 29.226-29.24s29.227 13.092 29.227 29.24"/>
        <g>
            <g transform="translate(345.568 682.917)">
                <mask id="b" fill="#fff">
                    <use xlink:href="#a"/>
                </mask>
                <path fill="#FFF" d="M123.5 60.985c0 33.57-27.591 60.786-61.629 60.786C27.836 121.77.245 94.554.245 60.985.245 27.413 27.836.199 61.87.199c34.038 0 61.63 27.214 61.63 60.786" mask="url(#b)"/>
            </g>
            <g transform="translate(539.613 689.245)">
                <mask id="d" fill="#fff">
                    <use xlink:href="#c"/>
                </mask>
                <path fill="#FFF" d="M111.55 54.657c0 30.075-24.719 54.456-55.21 54.456-30.49 0-55.208-24.381-55.208-54.456C1.132 24.579 25.851.201 56.34.201c30.491 0 55.21 24.378 55.21 54.456" mask="url(#d)"/>
            </g>
            <path fill="#FFF" d="M548.055 696.71c0 23.52-19.327 42.583-43.168 42.583-23.844 0-43.171-19.063-43.171-42.582 0-23.517 19.327-42.582 43.17-42.582 23.842 0 43.169 19.065 43.169 42.582M456.294 670.883c0 16.382-13.463 29.663-30.074 29.663-16.61 0-30.077-13.281-30.077-29.663 0-16.382 13.466-29.665 30.077-29.665 16.61 0 30.074 13.283 30.074 29.665"/>
            <path fill="#FFF" d="M523.446 646.377c0 11.193-9.2 20.267-20.547 20.267-11.35 0-20.55-9.074-20.55-20.267 0-11.196 9.2-20.27 20.55-20.27 11.348 0 20.547 9.074 20.547 20.27M502.776 696.246c0 19.839-16.308 35.92-36.42 35.92-20.114 0-36.416-16.081-36.416-35.92 0-19.84 16.302-35.923 36.416-35.923 20.112 0 36.42 16.084 36.42 35.923"/>
            <g transform="translate(63.804 723.817)">
                <mask id="f" fill="#fff">
                    <use xlink:href="#e"/>
                </mask>
                <path fill="#FFF" d="M222.073 126.193c-8.567 60.062-64.872 101.9-125.765 93.453C35.415 211.195-7.004 155.656 1.56 95.594c8.57-60.062 64.874-101.9 125.767-93.45 60.896 8.448 103.315 63.99 94.745 124.049" mask="url(#f)"/>
            </g>
            <g transform="translate(224.942 689.245)">
                <mask id="h" fill="#fff">
                    <use xlink:href="#g"/>
                </mask>
                <path fill="#FFF" d="M167.764 79.119c1.92 45.438-33.87 83.807-79.936 85.698C41.762 166.711 2.86 131.41.941 85.972-.975 40.534 34.811 2.164 80.877.273c46.069-1.893 84.968 33.407 86.887 78.846" mask="url(#h)"/>
            </g>
            <g transform="translate(598.092 710.52)">
                <mask id="j" fill="#fff">
                    <use xlink:href="#i"/>
                </mask>
                <path fill="#FFF" d="M237.495 117.306c0 64.282-52.834 116.396-118.006 116.396-65.17 0-118.003-52.114-118.003-116.396C1.486 53.026 54.319.912 119.489.912c65.172 0 118.006 52.114 118.006 116.394" mask="url(#j)"/>
            </g>
            <g transform="translate(340.251 717.489)">
                <mask id="l" fill="#fff">
                    <use xlink:href="#k"/>
                </mask>
                <path fill="#FFF" d="M168.175 83.068c0 45.478-37.376 82.342-83.482 82.342-46.105 0-83.484-36.864-83.484-82.342S38.588.723 84.693.723c46.106 0 83.482 36.867 83.482 82.345" mask="url(#l)"/>
            </g>
            <g transform="translate(430.629 697.223)">
                <mask id="n" fill="#fff">
                    <use xlink:href="#m"/>
                </mask>
                <path fill="#FFF" d="M186.44 73.982c10.712 50.017-21.707 99.126-72.414 109.694-50.706 10.568-100.499-21.41-111.214-71.423C-7.9 62.238 24.522 13.124 75.228 2.559c50.707-10.569 100.5 21.408 111.212 71.423" mask="url(#n)"/>
            </g>
        </g>
        <g transform="translate(449 126)">
            <mask id="p" fill="#fff">
                <use xlink:href="#o"/>
            </mask>
            <use fill="#FFC35A" xlink:href="#o"/>
            <g mask="url(#p)">
                <g fill-rule="nonzero" transform="rotate(40 16.32 51.435)">
                    <path fill="#E09B2D" d="M37.023 81.145H3.466A37.186 37.186 0 0 0 20.244 68.4a37.186 37.186 0 0 0 16.779 12.744z"/>
                    <path fill="#43F3C2" d="M28.192 9.4a10.916 10.916 0 0 1 2.784 5.318 37.568 37.568 0 0 0-2.589 1.718c-.064-.072-.13-.142-.195-.213a10.925 10.925 0 0 0-7.948-3.414 10.92 10.92 0 0 0-7.947 3.414c-.067.07-.133.14-.195.213a37.568 37.568 0 0 0-2.59-1.718A10.884 10.884 0 0 1 12.297 9.4a10.922 10.922 0 0 1 7.947-3.416A10.945 10.945 0 0 1 28.192 9.4z"/>
                    <path fill="#E3465A" d="M28.387 16.436a37.271 37.271 0 0 0-8.143 8.086 37.271 37.271 0 0 0-8.142-8.086 10.92 10.92 0 0 1 8.143-3.626 10.925 10.925 0 0 1 7.947 3.413c.065.07.13.14.195.213z"/>
                    <path fill="#43F3C2" d="M39.017 5.592l-1.994 6.187a36.828 36.828 0 0 0-6.047 2.94 10.916 10.916 0 0 0-2.985-5.526 10.945 10.945 0 0 0-5.337-2.942l4.232-4.64 2.654 2.483 3.412-2.672 1.516 4.549 4.549-.38zM13.6 1.611l4.235 4.64A10.922 10.922 0 0 0 12.297 9.4a10.884 10.884 0 0 0-2.785 5.318 36.828 36.828 0 0 0-6.046-2.94L1.47 5.593l4.549.379 1.516-4.55 3.412 2.673 2.654-2.483z"/>
                    <path fill="#FFC35A" d="M30.976 14.718a36.828 36.828 0 0 1 6.047-2.94v69.367A37.186 37.186 0 0 1 20.244 68.4a36.897 36.897 0 0 0 7.19-21.94c0-8.209-2.67-15.796-7.19-21.94a37.271 37.271 0 0 1 10.732-9.803z"/>
                    <path fill="#FFC35A" d="M12.102 16.436a37.271 37.271 0 0 1 8.142 8.086 36.901 36.901 0 0 1 7.19 21.94c0 8.209-2.67 15.798-7.19 21.94A37.186 37.186 0 0 1 3.466 81.144V11.779a36.828 36.828 0 0 1 8.636 4.657z"/>
                    <path fill="#EEA532" d="M11.237 15.83a36.828 36.828 0 0 0-7.771-4.052v69.367a36.985 36.985 0 0 0 7.771-4.05V15.83z"/>
                    <circle cx="22.194" cy="16.472" r="1.422" fill="#FFF"/>
                    <circle cx="33.217" cy="9.292" r="1.422" fill="#FFF"/>
                    <path fill="#162C5E" d="M40.13 4.708a1.42 1.42 0 0 0-1.23-.533l-3.437.286L34.3.972a1.422 1.422 0 0 0-2.225-.67l-2.453 1.922-1.764-1.65a1.423 1.423 0 0 0-2.022.079l-3.699 4.054a12.545 12.545 0 0 0-3.788-.002L14.652.653a1.421 1.421 0 0 0-2.022-.08l-1.764 1.651L8.413.303a1.421 1.421 0 0 0-2.226.669l-1.163 3.49-3.435-.287A1.42 1.42 0 0 0 .117 6.028l1.926 5.974v69.143c0 .786.637 1.422 1.422 1.422h33.557c.786 0 1.422-.636 1.422-1.422V12.002l1.926-5.974a1.421 1.421 0 0 0-.24-1.32zM26.967 3.633l1.603 1.5a1.421 1.421 0 0 0 1.848.08l1.824-1.429.878 2.636a1.424 1.424 0 0 0 1.467.967l2.424-.202-1.133 3.514a38.517 38.517 0 0 0-4.043 1.89 12.335 12.335 0 0 0-2.838-4.4 12.384 12.384 0 0 0-3.814-2.601l1.784-1.955zM19.1 25.365c4.522 6.146 6.913 13.441 6.913 21.097 0 7.656-2.39 14.951-6.913 21.097A35.654 35.654 0 0 1 4.887 79.017v-65.11a35.654 35.654 0 0 1 14.212 11.458zm1.145-3.164a38.616 38.616 0 0 0-5.948-5.888 9.43 9.43 0 0 1 5.948-2.082c2.187 0 4.261.734 5.947 2.083a38.615 38.615 0 0 0-5.947 5.887zm0 48.522a38.499 38.499 0 0 0 10.5 9H9.744a38.5 38.5 0 0 0 10.5-9zm1.766-2.35c4.48-6.451 6.845-14.003 6.845-21.911 0-7.908-2.364-15.46-6.845-21.91A35.629 35.629 0 0 1 35.6 13.906v65.11a35.633 35.633 0 0 1-13.59-10.644zM26.988 10.2a9.505 9.505 0 0 1 2.35 3.862c-.267.17-.531.343-.793.52a12.295 12.295 0 0 0-8.301-3.196c-3.11 0-6.02 1.13-8.298 3.198a38.855 38.855 0 0 0-.796-.523 9.505 9.505 0 0 1 2.178-3.684 9.445 9.445 0 0 1 6.916-2.972 9.48 9.48 0 0 1 6.744 2.795zM5.902 7.387a1.423 1.423 0 0 0 1.466-.967l.879-2.636 1.824 1.43a1.421 1.421 0 0 0 1.848-.082l1.602-1.5 1.78 1.951c-1.5.653-2.87 1.608-4.035 2.838a12.35 12.35 0 0 0-2.613 4.168A38.504 38.504 0 0 0 4.61 10.7L3.478 7.185l2.424.202z"/>
                </g>
                <g transform="rotate(73 -4.78 36.67)">
                    <mask id="r" fill="#fff">
                        <use xlink:href="#q"/>
                    </mask>
                    <path fill="#000" d="M4.943 2.354c.193 1.447-.751 2.765-2.11 2.947C1.475 5.483.218 4.46.025 3.014-.168 1.568.775.248 2.133.067c1.36-.183 2.617.842 2.81 2.287" mask="url(#r)"/>
                </g>
                <path fill="#FFF" d="M30.628 33.367c-.524.24-1.135.026-1.366-.479-.23-.501.006-1.104.53-1.345.524-.24 1.136-.026 1.367.477.23.505-.006 1.107-.53 1.347M29.52 35.664a.71.71 0 1 1-.59-1.287.711.711 0 0 1 .944.347.71.71 0 0 1-.353.94"/>
                <g>
                    <g transform="rotate(73 -2.958 49.31)">
                        <mask id="t" fill="#fff">
                            <use xlink:href="#s"/>
                        </mask>
                        <path fill="#000" d="M4.943 2.354c.193 1.447-.751 2.765-2.11 2.947C1.475 5.483.218 4.46.025 3.014-.168 1.568.775.248 2.133.067c1.36-.183 2.617.842 2.81 2.287" mask="url(#t)"/>
                    </g>
                    <path fill="#FFF" d="M44.005 40.57c-.524.238-1.135.025-1.366-.48-.23-.501.006-1.104.53-1.345.524-.24 1.135-.025 1.367.477.23.505-.006 1.107-.531 1.347M42.897 42.867a.71.71 0 1 1-.59-1.288.711.711 0 0 1 .944.347.71.71 0 0 1-.354.94"/>
                </g>
                <g>
                    <path fill="#E3465A" stroke="#162C5E" stroke-linejoin="bevel" stroke-width="4" d="M36.795 50.534c-.914.606-1.885.577-2.485.025-.216-.188-.369-.456-.473-.76a4.382 4.382 0 0 0-.855-1.5.113.113 0 0 0-.056-.05 4.496 4.496 0 0 0-2.155-1.35l-.035-.02a4.306 4.306 0 0 0-1.675-.12 1.592 1.592 0 0 1-.912-.142c-.742-.306-1.167-1.172-1-2.254.18-1.179 1.016-2.258 2.008-2.707.235-.106.478-.176.724-.204a8.237 8.237 0 0 1 2.726.127 7.6 7.6 0 0 1 2.478 1.031l.017.01c.072.048.145.094.214.143a7.692 7.692 0 0 1 2.18 2.3c.335.543.611 1.138.819 1.77.139.435.144.92.036 1.408a3.772 3.772 0 0 1-1.556 2.293"/>
                    <path fill="#E3465A" d="M36.795 50.534c-.914.606-1.885.577-2.485.025-.216-.188-.369-.456-.473-.76a4.382 4.382 0 0 0-.855-1.5.113.113 0 0 0-.056-.05 4.496 4.496 0 0 0-2.155-1.35l-.035-.02a4.306 4.306 0 0 0-1.675-.12 1.592 1.592 0 0 1-.912-.142c-.742-.306-1.167-1.172-1-2.254.18-1.179 1.016-2.258 2.008-2.707.235-.106.478-.176.724-.204a8.237 8.237 0 0 1 2.726.127 7.6 7.6 0 0 1 2.478 1.031l.017.01c.072.048.145.094.214.143a7.692 7.692 0 0 1 2.18 2.3c.335.543.611 1.138.819 1.77.139.435.144.92.036 1.408a3.772 3.772 0 0 1-1.556 2.293"/>
                    <path fill="#FFF" d="M31.823 43.475c-.833.541-1.928.333-2.448-.468a1.69 1.69 0 0 1-.218-1.35c.235-.107.478-.176.724-.205a8.252 8.252 0 0 1 2.726.127 1.772 1.772 0 0 1-.784 1.896"/>
                    <path fill="#FFF" d="M34.536 43.83a1.765 1.765 0 0 1-.212.119c-.798.381-1.76.147-2.234-.589-.013-.018-.024-.04-.034-.06-.343-.57-.304-1.268.045-1.815a7.6 7.6 0 0 1 2.984 1.125l.017.01c.072.048.145.094.214.143-.11.419-.378.805-.78 1.067"/>
                    <path fill="#FFF" d="M37.036 45.486a1.79 1.79 0 0 1-.792.287 1.714 1.714 0 0 1-1.657-.754 1.674 1.674 0 0 1-.263-1.07 1.805 1.805 0 0 1 .778-1.328c.072.047.145.093.214.142a7.684 7.684 0 0 1 2.18 2.3c-.124.162-.28.306-.46.423"/>
                    <path fill="#FFF" d="M38.351 48.24c-.762.295-1.638.04-2.086-.647-.364-.56-.347-1.262-.02-1.82a1.88 1.88 0 0 1 .583-.609c.18-.118.376-.2.575-.246l.093.145c.335.543.611 1.138.819 1.77.139.435.144.92.036 1.408"/>
                </g>
            </g>
        </g>
        <path fill="url(#u)" d="M513.734 159.666c0 17.255-13.982 31.24-31.227 31.24-17.244 0-31.226-13.985-31.226-31.24 0-17.253 13.982-31.241 31.226-31.241 17.245 0 31.227 13.988 31.227 31.24"/>
    </g>
</svg>
