<svg xmlns="http://www.w3.org/2000/svg" xmlns:xlink="http://www.w3.org/1999/xlink" width="210" height="71" viewBox="0 0 210 71">
    <defs>
        <path id="a" d="M12 18.667h11.333l30.33-27.802c4.885-4.479 12.476-4.149 16.954.737a12 12 0 0 1 2.991 10.081l-11.27 67.623A12 12 0 0 1 50.5 79.333H15c-8.284 0-15-6.715-15-15V30.667c0-6.628 5.373-12 12-12z"/>
    </defs>
    <g fill="none" fill-rule="evenodd">
        <path fill="#162C5E" d="M86.828 43.052a6.162 6.162 0 0 0-.072.648c0 .336.09.576.27.72.18.144.438.216.774.216s.69-.06 1.062-.18c.372-.12.846-.288 1.422-.504l.72 5.22c-.744.384-1.608.672-2.592.864a15.2 15.2 0 0 1-2.916.288c-1.896 0-3.39-.474-4.482-1.422s-1.638-2.226-1.638-3.834c0-.528.048-1.02.144-1.476l1.476-7.524h-2.7l.936-4.644h2.7l1.08-5.436h7.236l-1.08 5.436h4.824l-.936 4.644h-4.824l-1.404 6.984zm19.26-12.888c2.016 0 3.774.372 5.274 1.116 1.5.744 2.652 1.794 3.456 3.15.804 1.356 1.206 2.946 1.206 4.77 0 2.184-.504 4.11-1.512 5.778-1.008 1.668-2.418 2.964-4.23 3.888-1.812.924-3.882 1.386-6.21 1.386-2.016 0-3.774-.372-5.274-1.116-1.5-.744-2.652-1.8-3.456-3.168-.804-1.368-1.206-2.964-1.206-4.788 0-2.16.504-4.074 1.512-5.742 1.008-1.668 2.418-2.964 4.23-3.888 1.812-.924 3.882-1.386 6.21-1.386zm-.576 5.76c-1.176 0-2.136.456-2.88 1.368-.744.912-1.116 2.1-1.116 3.564 0 1.152.282 2.07.846 2.754.564.684 1.326 1.026 2.286 1.026 1.176 0 2.136-.45 2.88-1.35.744-.9 1.116-2.082 1.116-3.546 0-1.152-.282-2.076-.846-2.772-.564-.696-1.326-1.044-2.286-1.044zm22.14-2.736c1.752-2.04 3.924-3.06 6.516-3.06l-.864 6.516c-.48-.048-.84-.072-1.08-.072-1.56 0-2.91.408-4.05 1.224-1.14.816-1.83 1.86-2.07 3.132L124.268 50h-7.272l3.924-19.584h7.272l-.54 2.772zm15.156 9.864a6.162 6.162 0 0 0-.072.648c0 .336.09.576.27.72.18.144.438.216.774.216s.69-.06 1.062-.18c.372-.12.846-.288 1.422-.504l.72 5.22c-.744.384-1.608.672-2.592.864a15.2 15.2 0 0 1-2.916.288c-1.896 0-3.39-.474-4.482-1.422s-1.638-2.226-1.638-3.834c0-.528.048-1.02.144-1.476l1.476-7.524h-2.7l.936-4.644h2.7l1.08-5.436h7.236l-1.08 5.436h4.824l-.936 4.644h-4.824l-1.404 6.984zm18-12.636L156.884 50h-7.272l3.924-19.584h7.272zm-1.8-9.324c.936 0 1.686.282 2.25.846.564.564.846 1.302.846 2.214 0 1.248-.444 2.298-1.332 3.15-.888.852-1.968 1.278-3.24 1.278-.936 0-1.686-.282-2.25-.846-.564-.564-.846-1.302-.846-2.214 0-1.248.444-2.298 1.332-3.15.888-.852 1.968-1.278 3.24-1.278zm15.084 2.196L168.764 50h-7.272l5.328-26.712h7.272zm12.06 0L180.824 50h-7.272l5.328-26.712h7.272zm7.092 26.964c-1.44 0-2.724-.36-3.852-1.08-1.128-.72-2.004-1.722-2.628-3.006-.624-1.284-.936-2.766-.936-4.446 0-2.136.45-4.086 1.35-5.85.9-1.764 2.136-3.156 3.708-4.176a9.3 9.3 0 0 1 5.166-1.53c1.344 0 2.508.27 3.492.81s1.752 1.326 2.304 2.358l.576-2.916h7.236L205.772 50H198.5l.432-2.124c-1.656 1.584-3.552 2.376-5.688 2.376zm2.916-5.436c.768 0 1.482-.234 2.142-.702.66-.468 1.182-1.098 1.566-1.89a5.862 5.862 0 0 0 .576-2.592c0-1.056-.276-1.908-.828-2.556-.552-.648-1.296-.972-2.232-.972-.768 0-1.47.234-2.106.702-.636.468-1.146 1.092-1.53 1.872-.384.78-.576 1.638-.576 2.574 0 1.104.27 1.974.81 2.61.54.636 1.266.954 2.178.954z"/>
        <g transform="translate(0 -9)">
            <path fill="#162C5E" d="M15 19h30c8.284 0 15 6.716 15 15v30c0 8.284-6.716 15-15 15H15C6.716 79 0 72.284 0 64V34c0-8.284 6.716-15 15-15z"/>
            <mask id="b" fill="#fff">
                <use xlink:href="#a"/>
            </mask>
            <g mask="url(#b)">
                <g fill-rule="nonzero" transform="rotate(40 12.414 58.901)">
                    <path fill="#E09B2D" d="M35.972 78.84H3.367A36.13 36.13 0 0 0 19.67 66.46 36.13 36.13 0 0 0 35.972 78.84z"/>
                    <path fill="#43F3C2" d="M27.391 9.133a10.606 10.606 0 0 1 2.706 5.167 36.502 36.502 0 0 0-2.516 1.669c-.062-.07-.127-.138-.19-.206a10.615 10.615 0 0 0-7.722-3.317 10.61 10.61 0 0 0-7.721 3.317c-.065.068-.13.136-.19.206A36.502 36.502 0 0 0 9.242 14.3a10.575 10.575 0 0 1 2.706-5.167 10.612 10.612 0 0 1 7.722-3.319 10.635 10.635 0 0 1 7.722 3.319z"/>
                    <path fill="#E3465A" d="M27.581 15.969a36.213 36.213 0 0 0-7.911 7.856 36.213 36.213 0 0 0-7.912-7.856 10.61 10.61 0 0 1 7.912-3.523 10.615 10.615 0 0 1 7.721 3.317c.063.068.128.136.19.206z"/>
                    <path fill="#43F3C2" d="M37.909 5.433l-1.937 6.011a35.782 35.782 0 0 0-5.875 2.856 10.606 10.606 0 0 0-2.9-5.368 10.635 10.635 0 0 0-5.187-2.858l4.113-4.508L28.7 3.978l3.315-2.597 1.473 4.42 4.42-.368zM13.215 1.566l4.114 4.508a10.612 10.612 0 0 0-5.381 3.059A10.575 10.575 0 0 0 9.242 14.3a35.782 35.782 0 0 0-5.875-2.856L1.428 5.433l4.42.368 1.473-4.42 3.315 2.597 2.579-2.412z"/>
                    <path fill="#FFC35A" d="M30.097 14.3a35.782 35.782 0 0 1 5.875-2.856V78.84A36.13 36.13 0 0 1 19.67 66.46a35.85 35.85 0 0 0 6.985-21.317 35.853 35.853 0 0 0-6.985-21.317A36.213 36.213 0 0 1 30.097 14.3z"/>
                    <path fill="#FFC35A" d="M11.758 15.969a36.213 36.213 0 0 1 7.912 7.856 35.853 35.853 0 0 1 6.985 21.317A35.85 35.85 0 0 1 19.67 66.46 36.13 36.13 0 0 1 3.367 78.84V11.444a35.782 35.782 0 0 1 8.39 4.525z"/>
                    <path fill="#EEA532" d="M10.918 15.38a35.782 35.782 0 0 0-7.55-3.936V78.84a35.935 35.935 0 0 0 7.55-3.935V15.381z"/>
                    <path fill="#FFF" d="M22.419 46.523a1.381 1.381 0 0 1-1.381-1.38c0-6.128-1.811-12.028-5.237-17.062a1.381 1.381 0 0 1 2.283-1.555c3.74 5.495 5.716 11.932 5.716 18.616a1.38 1.38 0 0 1-1.381 1.381zM31.824 62.905a1.381 1.381 0 0 1-1.381-1.382V27.822a1.381 1.381 0 1 1 2.762 0v33.701c0 .763-.618 1.382-1.38 1.382zM31.824 22.389a1.381 1.381 0 0 1-1.381-1.381v-2.579a1.381 1.381 0 1 1 2.762 0v2.579c0 .763-.618 1.38-1.38 1.38z"/>
                    <circle cx="14.005" cy="23.491" r="1.381" fill="#FFF"/>
                    <circle cx="21.564" cy="16.005" r="1.381" fill="#FFF"/>
                    <circle cx="32.274" cy="9.029" r="1.381" fill="#FFF"/>
                    <path fill="#162C5E" d="M38.991 4.574a1.38 1.38 0 0 0-1.197-.518l-3.338.278-1.13-3.39a1.381 1.381 0 0 0-2.162-.65L28.781 2.16 27.066.557a1.382 1.382 0 0 0-1.964.077l-3.593 3.94a12.19 12.19 0 0 0-3.681-.003L14.236.634a1.381 1.381 0 0 0-1.964-.077L10.557 2.16 8.174.294a1.381 1.381 0 0 0-2.162.65l-1.13 3.39-3.339-.278a1.38 1.38 0 0 0-1.429 1.8l1.871 5.806V78.84c0 .763.619 1.381 1.381 1.381h32.605c.763 0 1.381-.618 1.381-1.381v-67.18l1.872-5.804a1.38 1.38 0 0 0-.233-1.283zM26.201 3.53l1.556 1.456c.498.466 1.26.5 1.796.08l1.772-1.39.854 2.562c.202.604.793.992 1.425.94l2.355-.197-1.1 3.414a37.423 37.423 0 0 0-3.929 1.837 11.984 11.984 0 0 0-2.757-4.276 12.033 12.033 0 0 0-3.706-2.527l1.733-1.9zm-7.645 21.114c4.394 5.972 6.717 13.06 6.717 20.499 0 7.438-2.322 14.526-6.717 20.498A34.642 34.642 0 0 1 4.748 76.773V13.512a34.642 34.642 0 0 1 13.808 11.132zm1.113-3.073a37.519 37.519 0 0 0-5.779-5.721 9.163 9.163 0 0 1 5.779-2.024c2.125 0 4.14.714 5.778 2.025a37.519 37.519 0 0 0-5.778 5.72zm0 47.143a37.405 37.405 0 0 0 10.203 8.746H9.466a37.406 37.406 0 0 0 10.203-8.746zm1.716-2.283c4.353-6.268 6.65-13.605 6.65-21.288 0-7.684-2.297-15.021-6.65-21.289A34.617 34.617 0 0 1 34.59 13.512v63.262A34.62 34.62 0 0 1 21.385 66.43zm4.836-56.52a9.235 9.235 0 0 1 2.283 3.752 36.7 36.7 0 0 0-.77.506 11.946 11.946 0 0 0-8.065-3.105 11.899 11.899 0 0 0-8.063 3.107 37.751 37.751 0 0 0-.773-.508 9.235 9.235 0 0 1 2.116-3.58 9.177 9.177 0 0 1 6.72-2.887c2.473 0 4.8.964 6.552 2.715zM5.734 7.178a1.383 1.383 0 0 0 1.425-.94l.854-2.561 1.772 1.388c.536.42 1.299.387 1.796-.079l1.556-1.456 1.73 1.895a11.996 11.996 0 0 0-3.921 2.756 11.999 11.999 0 0 0-2.538 4.05 37.41 37.41 0 0 0-3.929-1.836L3.38 6.98l2.355.197z"/>
                    <circle cx="29.973" cy="24.632" r="1.381" fill="#333"/>
                    <circle cx="11.075" cy="27.883" r="1.381" fill="#333"/>
                    <circle cx="16.71" cy="38.257" r="1.381" fill="#333"/>
                    <circle cx="16.892" cy="52.083" r="1.381" fill="#333"/>
                    <circle cx="11.039" cy="62.493" r="1.381" fill="#333"/>
                    <circle cx="29.913" cy="65.617" r="1.381" fill="#333"/>
                </g>
            </g>
        </g>
    </g>
</svg>
