<svg xmlns="http://www.w3.org/2000/svg" width="70" height="72" viewBox="0 0 70 72">
    <g fill="none" fill-rule="nonzero">
        <path fill="#FFD22D" d="M56.81 0H13.19C5.93 0 .046 5.885.046 13.143v28.61c0 7.259 5.885 13.143 13.144 13.143h6.26a.54.54 0 0 1 .539.54v14.112c0 1.669 2.041 2.478 3.184 1.262L37.98 55.066a.54.54 0 0 1 .393-.17H56.81c7.26 0 13.144-5.884 13.144-13.143v-28.61C69.954 5.885 64.069 0 56.81 0z"/>
        <path fill="#FFBB24" d="M25.519 49.991c0-.313-.234-.568-.522-.568h-6.06c-7.028 0-12.725-6.196-12.725-13.84V5.455c0-1.293.164-2.545.469-3.732a13.139 13.139 0 0 0-6.635 11.42v28.61c0 7.259 5.885 13.143 13.144 13.143h6.26a.54.54 0 0 1 .539.54v14.112c0 1.669 2.041 2.478 3.184 1.262l2.345-2.494V49.991z"/>
        <path fill="#EC5569" d="M49.768 17.057a8.545 8.545 0 0 0-12.084 0l-1.885 1.885c-.45.45-1.179.45-1.628 0l-1.855-1.855a8.545 8.545 0 0 0-12.084 12.085l13.94 13.94c.45.45 1.178.45 1.628 0l13.968-13.97a8.545 8.545 0 0 0 0-12.085z"/>
        <path fill="#FFF" d="M49.768 17.057a8.545 8.545 0 0 0-12.084 0l-1.885 1.885c-.45.45-1.179.45-1.628 0l-1.855-1.855a8.545 8.545 0 0 0-12.084 12.085l13.94 13.94c.45.45 1.178.45 1.628 0l13.968-13.97a8.545 8.545 0 0 0 0-12.085z"/>
        <path fill="#DCE6EB" d="M24.701 29.172a8.545 8.545 0 0 1 3.808-14.289 8.545 8.545 0 0 0-8.277 14.289l13.94 13.94c.45.45 1.178.45 1.628 0l1.42-1.42-12.519-12.52z"/>
    </g>
</svg>
