<svg width="22" height="22" xmlns="http://www.w3.org/2000/svg" viewBox="0 0 22 22">
 <style type="text/css">.st0{fill:#FFFFFF;}</style>

 <g>
  <title>background</title>
  <rect x="-1" y="-1" width="3.374981" height="3.374981" id="canvas_background" fill="none"/>
 </g>
 <g>
  <title>Layer 1</title>
  <style type="text/css">.st0{fill:#FFFFFF;}
	.st1{fill:#FFFFFF;}
	.st2{fill:#FFFFFF;}</style>
  <polygon id="svg_10" points="9.053841677803618,6.764872023313129 9.053841677803618,6.764872023313129 9.053841677803618,6.764872023313129 " fill="#61DAFB"/>
  <polygon id="svg_12" points="12.932562460743304,6.75904543935674 12.932562460743304,6.75904543935674 12.932562460743304,6.75904543935674 " fill="#61DAFB"/>
  <g id="svg_16">
   <path class="st0" d="m11.2,1.7c5,0 9,4 9,9s-4,9 -9,9c-1.5,0 -3,-0.4 -4.4,-1.1l-0.3,-0.2l-0.3,0.1l-3.9,1.2l1.3,-3.7l0.1,-0.4l-0.2,-0.3c-0.8,-1.4 -1.3,-3 -1.3,-4.6c0,-4.9 4,-9 9,-9m0,-0.8c-5.4,0 -9.8,4.4 -9.8,9.8c0,1.8 0.5,3.5 1.4,5.1l-1.8,5.3l5.4,-1.7c1.5,0.8 3.1,1.2 4.8,1.2c5.4,0 9.8,-4.4 9.8,-9.8c0,-5.5 -4.4,-9.9 -9.8,-9.9l0,0z" id="svg_3" fill="#ffffff"/>
   <path id="svg_8" d="m15.764398,11.000971c0,-0.631239 -0.790505,-1.229459 -2.002484,-1.600434c0.279687,-1.235286 0.155382,-2.218077 -0.392339,-2.532725c-0.126248,-0.073806 -0.273861,-0.108767 -0.435069,-0.108767l0,0.433127c0.089345,0 0.161209,0.01748 0.221419,0.050499c0.264149,0.151497 0.378743,0.728353 0.289399,1.470301c-0.021365,0.182574 -0.056326,0.374859 -0.099056,0.571028c-0.380686,-0.093229 -0.796332,-0.165093 -1.233344,-0.211708c-0.262207,-0.359321 -0.534125,-0.685623 -0.807986,-0.971137c0.633181,-0.588509 1.227517,-0.910926 1.63151,-0.910926l0,-0.433127c0,0 0,0 0,0c-0.534125,0 -1.233344,0.380686 -1.940331,1.041059c-0.706988,-0.656489 -1.406206,-1.03329 -1.940331,-1.03329l0,0.433127c0.402051,0 0.998329,0.320475 1.63151,0.9051c-0.271918,0.285514 -0.543837,0.609874 -0.802159,0.969195c-0.438954,0.046615 -0.8546,0.118479 -1.235286,0.21365c-0.044672,-0.194227 -0.077691,-0.382628 -0.100998,-0.563259c-0.091287,-0.741949 0.021365,-1.318804 0.283572,-1.472243c0.058268,-0.034961 0.134017,-0.050499 0.223361,-0.050499l0,-0.433127c0,0 0,0 0,0c-0.163151,0 -0.310764,0.034961 -0.438954,0.108767c-0.545779,0.314648 -0.668142,1.295497 -0.386512,2.526898c-1.208094,0.372917 -1.994715,0.969195 -1.994715,1.598491c0,0.631239 0.790505,1.229459 2.002484,1.600434c-0.279687,1.235286 -0.155382,2.218077 0.392339,2.532725c0.126248,0.073806 0.273861,0.108767 0.437012,0.108767c0.534125,0 1.233344,-0.380686 1.940331,-1.041059c0.706988,0.656489 1.406206,1.03329 1.940331,1.03329c0.163151,0 0.310764,-0.034961 0.438954,-0.108767c0.545779,-0.314648 0.668142,-1.295497 0.386512,-2.526898c1.20421,-0.370974 1.990831,-0.969195 1.990831,-1.598491zm-2.52884,-1.295497c-0.071864,0.250553 -0.161209,0.508876 -0.262207,0.767198c-0.079633,-0.155382 -0.163151,-0.310764 -0.254438,-0.466146c-0.089345,-0.155382 -0.184516,-0.306879 -0.279687,-0.454492c0.275803,0.040788 0.541894,0.091287 0.796332,0.15344zm-0.889561,2.068521c-0.151497,0.262207 -0.306879,0.510818 -0.468088,0.741949c-0.289399,0.02525 -0.582682,0.038845 -0.877908,0.038845c-0.293283,0 -0.586567,-0.013596 -0.874023,-0.036903c-0.161209,-0.231131 -0.318533,-0.477799 -0.47003,-0.738064c-0.147613,-0.254438 -0.28163,-0.51276 -0.403993,-0.773025c0.120421,-0.260265 0.25638,-0.520529 0.402051,-0.774967c0.151497,-0.262207 0.306879,-0.510818 0.468088,-0.741949c0.289399,-0.02525 0.582682,-0.038845 0.877908,-0.038845c0.293283,0 0.586567,0.013596 0.874023,0.036903c0.161209,0.231131 0.318533,0.477799 0.47003,0.738064c0.147613,0.254438 0.28163,0.51276 0.403993,0.773025c-0.122363,0.260265 -0.25638,0.520529 -0.402051,0.774967zm0.627354,-0.252496c0.104883,0.260265 0.194227,0.520529 0.268034,0.773025c-0.254438,0.062153 -0.522472,0.114594 -0.800217,0.155382c0.095171,-0.149555 0.190343,-0.302995 0.279687,-0.460319c0.089345,-0.155382 0.172862,-0.312706 0.252496,-0.468088zm-1.969466,2.072406c-0.180631,-0.186458 -0.361263,-0.394282 -0.539952,-0.621528c0.174805,0.007769 0.353494,0.013596 0.534125,0.013596c0.182574,0 0.363205,-0.003885 0.539952,-0.013596c-0.174805,0.227246 -0.355436,0.435069 -0.534125,0.621528zm-1.445052,-1.143999c-0.275803,-0.040788 -0.541894,-0.091287 -0.796332,-0.15344c0.071864,-0.250553 0.161209,-0.508876 0.262207,-0.767198c0.079633,0.155382 0.163151,0.310764 0.254438,0.466146c0.091287,0.155382 0.184516,0.306879 0.279687,0.454492zm1.43534,-4.041872c0.180631,0.186458 0.361263,0.394282 0.539952,0.621528c-0.174805,-0.007769 -0.353494,-0.013596 -0.534125,-0.013596c-0.182574,0 -0.363205,0.003885 -0.539952,0.013596c0.174805,-0.227246 0.355436,-0.435069 0.534125,-0.621528zm-1.437283,1.143999c-0.095171,0.149555 -0.190343,0.302995 -0.279687,0.460319c-0.089345,0.155382 -0.172862,0.310764 -0.252496,0.466146c-0.104883,-0.260265 -0.194227,-0.520529 -0.268034,-0.773025c0.254438,-0.06021 0.522472,-0.112652 0.800217,-0.15344zm-1.757758,2.431727c-0.687565,-0.293283 -1.132346,-0.677854 -1.132346,-0.98279c0,-0.304937 0.444781,-0.691449 1.132346,-0.98279c0.167036,-0.071864 0.349609,-0.135959 0.53801,-0.19617c0.11071,0.380686 0.25638,0.776909 0.437012,1.182845c-0.178689,0.403993 -0.322417,0.798274 -0.431185,1.177018c-0.192285,-0.06021 -0.374859,-0.126248 -0.543837,-0.198112zm1.044943,2.775509c-0.264149,-0.151497 -0.378743,-0.728353 -0.289399,-1.470301c0.021365,-0.182574 0.056326,-0.374859 0.099056,-0.571028c0.380686,0.093229 0.796332,0.165093 1.233344,0.211708c0.262207,0.359321 0.534125,0.685623 0.807986,0.971137c-0.633181,0.588509 -1.227517,0.910926 -1.63151,0.910926c-0.087402,-0.001942 -0.161209,-0.019423 -0.219477,-0.052441zm4.607073,-1.480013c0.091287,0.741949 -0.021365,1.318804 -0.283572,1.472243c-0.058268,0.034961 -0.134017,0.050499 -0.223361,0.050499c-0.402051,0 -0.998329,-0.320475 -1.63151,-0.9051c0.271918,-0.285514 0.543837,-0.609874 0.802159,-0.969195c0.438954,-0.046615 0.8546,-0.118479 1.235286,-0.21365c0.044672,0.19617 0.079633,0.38457 0.100998,0.565202zm0.747775,-1.295497c-0.167036,0.071864 -0.349609,0.135959 -0.53801,0.19617c-0.11071,-0.380686 -0.25638,-0.776909 -0.437012,-1.182845c0.178689,-0.403993 0.322417,-0.798274 0.431185,-1.177018c0.192285,0.06021 0.374859,0.126248 0.545779,0.198112c0.687565,0.293283 1.132346,0.677854 1.132346,0.98279c-0.001942,0.304937 -0.446723,0.691449 -1.134288,0.98279z" fill="#ffffff"/>
   <circle transform="matrix(0.01942273683448037,0,0,0.01942273683448037,0,0) " id="svg_11" r="45.700001" cy="566.396545" cx="566.246573" fill="#ffffff"/>
  </g>
 </g>
</svg>