<?xml version="1.0" encoding="utf-8"?>
<!-- Generator: Adobe Illustrator 21.0.0, SVG Export Plug-In . SVG Version: 6.00 Build 0)  -->
<svg version="1.1" id="Layer_1" xmlns="http://www.w3.org/2000/svg" xmlns:xlink="http://www.w3.org/1999/xlink" x="0px" y="0px"
	 viewBox="0 0 22 22" style="enable-background:new 0 0 22 22;" width="22" height="22" xml:space="preserve">
<style type="text/css">
	.st0{fill:#FFFFFF;}
</style>
<g>
	<g>
		<path class="st0" d="M11.2,1.7c5,0,9,4,9,9s-4,9-9,9c-1.5,0-3-0.4-4.4-1.1l-0.3-0.2l-0.3,0.1l-3.9,1.2l1.3-3.7l0.1-0.4l-0.2-0.3
			c-0.8-1.4-1.3-3-1.3-4.6C2.2,5.8,6.2,1.7,11.2,1.7 M11.2,0.9c-5.4,0-9.8,4.4-9.8,9.8c0,1.8,0.5,3.5,1.4,5.1L1,21.1l5.4-1.7
			c1.5,0.8,3.1,1.2,4.8,1.2c5.4,0,9.8-4.4,9.8-9.8C21,5.3,16.6,0.9,11.2,0.9L11.2,0.9z"/>
	</g>
	<path class="st0" d="M16.3,13.3c0,0.1,0,0.1,0,0.2c0,0.3-0.1,0.7-0.2,1c-0.3,0.7-1.5,1.2-2.3,1.2c-0.6,0-1.9-0.5-2.5-0.8
		c-1.9-0.8-3-2.3-4.1-3.9c-0.5-0.7-0.9-1.6-0.9-2.5V8.3c0-0.9,0.3-1.5,1-2.1C7.4,6,7.6,5.9,7.9,5.9c0.2,0,0.3,0,0.5,0
		c0.4,0,0.4,0.1,0.5,0.4c0.1,0.2,0.8,2,0.8,2.1c0,0.5-0.9,1.1-0.9,1.4c0,0.1,0,0.1,0.1,0.2c0.3,0.6,0.8,1.3,1.3,1.8
		c0.6,0.6,1.2,1,2,1.3c0.1,0.1,0.2,0.1,0.3,0.1c0.4,0,1-1.3,1.4-1.3C14,12,16.2,13.1,16.3,13.3z"/>
</g>
</svg>
