<svg xmlns="http://www.w3.org/2000/svg" width="116" height="116" viewBox="0 0 116 116">
    <g fill="none" fill-rule="nonzero">
        <path fill="#A4C2F7" d="M28.072 79.072v14.571h-3.643c-.671 0-1.215-.543-1.215-1.214V80.286c0-.67.544-1.214 1.215-1.214h3.643z"/>
        <path fill="#FFF" d="M42.643 80.286V92.43c0 .67-.544 1.214-1.214 1.214H28.072V79.072h13.357c.67 0 1.214.543 1.214 1.214zM68.143 80.286V92.43c0 .67-.543 1.214-1.214 1.214H53.572V79.072h13.357c.67 0 1.214.543 1.214 1.214z"/>
        <path fill="#A4C2F7" d="M53.572 79.072v14.571h-3.643c-.67 0-1.214-.543-1.214-1.214V80.286c0-.67.543-1.214 1.214-1.214h3.643zM79.072 79.072v14.571h-3.643c-.67 0-1.214-.543-1.214-1.214V80.286c0-.67.543-1.214 1.214-1.214h3.643z"/>
        <path fill="#FFF" d="M93.643 80.286V92.43c0 .67-.543 1.214-1.214 1.214H79.072V79.072h13.357c.67 0 1.214.543 1.214 1.214z"/>
        <path fill="#D4E1F4" d="M93.688 30.257v34.634a2.294 2.294 0 0 1-2.473 2.038H24.472A2.294 2.294 0 0 1 22 64.891V30.257h71.688z"/>
        <path fill="#FFF" d="M89.981 30.257v34.634a2.294 2.294 0 0 1-2.472 2.038H24.472A2.294 2.294 0 0 1 22 64.891V30.257h67.981z"/>
        <path fill="#A4C2F7" d="M93.688 26.177v6.113H22v-6.113a2.294 2.294 0 0 1 2.472-2.037h66.743a2.294 2.294 0 0 1 2.473 2.037z"/>
        <path fill="#FFF" d="M89.981 26.177v6.113H22v-6.113a2.294 2.294 0 0 1 2.472-2.037H87.51c1.24-.105 2.337.8 2.472 2.037z"/>
        <path fill="#D4E1F4" d="M29.286 40.214h58.286c.67 0 1.214.544 1.214 1.215v3.643c0 .67-.543 1.214-1.214 1.214H29.286c-.67 0-1.214-.544-1.214-1.214v-3.643c0-.67.543-1.215 1.214-1.215zM29.286 52.357h17c.67 0 1.214.544 1.214 1.215v3.643c0 .67-.544 1.214-1.214 1.214h-17c-.67 0-1.214-.544-1.214-1.214v-3.643c0-.67.543-1.215 1.214-1.215zM53.572 52.357h34c.67 0 1.214.544 1.214 1.215v3.643c0 .67-.543 1.214-1.214 1.214h-34c-.67 0-1.215-.544-1.215-1.214v-3.643c0-.67.544-1.215 1.215-1.215z"/>
        <path fill="#FFF" d="M29.286 40.214h54.643c.67 0 1.214.544 1.214 1.215v3.643c0 .67-.543 1.214-1.214 1.214H29.286c-.67 0-1.214-.544-1.214-1.214v-3.643c0-.67.543-1.215 1.214-1.215zM29.286 52.357h13.357c.67 0 1.214.544 1.214 1.215v3.643c0 .67-.543 1.214-1.214 1.214H29.286c-.67 0-1.214-.544-1.214-1.214v-3.643c0-.67.543-1.215 1.214-1.215zM53.572 52.357h30.357c.67 0 1.214.544 1.214 1.215v3.643c0 .67-.543 1.214-1.214 1.214H53.572c-.67 0-1.215-.544-1.215-1.214v-3.643c0-.67.544-1.215 1.215-1.215z"/>
        <path fill="#FFF" d="M25.643 66.929h3.643a2.315 2.315 0 0 1-2.473-2.096V25.02a2.313 2.313 0 0 1 2.473-2.095h-3.643a2.313 2.313 0 0 0-2.472 2.095v39.813a2.315 2.315 0 0 0 2.472 2.096zM28.072 79.072h-3.643c-.671 0-1.215.543-1.215 1.214V92.43c0 .67.544 1.214 1.215 1.214h3.643c-.671 0-1.215-.543-1.215-1.214V80.286c0-.67.544-1.214 1.215-1.214z"/>
        <path fill="#FFF" d="M22 64.5V25.643h2.429V64.5z"/>
        <path fill="#428DFF" d="M22.753 55.903a.77.77 0 0 0 .218.073c.08.014.162.022.243.024.322-.004.63-.13.863-.352.11-.116.196-.252.255-.4a1.24 1.24 0 0 0-.255-1.324 1.254 1.254 0 0 0-.401-.255 1.217 1.217 0 0 0-.462-.097c-.321.004-.629.13-.862.352a1.231 1.231 0 0 0 0 1.724l.182.146a.924.924 0 0 0 .219.11z"/>
        <path fill="#4C84FF" d="M32.929 85.143a1.214 1.214 0 0 1 0-2.428h4.857a1.214 1.214 0 0 1 0 2.428h-4.857zm2.428 2.429a1.214 1.214 0 1 1 0 2.428H32.93a1.214 1.214 0 1 1 0-2.428h2.428zm21.858-3.643c0-.67.543-1.214 1.214-1.214h4.857a1.214 1.214 0 1 1 0 2.428h-4.857c-.67 0-1.214-.543-1.214-1.214zm3.642 3.643a1.214 1.214 0 1 1 0 2.428H58.43a1.214 1.214 0 0 1 0-2.428h2.428zm21.858-3.643c0-.67.544-1.214 1.214-1.214h4.857a1.214 1.214 0 1 1 0 2.428H83.93c-.67 0-1.214-.543-1.214-1.214zm3.643 3.643a1.214 1.214 0 1 1 0 2.428h-2.429a1.214 1.214 0 1 1 0-2.428h2.429zM30.5 26.857a1.214 1.214 0 1 1 0 2.429h-1.214a1.214 1.214 0 0 1 0-2.429H30.5zm6.072 0a1.214 1.214 0 0 1 0 2.429h-1.215a1.214 1.214 0 0 1 0-2.429h1.215zm6.071 0a1.214 1.214 0 0 1 0 2.429H41.43a1.214 1.214 0 0 1 0-2.429h1.214zm44.93 0a1.214 1.214 0 0 1 0 2.429h-1.215a1.214 1.214 0 0 1 0-2.429h1.214z"/>
        <path fill="#4C84FF" d="M91.215 22H25.643A3.643 3.643 0 0 0 22 25.643v24.286a1.214 1.214 0 0 0 2.428 0V34.143H92.43V64.5c0 .671-.544 1.215-1.214 1.215H25.643c-.67 0-1.214-.544-1.214-1.215v-4.857a1.214 1.214 0 0 0-2.429 0V64.5a3.643 3.643 0 0 0 3.643 3.643h31.572v3.643H32.957a2.444 2.444 0 0 0-2.457 2.429v3.643H24.43A2.429 2.429 0 0 0 22 80.286V92.43a2.429 2.429 0 0 0 2.429 2.429h17a2.429 2.429 0 0 0 2.428-2.429V80.286a2.429 2.429 0 0 0-2.428-2.428h-8.493l.02-3.643h24.259v3.643h-7.286a2.429 2.429 0 0 0-2.429 2.428V92.43a2.429 2.429 0 0 0 2.429 2.429h17a2.429 2.429 0 0 0 2.429-2.429V80.286a2.429 2.429 0 0 0-2.429-2.428h-7.286v-3.643H83.93v3.643h-8.5a2.429 2.429 0 0 0-2.428 2.428V92.43a2.429 2.429 0 0 0 2.428 2.429h17a2.429 2.429 0 0 0 2.429-2.429V80.286a2.429 2.429 0 0 0-2.429-2.428h-6.071v-3.643a2.444 2.444 0 0 0-2.457-2.429H59.643v-3.643h31.572a3.643 3.643 0 0 0 3.643-3.643V25.643A3.643 3.643 0 0 0 91.215 22zM24.429 80.286h2.428V92.43H24.43V80.286zm17 12.143H29.286V80.286h12.143V92.43zm8.5-12.143h2.428V92.43H49.93V80.286zm17 12.143H54.786V80.286h12.143V92.43zm8.5-12.143h2.429V92.43h-2.429V80.286zm17 12.143H80.286V80.286H92.43V92.43zm-68-60.715v-6.071c0-.67.543-1.214 1.214-1.214h65.572c.67 0 1.214.543 1.214 1.214v6.071h-68z"/>
        <path fill="#4C84FF" d="M90 41.429A2.429 2.429 0 0 0 87.573 39H29.286a2.429 2.429 0 0 0-2.429 2.429v3.643a2.429 2.429 0 0 0 2.429 2.428h58.286A2.429 2.429 0 0 0 90 45.072v-3.643zm-60.714 3.643v-3.643h58.286v3.643H29.286zM26.857 57.215a2.429 2.429 0 0 0 2.429 2.428h17a2.429 2.429 0 0 0 2.429-2.428v-3.643a2.429 2.429 0 0 0-2.429-2.429h-17a2.429 2.429 0 0 0-2.429 2.429v3.643zm2.429-3.643h17v3.643h-17v-3.643zM87.572 51.143h-34a2.429 2.429 0 0 0-2.429 2.429v3.643a2.429 2.429 0 0 0 2.429 2.428h34A2.429 2.429 0 0 0 90 57.215v-3.643a2.429 2.429 0 0 0-2.429-2.429zm-34 6.072v-3.643h34v3.643h-34z"/>
    </g>
</svg>
