<svg xmlns="http://www.w3.org/2000/svg" width="116" height="116" viewBox="0 0 116 116">
    <g fill="none" fill-rule="nonzero">
        <path fill="#FFF" d="M57.289 79v15.83c4.906.625 8.533 2.858 8.533 5.503H43.066c0-2.645 3.627-4.878 8.534-5.504V79h5.689z"/>
        <path fill="#A4C2F7" d="M81.466 29.222a9.948 9.948 0 0 1-9.955 9.956 8.725 8.725 0 0 1-2.12-.242 2.01 2.01 0 0 1-.312-.071l-7.524-9.643a9.96 9.96 0 0 1 7.822-9.728 10.43 10.43 0 0 1 2.134-.227 9.948 9.948 0 0 1 9.956 9.955z"/>
        <path fill="#FFF" d="M77.2 29.222a9.934 9.934 0 0 1-7.808 9.714 2.01 2.01 0 0 1-.313-.071l-7.523-9.643a9.96 9.96 0 0 1 7.822-9.728 9.96 9.96 0 0 1 7.822 9.728z"/>
        <path fill="#A4C2F7" d="M74.355 64.778a19.914 19.914 0 0 1-22.03 19.797c-.057 0-.114-.014-.17-.014a19.885 19.885 0 0 1-14.536-30.407 15.873 15.873 0 0 0 2.603-8.448v-.626c0-1.024-.028-2.034-.1-3.058a35.133 35.133 0 0 0-.127-1.72 36.666 36.666 0 0 0-1.423-6.984l-.654-2.275a1.418 1.418 0 0 1 1.366-1.82h30.321a1.418 1.418 0 0 1 1.366 1.82l-.654 2.275a36.663 36.663 0 0 0-1.423 6.983c-.057.57-.1 1.152-.128 1.721a43.878 43.878 0 0 0-.1 3.058 16.65 16.65 0 0 0 2.575 9.003 19.754 19.754 0 0 1 3.114 10.695z"/>
        <path fill="#FFF" d="M70.089 64.778c-.006 10.163-7.66 18.694-17.764 19.797-.057 0-.114-.014-.17-.014a19.885 19.885 0 0 1-14.536-30.407 15.873 15.873 0 0 0 2.603-8.448v-.626c0-1.024-.028-2.034-.1-3.058a35.133 35.133 0 0 0-.127-1.72 36.666 36.666 0 0 0-1.423-6.984l-.654-2.275a1.418 1.418 0 0 1 1.366-1.82h26.055a1.418 1.418 0 0 1 1.365 1.82l-.654 2.275a36.663 36.663 0 0 0-1.422 6.983c-.057.57-.1 1.152-.128 1.721a43.878 43.878 0 0 0-.1 3.058 16.65 16.65 0 0 0 2.574 9.003 19.754 19.754 0 0 1 3.115 10.695z"/>
        <path fill="#A4C2F7" d="M74.355 64.778a19.914 19.914 0 0 1-22.03 19.797c-.057 0-.114-.014-.17-.014a19.885 19.885 0 0 1-14.536-30.407 15.873 15.873 0 0 0 2.603-8.448v-.626c0-1.024-.028-2.034-.1-3.058h28.644a43.878 43.878 0 0 0-.1 3.058 16.65 16.65 0 0 0 2.575 9.003 19.751 19.751 0 0 1 3.114 10.695z"/>
        <path fill="#FFF" d="M70.089 64.778c-.006 10.163-7.66 18.694-17.764 19.797-.057 0-.114-.014-.17-.014a19.885 19.885 0 0 1-14.536-30.407 15.873 15.873 0 0 0 2.603-8.448v-.626c0-1.024-.028-2.034-.1-3.058H64.5a43.878 43.878 0 0 0-.1 3.058 16.65 16.65 0 0 0 2.575 9.003 19.751 19.751 0 0 1 3.115 10.695zM54.444 22.111V33.49h-5.689v-9.956a1.426 1.426 0 0 0-1.422-1.422h-8.576a1.427 1.427 0 0 1-1.422-1.38l-.071-2.844a1.41 1.41 0 0 1 1.422-1.465h10.07a5.687 5.687 0 0 1 5.688 5.69z"/>
        <path fill="#FFF" d="M48.755 29.222h5.689v12.8h-5.689zM38.757 22.111h4.267a1.427 1.427 0 0 1-1.422-1.38l-.071-2.844a1.41 1.41 0 0 1 1.422-1.465h-4.267a1.41 1.41 0 0 0-1.422 1.465l.071 2.845a1.427 1.427 0 0 0 1.422 1.38zM55.867 84.475a19.872 19.872 0 0 1-13.981-30.321 15.873 15.873 0 0 0 2.603-8.448v-.626c0-1.024-.029-2.034-.1-3.058a35.133 35.133 0 0 0-.128-1.72 36.666 36.666 0 0 0-1.422-6.984l-.654-2.275a1.418 1.418 0 0 1 1.365-1.82h-4.267a1.418 1.418 0 0 0-1.365 1.82l.654 2.275a36.663 36.663 0 0 1 1.422 6.983c.057.57.1 1.152.128 1.721.072 1.024.1 2.034.1 3.058v.626a15.873 15.873 0 0 1-2.603 8.448 19.872 19.872 0 0 0 13.98 30.32h4.268zM73.35 38.86c-.01.145-.017.292-.027.437.168-.064.335-.128.5-.204l-.013-.005a1.77 1.77 0 0 1-.454-.213l-.006-.015z"/>
        <path fill="#4C84FF" d="M36.411 53.392a21.163 21.163 0 0 0-3.112 14.243 21.478 21.478 0 0 0 16.879 18.05v6.508c-5.152.96-8.534 3.574-8.534 6.718a1.422 1.422 0 0 0 1.423 1.422h22.755a1.422 1.422 0 0 0 1.422-1.422c0-3.144-3.381-5.758-8.533-6.718v-6.538A21.313 21.313 0 0 0 72.435 53.31a15.208 15.208 0 0 1-2.346-8.225c0-1.51.074-3.044.217-4.561.4.047.802.072 1.205.076 6.1.005 11.119-4.802 11.377-10.896.258-6.095-4.336-11.309-10.415-11.82-6.078-.51-11.478 3.864-12.24 9.916h-4.366v-5.689A7.12 7.12 0 0 0 48.755 15H38.683a2.845 2.845 0 0 0-2.844 2.923l.079 2.843a2.83 2.83 0 0 0 2.843 2.767h8.572V27.8h-8.057a2.843 2.843 0 0 0-2.729 3.644l.667 2.277a36.15 36.15 0 0 1 1.362 6.712c.149 1.547.224 3.113.224 4.651v.628a14.465 14.465 0 0 1-2.389 7.68zm19.493 40.203c.01.095.028.188.057.279.032.084.073.164.12.24.081.162.203.3.353.4.07.058.145.109.224.151.085.04.174.07.265.09.06.026.122.047.185.063a11.24 11.24 0 0 1 6.615 2.671H45.165a11.24 11.24 0 0 1 6.615-2.67 1.34 1.34 0 0 0 .185-.064c.092-.02.18-.05.266-.09.08-.042.154-.093.224-.15.15-.101.271-.24.352-.401.048-.076.089-.157.12-.24.029-.091.048-.184.057-.279.017-.062.03-.125.038-.188V86.03c.457.03.915.076 1.37.076.494 0 .984-.033 1.474-.067v7.367c.009.064.021.127.039.188zM71.511 20.69a8.533 8.533 0 1 1 0 17.067c-.273 0-.536-.025-.798-.05.253-1.344.574-2.674.962-3.985l.665-2.275a2.843 2.843 0 0 0-2.728-3.646h-6.506a8.54 8.54 0 0 1 8.405-7.111zm-1.9 9.956l-.667 2.275a38.948 38.948 0 0 0-1.462 7.241c-.014.146-.019.293-.032.439H55.866v-9.956h13.745zM50.178 40.6v-9.956h2.844V40.6h-2.844zm-2.845-19.911h-8.57l-.08-2.844h10.072a4.271 4.271 0 0 1 4.267 4.266V27.8h-2.845v-4.267a2.848 2.848 0 0 0-2.844-2.844zm0 9.956V40.6h-5.895c-.012-.146-.017-.294-.031-.44a38.93 38.93 0 0 0-1.463-7.239l-.668-2.276h8.057zm-8.52 24.27a17.296 17.296 0 0 0 2.831-9.202v-.628c0-.544-.022-1.093-.04-1.64h25.68c-.018.547-.04 1.096-.04 1.64a18.049 18.049 0 0 0 2.795 9.758 18.495 18.495 0 0 1-17.722 28.305 18.581 18.581 0 0 1-16.199-15.882 18.362 18.362 0 0 1 2.696-12.351z"/>
        <path fill="#428DFF" d="M43.282 75.73a1.422 1.422 0 0 0 2.028-1.993 12.749 12.749 0 0 1-1.69-15.779 1.422 1.422 0 1 0-2.402-1.522 15.593 15.593 0 0 0 2.064 19.294zM48.183 79.12c.511.226 1.034.422 1.567.59a1.422 1.422 0 1 0 .855-2.712c-.434-.137-.86-.298-1.277-.481a1.422 1.422 0 1 0-1.145 2.604z"/>
    </g>
</svg>
