<svg xmlns="http://www.w3.org/2000/svg" width="116" height="116" viewBox="0 0 116 116">
    <g fill="none" fill-rule="nonzero">
        <path fill="#4C84FF" d="M90.467 79.943h-1.234v-1.235a1.234 1.234 0 1 0-2.468 0v1.235h-1.234a1.234 1.234 0 1 0 0 2.468h1.234v1.234a1.234 1.234 0 1 0 2.468 0V82.41h1.234a1.234 1.234 0 1 0 0-2.468zM85.892 24.044a1.23 1.23 0 0 0 1.746 0l1.595-1.596 1.596 1.596a1.23 1.23 0 0 0 1.745 0 1.233 1.233 0 0 0 0-1.745l-1.596-1.596 1.596-1.596a1.233 1.233 0 1 0-1.745-1.745l-1.596 1.596-1.595-1.596a1.233 1.233 0 1 0-1.746 1.745l1.596 1.596-1.596 1.596a1.233 1.233 0 0 0 0 1.745zM76.892 36.747a1.234 1.234 0 1 0 2.467 0 1.234 1.234 0 0 0-2.467 0zM67.018 29.342a1.234 1.234 0 1 0 .001-2.468 1.234 1.234 0 0 0 0 2.468zM89.233 46.62a1.234 1.234 0 1 0 2.468 0 1.234 1.234 0 0 0-2.468 0zM78.126 51.557a1.234 1.234 0 1 0 2.467 0 1.234 1.234 0 0 0-2.467 0zM97.872 26.874a1.234 1.234 0 1 0 0 2.467 1.234 1.234 0 0 0 0-2.467z"/>
        <path fill="#FFF" d="M54.845 38.01a1.395 1.395 0 0 0-1.02.816L29.383 93c-.226.524-5.24 1.135-4.835 1.538a1.39 1.39 0 0 0 1.54.294l16.416-6.366 8.266-3.57a113443.743 113443.743 0 0 0 20.834-8.997c.012-.004 4.265-1.84 12.76-5.51a1.392 1.392 0 0 0 .433-2.265C65.131 47.99 55.147 37.953 54.845 38.009z"/>
        <path fill="#A4C2F7" d="M81.366 65.002a1.395 1.395 0 0 0-1.02.817L31.504 89.2c-.226.524-1.24 2.17-3.879 4.313-2.638 2.143-2.454 1.435-2.092 1.435.187 0 .375-.037.554-.115l16.417-6.366 8.266-3.57a113443.743 113443.743 0 0 0 20.834-8.997c.012-.004 4.265-1.84 12.76-5.51a1.392 1.392 0 0 0 .433-2.265c-1.985-2.138-3.13-3.178-3.431-3.122z"/>
        <path fill="#4C84FF" stroke="#4C84FF" stroke-width=".3" d="M98.781 35.644c-14.546 0-26.369 13.96-28.63 16.809l-5.41-5.411c6.05-4.076 7.415-7.991 7.473-8.169a1.387 1.387 0 0 0-.87-1.752 1.4 1.4 0 0 0-1.77.857c-.013.037-1.28 3.443-6.847 7.051l-4.969-4.97c2.608-3.068 3.373-11.532 3.373-16.965a1.394 1.394 0 1 0-2.789 0c0 8.408-1.508 13.75-2.492 15.057l-4.888-4.888a1.395 1.395 0 0 0-2.266.434L34.198 67.27l-.007.016-11.99 27.766a1.394 1.394 0 0 0 1.834 1.832l19.495-8.418.044-.02 8.222-3.55.032-.014 12.542-5.416c.012-.004.023-.01.035-.015L72.63 75.9c.017-.006.034-.014.05-.021l12.71-5.489a1.392 1.392 0 0 0 .433-2.265l-6.42-6.42c.918-1.482 6.207-3.75 15.196-3.75a1.394 1.394 0 1 0 0-2.788c-7.266 0-14.604 1.558-17.17 4.563l-5.29-5.29c1.343-1.713 12.967-16.006 26.643-16.006a1.394 1.394 0 1 0 0-2.79zm-34.61 40.871l-21.6-21.601 2.379-5.51 24.731 24.732-5.51 2.38zm-12.575 5.43L37.141 67.49l4.24-9.822 20.036 20.036-9.82 4.241zm-8.263 3.568l-9.76-9.76 2.378-5.51 12.891 12.892-5.51 2.378zm-10.95-7.006l8.196 8.196-14.425 6.228 6.229-14.424zm40.052-5.56L46.14 46.65l4.303-9.963 4.125 4.125 6.992 6.992.003.002 15.306 15.306.021.021 5.51 5.51-9.964 4.303z"/>
        <path fill="#4C84FF" d="M73.178 35.507h.011a1.24 1.24 0 0 0 1.234-1.218c.003-.175.137-4.33 5.572-7.591a1.234 1.234 0 0 0-1.27-2.117c-6.692 4.016-6.77 9.467-6.77 9.697a1.23 1.23 0 0 0 1.223 1.23zM28.76 24.405a3.707 3.707 0 0 1 3.702 3.703 1.234 1.234 0 1 0 2.468 0 3.707 3.707 0 0 1 3.703-3.703 1.234 1.234 0 1 0 0-2.468 3.707 3.707 0 0 1-3.703-3.702 1.234 1.234 0 1 0-2.468 0 3.707 3.707 0 0 1-3.703 3.702 1.234 1.234 0 1 0 0 2.468zm4.936-2.472c.352.468.769.886 1.238 1.238-.47.352-.886.77-1.238 1.238a6.224 6.224 0 0 0-1.238-1.238c.47-.352.886-.77 1.238-1.238z"/>
    </g>
</svg>
