<svg xmlns="http://www.w3.org/2000/svg" width="116" height="116" viewBox="0 0 116 116">
    <g fill="none" fill-rule="nonzero">
        <g transform="translate(21.185 21.185)">
            <path fill="#A4C2F7" d="M68.346 39.117c-.002 18.851-15.283 34.132-34.133 34.134-.633 0-1.265-.013-1.897-.063C14.231 72.187.08 57.23.08 39.118c0-18.113 14.152-33.07 32.237-34.07.632-.051 1.264-.064 1.897-.064a34.128 34.128 0 0 1 34.133 34.133z"/>
            <ellipse cx="32.316" cy="39.117" fill="#FFF" rx="32.237" ry="34.07"/>
            <g fill="#FFF">
                <path d="M39.266 46.125a3.843 3.843 0 0 0-2.525 3.71c0 1.331 1.48 1.974 2.397 2.638 1.666 1.207 1.734 2.422 1.176 4.345a35.533 35.533 0 0 0-1.04 8.343c-.044 1.004.134 2.206 1.379 2.29a2.693 2.693 0 0 0 1.883-.78c1.824-1.597 2.58-3.891 4.25-5.592 2.212-2.251 6.39-3.83 6.39-7.546 0-6.166-8.949-9.565-13.91-7.408zM45.4 24.339c-2.085 3.35-5.764 5.5-9.101 7.42a1.884 1.884 0 0 0-.696.557c-.202.401-.23.868-.076 1.29.595 2.414 3.022 5.082 1.404 7.61-1.189 1.871-3.363 1.163-3.983-.746a4.152 4.152 0 0 0-2.528-2.68v-3.578a3.788 3.788 0 0 0-3.793-3.792h-8.546a48.874 48.874 0 0 1-.316-5.297 4.576 4.576 0 0 0-.265-1.492 2.718 2.718 0 0 0-1.568-1.327c-3.274-1.441-7.597-.923-11.15-.304A34.077 34.077 0 0 1 27.31 5.844c-.897 1.188-2.2 3.565.582 4.526 3.792 1.314 5.056 2.617 3.792 6.548-1.264 3.92 5.057 5.234 6.321 1.302a2.883 2.883 0 0 1 2.529-2.313 4.06 4.06 0 0 1 2.705.96c.917.763 1.71 1.663 2.352 2.668a4.278 4.278 0 0 1-.19 4.804zM73.403 3.872v18.963a3.788 3.788 0 0 1-3.793 3.792h-3.793L55.704 36.741V26.627a3.788 3.788 0 0 1-3.793-3.792V3.872A3.788 3.788 0 0 1 55.704.079H69.61a3.788 3.788 0 0 1 3.793 3.793z"/>
            </g>
            <path fill="#A4C2F7" d="M30.42 34.212v18.963a3.788 3.788 0 0 1-3.793 3.793V67.08L16.514 56.968H12.72a3.788 3.788 0 0 1-3.792-3.793V34.212a3.788 3.788 0 0 1 3.792-3.792h13.906a3.788 3.788 0 0 1 3.793 3.792z"/>
            <path fill="#FFF" d="M26.627 34.212v18.963a3.788 3.788 0 0 1-3.792 3.793v6.32l-6.321-6.32H12.72a3.788 3.788 0 0 1-3.792-3.793V34.212a3.788 3.788 0 0 1 3.792-3.792h10.114a3.788 3.788 0 0 1 3.792 3.792z"/>
            <path fill="#A4C2F7" d="M73.403 3.872v18.963a3.788 3.788 0 0 1-3.793 3.792h-3.793a3.788 3.788 0 0 0 3.793-3.792V3.872A3.788 3.788 0 0 0 65.817.079h3.793a3.788 3.788 0 0 1 3.793 3.793z"/>
        </g>
        <path fill="#FFF" d="M57.294 94.373c-.632.05-1.264.063-1.896.063-.632 0-1.264-.013-1.897-.063-18.085-1-32.237-15.957-32.237-34.07s14.152-33.07 32.237-34.07c.633-.051 1.265-.064 1.897-.064.632 0 1.264.013 1.896.063-18.085 1.001-32.237 15.958-32.237 34.07 0 18.114 14.152 33.07 32.237 34.07z"/>
        <path fill="#FFF" d="M20 60.454a36.267 36.267 0 0 1 4.04-16.39 35.21 35.21 0 0 1 5.579-7.815c.272-.294.534-.6.816-.885l.89-.81c.603-.53 1.171-1.102 1.802-1.597a36.2 36.2 0 0 1 3.95-2.749 35.564 35.564 0 0 1 18.32-5.151v2.528A33.03 33.03 0 0 0 38.39 32.37a33.692 33.692 0 0 0-3.67 2.55c-.586.46-1.112.994-1.672 1.485l-.828.752c-.263.265-.504.55-.758.823a32.685 32.685 0 0 0-5.18 7.257 33.736 33.736 0 0 0-3.752 15.217H20z"/>
        <path fill="#428DFF" d="M21.808 51.316c.056.065.12.123.191.172.06.054.128.099.201.132.077.035.157.065.238.09.322.08.663.038.956-.117.139-.082.26-.19.357-.318a1.37 1.37 0 0 0 .144-1.354 1.309 1.309 0 0 0-.305-.377 1.28 1.28 0 0 0-.42-.251 1.322 1.322 0 0 0-.978.06 1.29 1.29 0 0 0-.648.763c-.083.337-.04.692.12 1l.144.2zM56.662 71.02a4.12 4.12 0 0 0 2.407 3.32c.181.117.356.23.513.343 1.05.761 1.182 1.315.703 2.968a36.52 36.52 0 0 0-1.088 8.639c-.142 3.177 1.92 3.565 2.554 3.608.07.005.14.007.209.007a3.969 3.969 0 0 0 2.593-1.097 14.056 14.056 0 0 0 2.565-3.264 14.04 14.04 0 0 1 1.755-2.394 18.233 18.233 0 0 1 2.114-1.721c2.066-1.53 4.638-3.432 4.638-6.71a8.493 8.493 0 0 0-4.246-7.09c-3.483-2.283-8.186-2.892-11.432-1.478a5.098 5.098 0 0 0-3.285 4.87zm4.293-2.55a7.438 7.438 0 0 1 2.946-.551c2.162.02 4.274.654 6.092 1.825a6.214 6.214 0 0 1 3.103 4.974c0 2.004-1.755 3.303-3.613 4.678a20.277 20.277 0 0 0-2.414 1.983 16.154 16.154 0 0 0-2.088 2.813 11.97 11.97 0 0 1-2.094 2.714c-.274.282-.645.45-1.038.468-.002-.002-.16-.207-.126-.971.013-2.712.346-5.413.99-8.047.564-1.944.754-3.981-1.648-5.721a14.424 14.424 0 0 0-.625-.42c-.708-.456-1.25-.834-1.25-1.195a2.574 2.574 0 0 1 1.765-2.55z"/>
        <path fill="#4C84FF" d="M90.795 20H76.89a5.063 5.063 0 0 0-5.057 5.057v4.048a35.349 35.349 0 0 0-16.434-4.048c-2.299.034-4.59.272-6.846.713-.02-.001-.036-.011-.057-.011a1.244 1.244 0 0 0-.558.136 33.61 33.61 0 0 0-10.86 4.313 36.2 36.2 0 0 0-3.95 2.749c-.63.495-1.2 1.066-1.801 1.597l-.89.81c-.283.285-.545.59-.817.885a31.947 31.947 0 0 0-4.56 6.059 1.242 1.242 0 0 0-.293.505c-.244.417-.493.83-.725 1.251l-.57 1.18a1.225 1.225 0 0 0 .592 1.684 1.316 1.316 0 0 0 1.69-.594l.527-1.097c.17-.306.352-.605.528-.908 3.36-.555 7.056-.892 9.809.32.535.231.805.43.897.643.113.347.172.71.174 1.075.02.434.032.89.044 1.358.022.82.065 1.714.138 2.616h-3.964a5.063 5.063 0 0 0-5.056 5.056V74.36a5.063 5.063 0 0 0 5.056 5.057h3.27l9.743 9.743a1.264 1.264 0 0 0 2.158-.894v-9.029a5.052 5.052 0 0 0 3.792-4.877V61.904c.019.05.045.09.062.141a3.802 3.802 0 0 0 3.023 2.691c.13.017.26.025.39.025a3.377 3.377 0 0 0 2.836-1.678c1.504-2.35.424-4.695-.443-6.58a12.092 12.092 0 0 1-.802-2.035 1.467 1.467 0 0 1-.052-.29c.064-.042.159-.096.232-.137 3.235-1.863 7.26-4.181 9.541-7.845a5.546 5.546 0 0 0 .182-6.161 12.775 12.775 0 0 0-2.632-2.977 5.304 5.304 0 0 0-3.557-1.229 4.085 4.085 0 0 0-3.662 3.19 2.035 2.035 0 0 1-1.578 1.438 2.319 2.319 0 0 1-2.138-.559 1.34 1.34 0 0 1-.198-1.408c1.583-4.922-.481-6.708-4.583-8.13-.266-.092-.724-.287-.81-.569a2.396 2.396 0 0 1 .539-1.572c2.037-.387 4.105-.6 6.179-.634 5.771 0 11.44 1.525 16.434 4.418V44.02a5.052 5.052 0 0 0 3.793 4.877v9.029a1.264 1.264 0 0 0 2.158.894l8.786-8.787a32.868 32.868 0 1 1-64.04 10.421c.028-1.623.16-3.243.398-4.849a1.303 1.303 0 0 0-1.06-1.435 1.237 1.237 0 0 0-1.441 1.065 40.216 40.216 0 0 0-.426 5.22 35.398 35.398 0 1 0 68.917-11.379h1.878a5.062 5.062 0 0 0 5.057-5.056V25.057A5.062 5.062 0 0 0 90.795 20zM47.813 76.889c-.699 0-1.265.566-1.265 1.264v7.062l-7.955-7.956a1.25 1.25 0 0 0-.945-.36c-.017 0-.033-.01-.05-.01h-3.692a2.531 2.531 0 0 1-2.528-2.529V55.397a2.531 2.531 0 0 1 2.528-2.528h13.907a2.531 2.531 0 0 1 2.528 2.528V74.36a2.531 2.531 0 0 1-2.528 2.529zm-1.551-46.361a3.458 3.458 0 0 0 2.4 2.221c3.482 1.207 3.96 1.997 3.004 4.966a3.815 3.815 0 0 0 .73 3.88 4.816 4.816 0 0 0 4.545 1.335 4.558 4.558 0 0 0 3.452-3.136c.448-1.388 1.136-1.426 1.407-1.44.673 0 1.324.243 1.832.684a10.305 10.305 0 0 1 2.084 2.371 3.013 3.013 0 0 1-.203 3.447c-1.949 3.13-5.514 5.182-8.66 6.993a3.004 3.004 0 0 0-1.122.96c-.41.689-.5 1.523-.246 2.284.24.85.56 1.676.955 2.467.852 1.852 1.318 3.055.608 4.163-.234.37-.489.54-.777.505a1.294 1.294 0 0 1-.935-.962 5.338 5.338 0 0 0-2.467-3.044v-2.825a5.063 5.063 0 0 0-5.057-5.056h-7.404c-.08-.89-.125-1.793-.148-2.683-.013-.485-.025-.957-.047-1.413a5.703 5.703 0 0 0-.366-1.924 3.893 3.893 0 0 0-2.22-1.99 17.618 17.618 0 0 0-9.065-.809 26.036 26.036 0 0 1 2.899-3.542c.253-.274.495-.559.757-.823l.829-.752c.56-.492 1.086-1.025 1.672-1.484a33.65 33.65 0 0 1 3.67-2.552 30.438 30.438 0 0 1 7.812-3.436 3.325 3.325 0 0 0 .06 1.595zM93.324 44.02a2.531 2.531 0 0 1-2.529 2.528h-3.792a1.26 1.26 0 0 0-.894.37l-7.956 7.956v-7.062c0-.698-.566-1.264-1.264-1.264a2.531 2.531 0 0 1-2.528-2.528V25.057a2.531 2.531 0 0 1 2.528-2.529h13.906a2.531 2.531 0 0 1 2.529 2.529V44.02z"/>
        <path fill="#4C84FF" d="M88.267 27.585h-8.85a1.264 1.264 0 0 0 0 2.528h8.85a1.264 1.264 0 0 0 0-2.528zM88.267 32.642h-8.85a1.264 1.264 0 0 0 0 2.528h8.85a1.264 1.264 0 0 0 0-2.528zM88.267 37.699h-8.85a1.264 1.264 0 0 0 0 2.528h8.85a1.264 1.264 0 0 0 0-2.528zM45.284 57.926h-8.85a1.264 1.264 0 0 0 0 2.528h8.85a1.264 1.264 0 1 0 0-2.528zM45.284 62.983h-8.85a1.264 1.264 0 1 0 0 2.528h8.85a1.264 1.264 0 1 0 0-2.528zM45.284 68.04h-8.85a1.264 1.264 0 1 0 0 2.528h8.85a1.264 1.264 0 1 0 0-2.528z"/>
    </g>
</svg>
