<svg xmlns="http://www.w3.org/2000/svg" width="116" height="116" viewBox="0 0 116 116">
    <g fill="none" fill-rule="nonzero">
        <circle cx="27.436" cy="95.698" r="2.761" fill="#E7EBF4"/>
        <circle cx="85.423" cy="95.698" r="2.761" fill="#E7EBF4"/>
        <circle cx="52.288" cy="95.698" r="2.761" fill="#E7EBF4"/>
        <circle cx="63.333" cy="95.698" r="2.761" fill="#E7EBF4"/>
        <circle cx="63.333" cy="84.653" r="2.761" fill="#E7EBF4"/>
        <path fill="#A4C2F7" d="M96.468 57.04c-.003 7.624-6.182 13.804-13.806 13.807H78.52c7.625 0 13.806-6.182 13.806-13.807S86.145 43.234 78.52 43.234h-.166l.014-.207c.106-.847.157-1.7.152-2.554.006-11.4-8.669-20.93-20.02-21.994.689-.067 1.38-.1 2.072-.096a22.084 22.084 0 0 1 22.09 22.09c.005.854-.046 1.707-.152 2.554l-.014.207h.166c7.624.003 13.803 6.183 13.806 13.806z"/>
        <path fill="#FFF" d="M92.326 57.04c-.003 7.624-6.182 13.804-13.806 13.807H30.198a13.8 13.8 0 0 1-3.687-27.102 7.577 7.577 0 0 1 5.08-9.885 7.196 7.196 0 0 1 2.058-.29 7.115 7.115 0 0 1 1.726.207 7.494 7.494 0 0 1 3.603 1.988 22.104 22.104 0 0 1 19.523-17.286c11.35 1.064 20.024 10.594 20.019 21.994.005.854-.046 1.707-.152 2.554l-.014.207h.166c7.624.003 13.803 6.183 13.806 13.806z"/>
        <path fill="#FFF" d="M46.765 41.854h19.329v19.329H46.765z"/>
        <path fill="#E7EBF4" d="M55.049 48.757h2.761c.763 0 1.38.618 1.38 1.38V52.9a1.38 1.38 0 0 1-1.38 1.38H55.05a1.38 1.38 0 0 1-1.38-1.38v-2.762c0-.762.618-1.38 1.38-1.38z"/>
        <path fill="#FFF" d="M43.12 35.765a22.102 22.102 0 0 1 19.48-17.28 22.29 22.29 0 0 0-2.029-.102 22.1 22.1 0 0 0-21.053 15.395 7.492 7.492 0 0 1 3.602 1.987zM30.198 70.847h4.141a13.8 13.8 0 0 1-3.686-27.102 7.575 7.575 0 0 1 5.041-9.87c-.108-.03-.21-.073-.32-.098a7.122 7.122 0 0 0-1.725-.207 7.197 7.197 0 0 0-2.057.29 7.577 7.577 0 0 0-5.08 9.885 13.8 13.8 0 0 0 3.686 27.102z"/>
        <path fill="#FFF" d="M30.198 72.228a15.181 15.181 0 0 1-4.05-29.815l.726 2.664a12.422 12.422 0 0 0 3.324 24.39v2.76z"/>
        <path fill="#4C84FF" d="M82.662 72.228c8.126.002 14.813-6.395 15.172-14.513.358-8.119-5.74-15.08-13.834-15.794.028-.46.042-.94.042-1.448-.003-11.585-8.456-21.436-19.907-23.198-11.45-1.762-22.474 5.092-25.96 16.14a8.94 8.94 0 0 0-13.33 9.422c-7.355 2.763-11.38 10.688-9.271 18.256.128.49.288.971.477 1.441a1.334 1.334 0 0 0 1.85.759 1.455 1.455 0 0 0 .723-1.76 9.408 9.408 0 0 1-.39-1.177 12.397 12.397 0 0 1 8.64-15.28l-.005-.016c.038-.01.075-.003.113-.017a1.382 1.382 0 0 0 .828-1.768 6.206 6.206 0 0 1 10.198-6.529 1.381 1.381 0 0 0 2.32-.689c2.258-10.335 11.94-17.308 22.459-16.174 10.518 1.134 18.491 10.01 18.494 20.59a18.9 18.9 0 0 1-.15 2.464l-.005.126a20.715 20.715 0 0 1-3.428 9.058 1.38 1.38 0 0 0 2.28 1.555 23.52 23.52 0 0 0 3.689-9.01c6.642.539 11.675 6.224 11.405 12.882-.27 6.659-5.746 11.918-12.41 11.918H30.198c-1.663 0-3.309-.333-4.84-.98a1.426 1.426 0 0 0-1.78.669 1.353 1.353 0 0 0 .702 1.874 15.225 15.225 0 0 0 5.917 1.198h1.381v7.713l-5.118 5.118a1.38 1.38 0 0 0-.404.976v5.777a4.142 4.142 0 1 0 2.76 0v-5.205l5.119-5.118a1.38 1.38 0 0 0 .404-.977v-8.283h4.142v8.283a1.38 1.38 0 1 0 2.761 0v-8.283h4.142v5.522c0 .366.146.717.405.976l5.118 5.118v7.967a4.142 4.142 0 1 0 2.76 0v-8.538c0-.366-.145-.718-.404-.976l-5.118-5.119v-4.95h9.093l4.714 4.713v3.825a4.117 4.117 0 0 0 0 7.774v3.27a4.142 4.142 0 1 0 2.76 0v-3.27a4.117 4.117 0 0 0 0-7.775V76.37c0-.366-.145-.717-.404-.976l-3.165-3.166h10.473v12.426a1.38 1.38 0 1 0 2.761 0V72.227h4.142v6.903c0 .367.146.718.405.977l5.118 5.118v6.586a4.142 4.142 0 1 0 2.76 0v-7.158c0-.366-.145-.717-.404-.976l-5.118-5.118v-6.332h1.382zM27.436 97.079a1.38 1.38 0 1 1 0-2.761 1.38 1.38 0 0 1 0 2.761zm24.852 0a1.38 1.38 0 1 1 0-2.761 1.38 1.38 0 0 1 0 2.761zm11.045 0a1.38 1.38 0 1 1 0-2.761 1.38 1.38 0 0 1 0 2.761zm0-11.045a1.38 1.38 0 1 1 0-2.761 1.38 1.38 0 0 1 0 2.76zm22.09 11.045a1.38 1.38 0 1 1 0-2.761 1.38 1.38 0 0 1 0 2.761z"/>
        <path fill="#51A1FF" d="M20.624 68.017a.946.946 0 0 0 .26-.1.805.805 0 0 0 .223-.133c.071-.06.138-.123.2-.192.227-.283.353-.636.356-1a1.347 1.347 0 0 0-.112-.494 1.3 1.3 0 0 0-1.162-.805 1.77 1.77 0 0 0-.525.078c-.172.05-.333.132-.475.241-.29.232-.47.574-.5.944a1.6 1.6 0 0 0 .419 1.055c.276.282.654.441 1.048.442l.268-.036z"/>
        <path fill="#4C84FF" d="M55.049 47.376a2.765 2.765 0 0 0-2.761 2.761V52.9a2.765 2.765 0 0 0 2.761 2.761h2.761a2.765 2.765 0 0 0 2.762-2.761v-2.762a2.765 2.765 0 0 0-2.762-2.76H55.05zm0 5.523v-2.762h2.761l.002 2.762h-2.763z"/>
        <path fill="#4C84FF" d="M44.004 58.421a1.38 1.38 0 1 0 0 2.761h2.761v2.762a1.38 1.38 0 0 0 2.761 0v-2.762h2.762v2.762a1.38 1.38 0 0 0 2.76 0v-2.762h2.762v2.762a1.38 1.38 0 1 0 2.761 0v-2.762h2.762v2.762a1.38 1.38 0 1 0 2.76 0v-2.762h2.762a1.38 1.38 0 1 0 0-2.76h-2.761V55.66h2.761a1.38 1.38 0 0 0 0-2.761h-2.761v-2.762h2.761a1.38 1.38 0 0 0 0-2.76h-2.761v-2.762h2.761a1.38 1.38 0 0 0 0-2.761h-2.761v-2.762a1.38 1.38 0 1 0-2.761 0v2.762H60.57v-2.762a1.38 1.38 0 1 0-2.76 0v2.762h-2.762v-2.762a1.38 1.38 0 1 0-2.761 0v2.762h-2.762v-2.762a1.38 1.38 0 0 0-2.76 0v2.762h-2.762a1.38 1.38 0 0 0 0 2.76h2.761v2.762h-2.761a1.38 1.38 0 1 0 0 2.761h2.761V52.9h-2.761a1.38 1.38 0 0 0 0 2.76h2.761v2.762h-2.761zm19.329 0H49.527V44.615h13.806V58.42zM41.243 91.556v-5.522a1.38 1.38 0 0 0-2.762 0v5.522a1.38 1.38 0 1 0 2.762 0zM74.378 91.556v-1.38a1.38 1.38 0 1 0-2.761 0v1.38a1.38 1.38 0 1 0 2.76 0z"/>
    </g>
</svg>
