<svg xmlns="http://www.w3.org/2000/svg" width="116" height="116" viewBox="0 0 116 116">
    <g fill="none" fill-rule="nonzero">
        <path fill="#A4C2F7" d="M94.59 28.832V55.33c0 .697-.564 1.261-1.261 1.261h-7.57c-.698 0-1.262.565-1.262 1.262v6.309l-7.57-7.57H45.382a1.262 1.262 0 0 1-1.262-1.262V27.57h49.208c.697 0 1.261.564 1.261 1.261z"/>
        <path fill="#FFF" d="M90.805 28.832V55.33c0 .697-.565 1.261-1.261 1.261h-7.57c-.698 0-1.263.565-1.263 1.262v2.524l-3.785-3.786H45.383a1.262 1.262 0 0 1-1.262-1.261V27.57h45.423c.696 0 1.261.564 1.261 1.261z"/>
        <path fill="#A4C2F7" d="M41.597 92.6v1.363a.467.467 0 0 1-.454.48h-19.28a.467.467 0 0 1-.453-.48v-1.45a3.872 3.872 0 0 1 1.918-3.37l4.088-2.321c.544-.315.876-.898.87-1.527v-1.274a9.526 9.526 0 0 1-1.653-3.57 1.476 1.476 0 0 1-.63-1.212v-1.905c0-.4.164-.784.454-1.06V73.51a3.785 3.785 0 0 1 3.154-4.089 7.52 7.52 0 0 1 1.893-.214c5.59 0 5.046 4.303 5.046 4.303v2.763c.29.276.454.659.455 1.06v1.905a1.438 1.438 0 0 1-.972 1.375 10.79 10.79 0 0 1-1.363 2.851c-.125.195-.264.38-.416.556v1.312c-.002.65.351 1.25.921 1.564l4.39 2.284a3.826 3.826 0 0 1 2.032 3.42zM94.59 92.6v1.363a.467.467 0 0 1-.454.48h-19.28a.467.467 0 0 1-.453-.48v-1.45a3.872 3.872 0 0 1 1.918-3.37l4.088-2.321c.544-.315.876-.898.87-1.527v-1.274a9.526 9.526 0 0 1-1.653-3.57 1.476 1.476 0 0 1-.63-1.212v-1.905c0-.4.164-.784.454-1.06V73.51a3.785 3.785 0 0 1 3.154-4.089 7.52 7.52 0 0 1 1.892-.214c5.59 0 5.047 4.303 5.047 4.303v2.763c.29.276.454.659.455 1.06v1.905a1.438 1.438 0 0 1-.972 1.375 10.79 10.79 0 0 1-1.363 2.851c-.125.195-.264.38-.416.556v1.312c-.002.65.351 1.25.921 1.564l4.39 2.284a3.826 3.826 0 0 1 2.032 3.42z"/>
        <path fill="#FFF" d="M90.805 92.6v1.363a.467.467 0 0 1-.454.48H74.857a.467.467 0 0 1-.454-.48v-1.45a3.872 3.872 0 0 1 1.918-3.37l4.088-2.321c.544-.315.876-.898.87-1.527v-1.274a9.526 9.526 0 0 1-1.653-3.57 1.476 1.476 0 0 1-.63-1.212v-1.905c0-.4.164-.784.454-1.06V73.51a3.785 3.785 0 0 1 3.154-4.089 3.785 3.785 0 0 1 3.154 4.089v2.763c.29.276.454.659.454 1.06v1.905a1.438 1.438 0 0 1-.971 1.375 10.79 10.79 0 0 1-1.363 2.851c-.125.195-.264.38-.416.556v1.312c-.002.65.35 1.25.92 1.564l4.392 2.284a3.826 3.826 0 0 1 2.031 3.42z"/>
        <path fill="#A4C2F7" d="M71.88 22.524V49.02c0 .697-.566 1.262-1.263 1.262H39.074l-7.57 7.57v-6.308c0-.697-.565-1.262-1.262-1.262h-7.57a1.262 1.262 0 0 1-1.262-1.262V22.524c0-.697.565-1.262 1.262-1.262h47.946c.696 0 1.261.565 1.261 1.262z"/>
        <path fill="#FFF" d="M37.812 92.6v1.363a.467.467 0 0 1-.454.48H21.864a.467.467 0 0 1-.454-.48v-1.45a3.872 3.872 0 0 1 1.918-3.37l4.088-2.321c.544-.315.876-.898.87-1.527v-1.274a9.526 9.526 0 0 1-1.653-3.57 1.476 1.476 0 0 1-.63-1.212v-1.905c0-.4.164-.784.454-1.06V73.51a3.785 3.785 0 0 1 3.154-4.089 3.785 3.785 0 0 1 3.154 4.089v2.763c.29.276.454.659.454 1.06v1.905a1.438 1.438 0 0 1-.971 1.375 10.79 10.79 0 0 1-1.363 2.851c-.125.195-.264.38-.416.556v1.312c-.002.65.35 1.25.92 1.564l4.392 2.284a3.826 3.826 0 0 1 2.031 3.42zM68.094 22.524V49.02c0 .697-.565 1.262-1.262 1.262H35.29l-3.785 3.785v-2.523c0-.697-.565-1.262-1.262-1.262h-7.57a1.262 1.262 0 0 1-1.262-1.262V22.524c0-.697.565-1.262 1.262-1.262h44.16c.697 0 1.262.565 1.262 1.262z"/>
        <path fill="#FFF" d="M28.98 27.57h5.047c.697 0 1.262.566 1.262 1.262v2.524c0 .697-.565 1.261-1.262 1.261H28.98a1.262 1.262 0 0 1-1.262-1.261v-2.524c0-.697.565-1.261 1.262-1.261zm15.141 0h5.047c.697 0 1.262.566 1.262 1.262v2.524c0 .697-.565 1.261-1.262 1.261H44.12a1.262 1.262 0 0 1-1.262-1.261v-2.524c0-.697.565-1.261 1.262-1.261zm15.14 0h5.048c.697 0 1.261.566 1.261 1.262v2.524c0 .697-.564 1.261-1.261 1.261h-5.047A1.262 1.262 0 0 1 58 31.356v-2.524c0-.697.565-1.261 1.262-1.261zm-15.14 11.356h5.047c.697 0 1.262.565 1.262 1.262v2.523c0 .697-.565 1.262-1.262 1.262H44.12a1.262 1.262 0 0 1-1.262-1.262v-2.523c0-.697.565-1.262 1.262-1.262zm15.14 0h5.048c.697 0 1.261.565 1.261 1.262v2.523c0 .697-.564 1.262-1.261 1.262h-5.047A1.262 1.262 0 0 1 58 42.711v-2.523c0-.697.565-1.262 1.262-1.262zM80.409 86.822l-4.088 2.321a3.873 3.873 0 0 0-1.918 3.37v1.45a.467.467 0 0 0 .454.48h3.785a.467.467 0 0 1-.454-.48v-1.45a3.872 3.872 0 0 1 1.918-3.37l4.088-2.321c.544-.315.877-.898.87-1.527v-1.274a9.526 9.526 0 0 1-1.652-3.571 1.476 1.476 0 0 1-.631-1.211v-1.905c0-.401.164-.784.454-1.06V73.51a3.785 3.785 0 0 1 3.154-4.089h.018a8.066 8.066 0 0 0-1.91-.214 7.514 7.514 0 0 0-1.893.214 3.785 3.785 0 0 0-3.154 4.089v2.763c-.29.276-.454.659-.455 1.06v1.905c0 .482.236.935.631 1.211a9.524 9.524 0 0 0 1.653 3.57v1.275a1.744 1.744 0 0 1-.87 1.527zM21.864 94.443h3.785a.467.467 0 0 1-.454-.48v-1.45a3.872 3.872 0 0 1 1.918-3.37l4.088-2.321c.544-.315.877-.898.87-1.527v-1.274a9.526 9.526 0 0 1-1.652-3.57 1.476 1.476 0 0 1-.631-1.212v-1.905c0-.4.164-.784.454-1.06V73.51a3.785 3.785 0 0 1 3.154-4.089h.018a8.066 8.066 0 0 0-1.91-.214 7.514 7.514 0 0 0-1.893.214 3.785 3.785 0 0 0-3.154 4.089v2.763c-.29.276-.454.659-.455 1.06v1.905c0 .482.236.935.631 1.211a9.524 9.524 0 0 0 1.653 3.57v1.275a1.744 1.744 0 0 1-.87 1.527l-4.088 2.321a3.873 3.873 0 0 0-1.918 3.37v1.45a.467.467 0 0 0 .454.48zM22.671 50.282h3.786a1.262 1.262 0 0 1-1.262-1.262V22.524c0-.697.565-1.262 1.262-1.262H22.67c-.696 0-1.261.565-1.261 1.262V49.02c0 .697.565 1.262 1.261 1.262z"/>
        <path fill="#FFF" d="M22.671 22.524V49.02h-2.523V22.524z"/>
        <path fill="#428DFF" d="M21.41 33.88c.334-.006.654-.136.896-.367a1.28 1.28 0 0 0 0-1.791l-.19-.152a.955.955 0 0 0-.227-.113.8.8 0 0 0-.227-.076 1.9 1.9 0 0 0-.252-.025 1.328 1.328 0 0 0-.896.366c-.114.12-.204.262-.265.416-.19.47-.087 1.01.265 1.375.12.114.262.204.416.265.152.065.315.1.48.101z"/>
        <path fill="#4C84FF" d="M21.868 95.704H41.14a1.731 1.731 0 0 0 1.72-1.74v-1.358a5.09 5.09 0 0 0-2.713-4.543l-4.384-2.282a.492.492 0 0 1-.245-.44v-.882a11.814 11.814 0 0 0 1.547-2.956 2.695 2.695 0 0 0 1.205-2.258v-1.913c0-.538-.16-1.065-.458-1.514v-2.246A5.14 5.14 0 0 0 36.6 69.84a6.47 6.47 0 0 0-5.096-1.893 6.47 6.47 0 0 0-5.097 1.893 5.14 5.14 0 0 0-1.212 3.733v2.251a2.732 2.732 0 0 0-.458 1.514v1.912c-.001.707.274 1.386.767 1.893a11.188 11.188 0 0 0 1.525 3.29v.862a.497.497 0 0 1-.232.433l-4.094 2.324a5.12 5.12 0 0 0-2.555 4.461v1.453a1.731 1.731 0 0 0 1.72 1.74zm.803-3.192a2.595 2.595 0 0 1 1.28-2.27l4.093-2.326a3.017 3.017 0 0 0 1.514-2.626v-1.267c0-.287-.098-.566-.278-.79a8.468 8.468 0 0 1-1.41-3.057 1.26 1.26 0 0 0-.528-.774.187.187 0 0 1-.077-.158v-1.912c0-.052.022-.103.061-.138.252-.24.394-.573.392-.92v-2.765c0-.048-.003-.096-.008-.144a2.668 2.668 0 0 1 .608-1.876 4.164 4.164 0 0 1 3.186-1.02 4.164 4.164 0 0 1 3.186 1.02c.431.52.65 1.186.61 1.861a1.33 1.33 0 0 0-.011.16v2.764c0 .348.144.68.397.92.04.035.061.086.061.138v1.912a.17.17 0 0 1-.1.164 1.262 1.262 0 0 0-.819.829 9.463 9.463 0 0 1-1.198 2.523 6.96 6.96 0 0 1-.336.45 1.261 1.261 0 0 0-.299.816v1.313a2.998 2.998 0 0 0 1.602 2.676l4.384 2.284a2.61 2.61 0 0 1 1.355 2.307v.575H22.671v-.669zM79.79 85.725l-4.094 2.326a5.12 5.12 0 0 0-2.555 4.461v1.453a1.731 1.731 0 0 0 1.72 1.74h19.272a1.731 1.731 0 0 0 1.72-1.74v-1.36a5.09 5.09 0 0 0-2.713-4.542l-4.384-2.282a.492.492 0 0 1-.245-.44v-.882a11.814 11.814 0 0 0 1.547-2.956 2.695 2.695 0 0 0 1.205-2.258v-1.913c0-.538-.16-1.065-.458-1.514v-2.246a5.14 5.14 0 0 0-1.212-3.733 6.47 6.47 0 0 0-5.097-1.893A6.47 6.47 0 0 0 79.4 69.84a5.14 5.14 0 0 0-1.212 3.733v2.251a2.732 2.732 0 0 0-.458 1.514v1.912c-.001.707.274 1.386.767 1.893a11.188 11.188 0 0 0 1.525 3.29v.862a.497.497 0 0 1-.232.431zm2.478-2.492a8.468 8.468 0 0 1-1.41-3.057 1.26 1.26 0 0 0-.528-.774.187.187 0 0 1-.077-.158v-1.912c0-.052.022-.103.061-.139.254-.238.398-.571.397-.92V73.51c0-.048-.003-.096-.008-.144a2.668 2.668 0 0 1 .608-1.876 4.164 4.164 0 0 1 3.186-1.02 4.164 4.164 0 0 1 3.186 1.02c.431.52.65 1.186.61 1.861a1.33 1.33 0 0 0-.011.159v2.765c0 .348.144.68.397.92.04.035.061.085.061.138v1.912a.17.17 0 0 1-.1.164 1.262 1.262 0 0 0-.819.829 9.463 9.463 0 0 1-1.198 2.523 6.96 6.96 0 0 1-.336.45 1.261 1.261 0 0 0-.299.816v1.313a2.998 2.998 0 0 0 1.602 2.676l4.384 2.284a2.61 2.61 0 0 1 1.355 2.306v.576H75.664v-.669a2.595 2.595 0 0 1 1.28-2.271l4.093-2.326a3.017 3.017 0 0 0 1.514-2.625v-1.267a1.262 1.262 0 0 0-.283-.79zM22.671 51.544h7.57v6.308a1.262 1.262 0 0 0 2.155.892l7.2-7.2h3.263v3.785a2.523 2.523 0 0 0 2.524 2.523h31.02l7.202 7.201a1.262 1.262 0 0 0 2.153-.892v-6.309h7.57a2.523 2.523 0 0 0 2.524-2.523V28.832a2.523 2.523 0 0 0-2.523-2.523H73.14v-3.785A2.523 2.523 0 0 0 70.617 20H22.671a2.523 2.523 0 0 0-2.523 2.524v5.046a1.262 1.262 0 0 0 2.523 0v-5.046h47.946V49.02H39.074c-.335 0-.655.133-.892.37l-5.417 5.417v-3.263a2.523 2.523 0 0 0-2.523-2.524h-7.57V37.665a1.262 1.262 0 0 0-2.524 0V49.02a2.523 2.523 0 0 0 2.523 2.524zm50.12-1.262h15.49a1.262 1.262 0 0 0 0-2.524h-15.14v-2.523h15.14a1.262 1.262 0 0 0 0-2.523h-15.14v-2.524h15.14a1.262 1.262 0 0 0 0-2.523h-15.14V35.14h15.14a1.262 1.262 0 0 0 0-2.523h-15.14v-3.785h20.188v26.496h-7.57a2.523 2.523 0 0 0-2.524 2.524v3.262L77.819 55.7a1.277 1.277 0 0 0-.893-.37H45.383v-3.786h25.234a2.515 2.515 0 0 0 2.173-1.262z"/>
        <path fill="#4C84FF" d="M64.309 33.88a2.523 2.523 0 0 0 2.523-2.524v-2.524a2.523 2.523 0 0 0-2.523-2.523h-5.047a2.523 2.523 0 0 0-2.524 2.523h-5.047a2.523 2.523 0 0 0-2.523-2.523H44.12a2.523 2.523 0 0 0-2.524 2.523h-5.046a2.523 2.523 0 0 0-2.524-2.523H28.98a2.523 2.523 0 0 0-2.523 2.523v2.524a2.523 2.523 0 0 0 2.523 2.523h5.047a2.523 2.523 0 0 0 2.524-2.523h5.046a2.523 2.523 0 0 0 2.524 2.523h5.047a2.523 2.523 0 0 0 2.523-2.523h5.047a2.523 2.523 0 0 0 2.524 2.523h1.262v3.786h-1.262a2.523 2.523 0 0 0-2.524 2.523h-5.047a2.523 2.523 0 0 0-2.523-2.523H44.12a2.523 2.523 0 0 0-2.524 2.523h-2.523a1.262 1.262 0 1 0 0 2.523h2.523a2.523 2.523 0 0 0 2.524 2.524h5.047a2.523 2.523 0 0 0 2.523-2.524h5.047a2.523 2.523 0 0 0 2.524 2.524h5.047a2.523 2.523 0 0 0 2.523-2.524v-2.523a2.523 2.523 0 0 0-2.523-2.524h-1.262V33.88h1.262zM28.98 31.355v-2.524h5.047v2.524H28.98zm15.141 0v-2.524h5.047v2.524H44.12zm0 11.355v-2.523h5.047v2.523H44.12zm20.188 0h-5.047v-2.523h5.047v2.523zm-5.047-13.879h5.047v2.524h-5.047v-2.524z"/>
        <path fill="#4C84FF" d="M26.826 42.342l2.524 2.523c.236.238.557.37.892.37h.07c.359-.02.691-.19.915-.47l5.047-6.31a1.262 1.262 0 1 0-1.97-1.577l-4.167 5.203-1.526-1.527a1.262 1.262 0 0 0-1.784 1.784v.004z"/>
    </g>
</svg>
