<svg xmlns="http://www.w3.org/2000/svg" width="116" height="116" viewBox="0 0 116 116">
    <g fill="none" fill-rule="nonzero">
        <path fill="#A4C2F7" d="M90.004 51.507V86.72a4.857 4.857 0 0 1-4.857 4.857h-53.43a4.857 4.857 0 0 1-4.856-4.857V51.507h63.143z"/>
        <path fill="#FFF" d="M85.147 51.507V86.72a4.857 4.857 0 0 1-4.857 4.857H31.718a4.857 4.857 0 0 1-4.857-4.857V51.507h58.286z"/>
        <path fill="#A4C2F7" d="M25.646 40.578h65.572a2.429 2.429 0 0 1 2.429 2.429v7.285a2.429 2.429 0 0 1-2.429 2.429H25.646a2.429 2.429 0 0 1-2.428-2.429v-7.285a2.429 2.429 0 0 1 2.428-2.43z"/>
        <path fill="#FFF" d="M25.646 40.578h61.93a2.429 2.429 0 0 1 2.428 2.429v7.285a2.429 2.429 0 0 1-2.429 2.429H25.646a2.429 2.429 0 0 1-2.428-2.429v-7.285a2.429 2.429 0 0 1 2.428-2.43z"/>
        <path fill="#A4C2F7" d="M52.361 52.721h12.143v38.857H52.361z"/>
        <path fill="#FFF" d="M52.361 52.721h8.5v38.857h-8.5z"/>
        <path fill="#A4C2F7" d="M49.932 40.578h17v12.143h-17z"/>
        <path fill="#FFF" d="M49.932 40.578h13.357v12.143H49.932z"/>
        <path fill="#A4C2F7" d="M70.575 67.754a13.575 13.575 0 0 1-1.906 6.266c-.4.743-.88 1.44-1.433 2.076a35.13 35.13 0 0 1-8.804 6.982 53.864 53.864 0 0 1-1.821-1.129 31.846 31.846 0 0 0 6.982-5.853 11.38 11.38 0 0 0 1.433-2.076 13.574 13.574 0 0 0 1.906-6.266 6.261 6.261 0 0 0-1.906-5.052 5.868 5.868 0 0 0-2.307-1.226 6.484 6.484 0 0 1 5.95 1.226 6.261 6.261 0 0 1 1.906 5.052z"/>
        <path fill="#EAF2FF" d="M66.932 67.754a13.575 13.575 0 0 1-1.906 6.266c-.4.743-.88 1.44-1.433 2.076a31.847 31.847 0 0 1-6.982 5.853 31.846 31.846 0 0 1-6.982-5.853 11.38 11.38 0 0 1-1.433-2.076 13.574 13.574 0 0 1-1.906-6.266 6.261 6.261 0 0 1 1.906-5.052 5.868 5.868 0 0 1 2.307-1.226 6.691 6.691 0 0 1 6.108 1.3 7.893 7.893 0 0 1 1.821 2.197 7.07 7.07 0 0 1 4.287-3.497c.851.23 1.64.65 2.307 1.226a6.261 6.261 0 0 1 1.906 5.052z"/>
        <path fill="#FFF" d="M25.646 52.72h1.215v34.001a4.857 4.857 0 0 0 4.857 4.857h3.643a4.857 4.857 0 0 1-4.858-4.857v-34H29.29a2.436 2.436 0 0 1-2.428-2.429v-7.286a2.436 2.436 0 0 1 2.428-2.428h-3.643a2.436 2.436 0 0 0-2.428 2.428v7.286a2.436 2.436 0 0 0 2.428 2.429z"/>
        <path fill="#FFF" d="M28.075 53.935v34h-2.429v-34z"/>
        <path fill="#428DFF" d="M26.86 64.864a1.214 1.214 0 0 0 .863-2.077l-.182-.145a.924.924 0 0 0-.219-.11.77.77 0 0 0-.218-.072 1.829 1.829 0 0 0-.243-.025c-.322.005-.63.13-.863.352-.11.117-.196.253-.255.401a1.24 1.24 0 0 0 .255 1.324c.117.11.253.196.401.255.146.062.303.095.462.097z"/>
        <path fill="#4C84FF" d="M91.218 40.578H75a10.92 10.92 0 1 0-16.568-13.479 10.922 10.922 0 1 0-16.567 13.479H25.646a3.643 3.643 0 0 0-3.643 3.643v7.285a3.643 3.643 0 0 0 3.643 3.643v3.643a1.214 1.214 0 0 0 2.429 0V55.15h23.071v6.16a7.253 7.253 0 0 0-3.748 1.7 7.39 7.39 0 0 0-2.323 5.983 14.72 14.72 0 0 0 2.047 6.809c.439.814.962 1.58 1.562 2.284a22.77 22.77 0 0 0 2.462 2.494v11H31.718a3.643 3.643 0 0 1-3.643-3.644V68.507a1.214 1.214 0 0 0-2.429 0v19.428a6.079 6.079 0 0 0 6.072 6.072h53.429a6.079 6.079 0 0 0 6.072-6.072V55.15a3.643 3.643 0 0 0 3.642-3.642V44.22a3.643 3.643 0 0 0-3.643-3.643zM51.146 52.72v-9.715h14.572v9.715H51.146zm17-29.143a8.5 8.5 0 0 1 0 17h-8.5v-8.5a8.51 8.51 0 0 1 8.5-8.5zm-27.928 8.5a8.5 8.5 0 0 1 17 0v8.5h-8.5a8.51 8.51 0 0 1-8.5-8.5zM24.432 51.507V44.22c0-.67.544-1.214 1.214-1.214h23.072v9.714H25.646c-.67 0-1.214-.544-1.214-1.214zm38.858 3.642v6.174h-.061a8.014 8.014 0 0 0-4.797 2.755 8.014 8.014 0 0 0-4.796-2.749h-.061v-6.18h9.715zM49.258 74.638a12.342 12.342 0 0 1-1.754-5.704 5.161 5.161 0 0 1 1.498-4.107 5.054 5.054 0 0 1 3.327-1.177c.304 0 .607.025.907.075a5.78 5.78 0 0 1 4.14 3.061 1.263 1.263 0 0 0 2.113 0 5.782 5.782 0 0 1 4.14-3.061 4.707 4.707 0 0 1 5.732 5.21v.011a12.384 12.384 0 0 1-1.768 5.722c-.36.666-.79 1.293-1.283 1.869a33.323 33.323 0 0 1-7.878 6.34 33.325 33.325 0 0 1-7.88-6.347 10.806 10.806 0 0 1-1.294-1.892zm4.317 7.901a49.88 49.88 0 0 0 4.24 2.793c.381.224.853.224 1.234 0a49.653 49.653 0 0 0 4.24-2.793v9.04h-9.714v-9.04zm35.215 5.396a3.643 3.643 0 0 1-3.643 3.643H65.718V80.581c.88-.766 1.7-1.598 2.454-2.489a12.983 12.983 0 0 0 1.553-2.26 14.74 14.74 0 0 0 2.065-6.833 7.383 7.383 0 0 0-2.317-5.99 7.256 7.256 0 0 0-3.755-1.7v-6.16H88.79v32.786zm3.643-36.428c0 .67-.544 1.214-1.215 1.214H68.147v-9.715h23.071c.67 0 1.214.544 1.214 1.215v7.286z"/>
    </g>
</svg>
