<svg xmlns="http://www.w3.org/2000/svg" width="116" height="116" viewBox="0 0 116 116">
    <g fill="none" fill-rule="nonzero">
        <path fill="#FFF" d="M50.539 22.942h5.256v10.63h-5.256z"/>
        <path fill="#A4C2F7" d="M30.23 45.46l-5.592-5.592a1.324 1.324 0 0 1 0-1.866l3.718-3.706a1.324 1.324 0 0 1 1.866 0l5.684 5.684-5.677 5.48z"/>
        <path fill="#FFF" d="M70.204 39.822l5.92-5.92a1.309 1.309 0 0 1 1.853 0l3.719 3.719c.512.516.512 1.35 0 1.866l-5.763 5.749-5.729-5.414z"/>
        <path fill="#FFF" d="M86.02 63.68a32.848 32.848 0 0 1-32.853 32.852c-.657 0-1.314-.013-1.971-.066-17.346-1.04-30.882-15.41-30.882-32.787S33.85 31.932 51.196 30.893a24.714 24.714 0 0 1 1.97-.066A32.848 32.848 0 0 1 86.02 63.679z"/>
        <g fill="#FFF">
            <path d="M49.225 20.314h7.884a2.628 2.628 0 1 1 0 5.257h-7.884a2.628 2.628 0 1 1 0-5.257z"/>
        </g>
        <g>
            <path fill="#FFF" d="M80.763 63.68H53.167V36.082C68.4 36.1 80.747 48.445 80.763 63.68z"/>
            <path fill="#E3E7F2" d="M79.45 89.962h13.14v6.57H79.45z"/>
            <path fill="#FFF" d="M96.532 78.135H92.59v6.57H79.449v-6.57h-3.943L86.02 67.622z"/>
        </g>
        <g fill="#FFF">
            <path d="M79.449 89.962h3.942v6.57h-3.942zM51.196 96.466c.657.053 1.314.066 1.97.066.686 0 1.366-.021 2.04-.063-.022-.002-.045-.001-.068-.003a32.84 32.84 0 0 1-23.494-53.534l-3.064-3.064a1.325 1.325 0 0 1 0-1.866l2.679-2.67-1.037-1.036a1.324 1.324 0 0 0-1.866 0l-3.718 3.706a1.325 1.325 0 0 0 0 1.866l3.064 3.064a32.842 32.842 0 0 0 23.494 53.534z"/>
        </g>
        <g>
            <path fill="#FFF" d="M19 63.68a34.605 34.605 0 0 1 4.537-16.97l1.165-1.918c.407-.626.882-1.206 1.322-1.81a37.57 37.57 0 0 1 2.922-3.398l1.653-1.515.83-.753.898-.673 1.8-1.336 1.917-1.165a34.473 34.473 0 0 1 17.123-4.63v2.629a33.398 33.398 0 0 0-12.108 2.416c-.635.266-1.246.591-1.871.882-.632.278-1.242.604-1.824.975l-1.77 1.074-1.662 1.236-.83.619-.765.697-1.528 1.398c-.96.992-1.86 2.04-2.696 3.139-.405.558-.847 1.092-1.222 1.67l-1.075 1.77a31.971 31.971 0 0 0-4.188 15.662H19z"/>
            <path fill="#4C84FF" d="M19.472 58.241A38.781 38.781 0 0 0 19 63.679c.021 18.861 15.306 34.146 34.167 34.167a33.864 33.864 0 0 0 25.91-11.902c.119.043.244.069.372.075h13.14a1.314 1.314 0 0 0 1.315-1.314v-5.256h2.628a1.314 1.314 0 0 0 .929-2.244l-10.3-10.3c.103-1.065.172-2.142.172-3.226a33.984 33.984 0 0 0-7.129-20.852l2.42-2.411a2.636 2.636 0 0 0 0-3.724l-3.718-3.72a2.628 2.628 0 0 0-3.711 0l-2.614 2.615a33.954 33.954 0 0 0-15.472-5.84v-2.862a3.942 3.942 0 0 0 0-7.885h-7.885a3.942 3.942 0 0 0 0 7.885v2.902a33.394 33.394 0 0 0-13.18 4.355l-1.917 1.165-.594.441-2.38-2.38a2.705 2.705 0 0 0-3.724-.003l-3.722 3.708a2.637 2.637 0 0 0 .002 3.724l2.259 2.26c-.424.577-.876 1.135-1.266 1.735l-1.165 1.917c-.249.382-.47.782-.661 1.195a1.314 1.314 0 0 0 2.33 1.216c.176-.383.38-.751.61-1.103l1.075-1.77c.375-.578.817-1.111 1.222-1.67a34.945 34.945 0 0 1 2.696-3.139l1.528-1.397.766-.698.83-.619 1.661-1.235 1.77-1.074a13.55 13.55 0 0 1 1.824-.975c.625-.292 1.236-.616 1.871-.883a33.392 33.392 0 0 1 12.108-2.416c.886 0 1.76.046 2.628.118 16.331 1.383 28.889 15.031 28.91 31.42a30.826 30.826 0 0 1-.222 3.621l-9.905 9.906a1.314 1.314 0 0 0 .929 2.243h2.628v3.483A31.531 31.531 0 0 1 21.628 63.68c.03-1.682.176-3.36.439-5.022a1.378 1.378 0 0 0-1.1-1.507 1.265 1.265 0 0 0-1.495 1.091zm11.127-20.172l-1.653 1.516c-.424.484-.867.953-1.303 1.428l-2.078-2.08 3.728-3.707 2.113 2.112-.807.731zM47.91 22.942c0-.725.589-1.313 1.314-1.314h7.885a1.314 1.314 0 0 1 0 2.628h-7.885a1.315 1.315 0 0 1-1.314-1.314zm3.942 6.628v-2.685h2.629v2.661a34.442 34.442 0 0 0-1.314-.033c-.438.006-.876.036-1.315.057zm22.85 7.61l2.346-2.35 3.72 3.726-2.252 2.242a34.473 34.473 0 0 0-3.813-3.619zm11.317 32.3l7.34 7.34h-.77a1.314 1.314 0 0 0-1.314 1.315v5.256H80.763v-5.256a1.314 1.314 0 0 0-1.315-1.315h-.77l7.341-7.34z"/>
            <path fill="#428DFF" d="M21.16 54.362a.837.837 0 0 0 .207.142 1.9 1.9 0 0 0 .246.099c.33.09.683.054.988-.102a1.57 1.57 0 0 0 .377-.322c.35-.375.435-.926.216-1.39a1.412 1.412 0 0 0-.314-.402 1.353 1.353 0 0 0-.432-.274 1.336 1.336 0 0 0-1.008.04 1.464 1.464 0 0 0-.691.781c-.129.337-.105.713.065 1.032l.148.212c.057.07.124.132.197.184zM51.853 91.275a1.314 1.314 0 0 0 2.628 0V86.02a1.314 1.314 0 1 0-2.628 0v5.256zM30.827 64.994a1.314 1.314 0 0 0 0-2.629h-5.256a1.314 1.314 0 0 0 0 2.629h5.256z"/>
            <path fill="#4C84FF" d="M53.167 64.994h27.596a1.314 1.314 0 0 0 1.314-1.315c-.018-15.959-12.951-28.892-28.91-28.91a1.314 1.314 0 0 0-1.314 1.314V63.68a1.314 1.314 0 0 0 1.314 1.314zM54.48 37.43c13.475.691 24.244 11.46 24.936 24.935H54.48V37.43z"/>
            <path fill="#428DFF" d="M92.59 88.647H79.449a1.314 1.314 0 0 0-1.314 1.315v6.57a1.314 1.314 0 0 0 1.314 1.314h13.14a1.314 1.314 0 0 0 1.315-1.314v-6.57a1.314 1.314 0 0 0-1.314-1.315zm-1.314 6.57H80.763v-3.942h10.513v3.943z"/>
        </g>
    </g>
</svg>
