<svg viewBox="0 0 179 179" xmlns="http://www.w3.org/2000/svg" preserveAspectRatio="xMinYMin meet">
    <g fill="#4E8EF7">
        <circle cx="89.373" cy="89.271" r="36.448"></circle>
        <path d="M163.755 27.424c0-6.923-5.614-12.533-12.535-12.533a12.468 12.468 0 0 0-8.203 3.072C128.07 6.691 109.49 0 89.372 0 40.148 0 .102 40.047.102 89.272c0 49.223 40.047 89.271 89.271 89.271 49.224 0 89.27-40.048 89.27-89.271 0-20.118-6.69-38.7-17.961-53.646a12.465 12.465 0 0 0 3.073-8.202zM89.372 175.54c-47.568 0-86.269-38.701-86.269-86.27 0-47.567 38.701-86.268 86.27-86.268 19.34 0 37.213 6.399 51.618 17.19a12.467 12.467 0 0 0-2.306 7.231c0 6.922 5.612 12.532 12.533 12.532 2.696 0 5.185-.858 7.23-2.306 10.791 14.404 17.19 32.277 17.19 51.62.002 47.57-38.697 86.27-86.266 86.27z"></path>
    </g>
</svg>