<svg xmlns="http://www.w3.org/2000/svg" xmlns:xlink="http://www.w3.org/1999/xlink" width="31" height="35" viewBox="0 0 31 35">
    <defs>
        <path id="a" d="M10 9l6.064-5.559A8.384 8.384 0 0 1 30 11l-2.329 13.973A12 12 0 0 1 15.834 35H7a7 7 0 0 1-7-7v-9C0 13.477 4.477 9 10 9z"/>
    </defs>
    <g fill="none" fill-rule="evenodd">
        <path fill="#162C5E" d="M7 9h12a7 7 0 0 1 7 7v12a7 7 0 0 1-7 7H7a7 7 0 0 1-7-7V16a7 7 0 0 1 7-7z"/>
        <mask id="b" fill="#fff">
            <use xlink:href="#a"/>
        </mask>
        <g mask="url(#b)">
            <g fill-rule="nonzero" transform="rotate(40 5.499 24.352)">
                <path fill="#E09B2D" d="M15.792 34.613H1.478a15.862 15.862 0 0 0 7.157-5.436 15.862 15.862 0 0 0 7.157 5.436z"/>
                <path fill="#43F3C2" d="M12.026 4.01c.588.62 1.009 1.4 1.187 2.268-.378.229-.747.474-1.104.733l-.083-.09a4.66 4.66 0 0 0-3.39-1.456A4.658 4.658 0 0 0 5.161 7.01a16.025 16.025 0 0 0-1.104-.733A4.643 4.643 0 0 1 5.245 4.01a4.659 4.659 0 0 1 3.39-1.457 4.676 4.676 0 0 1 3.39 1.457z"/>
                <path fill="#E3465A" d="M12.109 7.01a15.898 15.898 0 0 0-3.474 3.45 15.898 15.898 0 0 0-3.473-3.45l.083-.09a4.658 4.658 0 0 1 3.39-1.456 4.66 4.66 0 0 1 3.39 1.456l.084.09z"/>
                <path fill="#43F3C2" d="M16.643 2.385l-.85 2.64a15.71 15.71 0 0 0-2.58 1.253 4.656 4.656 0 0 0-1.273-2.357 4.669 4.669 0 0 0-2.277-1.254l1.805-1.98 1.132 1.06 1.456-1.14.647 1.94 1.94-.162zM5.802.687l1.806 1.98A4.659 4.659 0 0 0 5.245 4.01c-.59.62-1.01 1.4-1.187 2.268a15.71 15.71 0 0 0-2.58-1.254L.627 2.385l1.94.162.647-1.94 1.456 1.14L5.802.686z"/>
                <path fill="#FFC35A" d="M13.213 6.278a15.71 15.71 0 0 1 2.58-1.254v29.589a15.862 15.862 0 0 1-7.158-5.436 15.739 15.739 0 0 0 3.067-9.358 15.74 15.74 0 0 0-3.067-9.36 15.898 15.898 0 0 1 4.578-4.18z"/>
                <path fill="#FFC35A" d="M5.162 7.01a15.898 15.898 0 0 1 3.473 3.45 15.74 15.74 0 0 1 3.067 9.359c0 3.501-1.14 6.739-3.067 9.358a15.862 15.862 0 0 1-7.157 5.436V5.024a15.71 15.71 0 0 1 3.684 1.987z"/>
                <path fill="#EEA532" d="M4.793 6.752a15.71 15.71 0 0 0-3.315-1.728v29.589a15.776 15.776 0 0 0 3.315-1.728V6.752z"/>
                <path fill="#FFF" d="M9.842 20.425a.606.606 0 0 1-.606-.606c0-2.69-.795-5.28-2.3-7.49a.606.606 0 0 1 1.004-.683 14.467 14.467 0 0 1 2.509 8.173.606.606 0 0 1-.607.606zM13.972 27.617a.606.606 0 0 1-.607-.607V12.214a.606.606 0 1 1 1.213 0V27.01a.606.606 0 0 1-.606.607zM13.972 9.83a.606.606 0 0 1-.607-.607V8.09a.606.606 0 1 1 1.213 0v1.132a.606.606 0 0 1-.606.606z"/>
                <circle cx="6.149" cy="10.313" r="1" fill="#FFF"/>
                <circle cx="9.467" cy="7.026" r="1" fill="#FFF"/>
                <circle cx="14.169" cy="3.964" r="1" fill="#FFF"/>
                <path fill="#162C5E" d="M17.118 2.008a.606.606 0 0 0-.525-.227l-1.466.122-.496-1.488a.606.606 0 0 0-.95-.286l-1.046.82-.752-.705a.607.607 0 0 0-.862.035L9.443 2.008a5.351 5.351 0 0 0-1.616-.001L6.25.279a.606.606 0 0 0-.863-.035L4.635.95 3.588.129a.606.606 0 0 0-.949.286l-.496 1.488L.678 1.78a.606.606 0 0 0-.628.79L.872 5.12v29.493c0 .335.271.607.606.607h14.314a.606.606 0 0 0 .607-.607V5.12l.821-2.549a.606.606 0 0 0-.102-.563zm-5.615-.458l.683.64a.606.606 0 0 0 .788.034l.779-.61.374 1.125a.608.608 0 0 0 .626.412l1.034-.086-.483 1.499a16.43 16.43 0 0 0-1.725.806 5.261 5.261 0 0 0-1.21-1.877 5.283 5.283 0 0 0-1.627-1.11l.76-.833zm-3.356 9.27a15.08 15.08 0 0 1 2.948 8.999 15.08 15.08 0 0 1-2.948 8.999 15.209 15.209 0 0 1-6.063 4.887V5.932a15.209 15.209 0 0 1 6.063 4.887zm.488-1.35a16.472 16.472 0 0 0-2.537-2.511 4.023 4.023 0 0 1 2.537-.889c.933 0 1.818.313 2.537.889-.93.738-1.78 1.58-2.537 2.511zm0 20.697a16.422 16.422 0 0 0 4.48 3.84h-8.96a16.422 16.422 0 0 0 4.48-3.84zm.753-1.002a16.28 16.28 0 0 0 2.92-9.346 16.28 16.28 0 0 0-2.92-9.346 15.198 15.198 0 0 1 5.798-4.541v27.773a15.2 15.2 0 0 1-5.798-4.54zM11.512 4.35l.074.076c.427.45.743.987.928 1.571-.113.073-.226.147-.338.223a5.244 5.244 0 0 0-3.54-1.364 5.224 5.224 0 0 0-3.54 1.364c-.113-.075-.226-.15-.34-.223a4.054 4.054 0 0 1 .929-1.571 4.029 4.029 0 0 1 2.95-1.268c1.086 0 2.107.423 2.877 1.192zm-8.995-1.2a.607.607 0 0 0 .626-.412l.375-1.125.778.61c.235.184.57.17.788-.035l.684-.64.759.833a5.266 5.266 0 0 0-1.722 1.21A5.268 5.268 0 0 0 3.691 5.37c-.557-.3-1.132-.57-1.724-.806l-.484-1.5 1.034.087z"/>
                <circle cx="13.159" cy="10.814" r="1" fill="#333"/>
                <circle cx="4.862" cy="12.241" r="1" fill="#333"/>
                <circle cx="7.336" cy="16.796" r="1" fill="#333"/>
                <circle cx="7.416" cy="22.866" r="1" fill="#333"/>
                <circle cx="4.846" cy="27.436" r="1" fill="#333"/>
                <circle cx="13.132" cy="28.808" r="1" fill="#333"/>
            </g>
        </g>
    </g>
</svg>
