<svg xmlns="http://www.w3.org/2000/svg" xmlns:xlink="http://www.w3.org/1999/xlink" width="204" height="284" viewBox="0 0 204 284">
    <defs>
        <linearGradient id="c" x1="-3.556%" x2="80.066%" y1="-10.897%" y2="86.39%">
            <stop offset="0%" stop-color="#4A90E2"/>
            <stop offset="100%" stop-color="#74B0F7"/>
        </linearGradient>
        <rect id="b" width="190" height="270" rx="15"/>
        <filter id="a" width="112.1%" height="108.5%" x="-6.1%" y="-3.5%" filterUnits="objectBoundingBox">
            <feOffset dy="2" in="SourceAlpha" result="shadowOffsetOuter1"/>
            <feGaussianBlur in="shadowOffsetOuter1" result="shadowBlurOuter1" stdDeviation="3.5"/>
            <feColorMatrix in="shadowBlurOuter1" values="0 0 0 0 0 0 0 0 0 0 0 0 0 0 0 0 0 0 0.158146513 0"/>
        </filter>
        <rect id="d" width="190" height="270" rx="15"/>
    </defs>
    <g fill="none" fill-rule="evenodd">
        <g transform="translate(7 5)">
            <use fill="#000" filter="url(#a)" xlink:href="#b"/>
            <use fill="url(#c)" xlink:href="#b"/>
        </g>
        <g transform="translate(7 5)">
            <mask id="e" fill="#fff">
                <use xlink:href="#d"/>
            </mask>
            <g mask="url(#e)" opacity=".493">
                <g fill="#FFF" fill-rule="nonzero" style="mix-blend-mode:soft-light" transform="translate(82 198)">
                    <circle cx="84.879" cy="84.783" r="34.615"/>
                    <path d="M155.522 26.045c0-6.575-5.332-11.903-11.905-11.903a11.841 11.841 0 0 0-7.79 2.918C121.63 6.355 103.984 0 84.877 0 38.13 0 .097 38.033.097 84.783c0 46.749 38.033 84.783 84.782 84.783 46.75 0 84.782-38.034 84.782-84.783 0-19.106-6.354-36.754-17.058-50.948a11.838 11.838 0 0 0 2.919-7.79zM84.878 166.714c-45.176 0-81.931-36.755-81.931-81.932 0-45.176 36.755-81.93 81.932-81.93 18.368 0 35.342 6.076 49.023 16.325a11.84 11.84 0 0 0-2.19 6.867c0 6.574 5.33 11.902 11.903 11.902 2.56 0 4.924-.815 6.866-2.19 10.249 13.68 16.326 30.654 16.326 49.025.002 45.178-36.751 81.932-81.929 81.932v.001z"/>
                </g>
                <path fill="#FFF" fill-rule="nonzero" d="M164.908 37.663c5.694 3.287 12.974 1.334 16.26-4.358a11.841 11.841 0 0 0 1.369-8.206c16.369-6.941 30.695-19.045 40.248-35.592 23.375-40.486 9.453-92.44-31.034-115.815-40.485-23.374-92.44-9.453-115.815 31.033C52.562-54.79 66.484-2.835 106.97 20.539c16.547 9.553 35.007 12.875 52.652 10.702a11.838 11.838 0 0 0 5.287 6.422zM78.407-93.85c22.588-39.124 72.796-52.577 111.92-29.989 39.124 22.588 52.577 72.797 29.989 111.921-9.184 15.907-22.935 27.569-38.65 34.292a11.84 11.84 0 0 0-4.853-5.33c-5.693-3.287-12.972-1.335-16.258 4.357a11.836 11.836 0 0 0-1.537 7.042c-16.971 2.035-34.71-1.189-50.62-10.374C69.273-4.52 55.819-54.725 78.409-93.85h-.001zM-43.092 109.663c5.694 3.287 12.974 1.334 16.26-4.358a11.841 11.841 0 0 0 1.369-8.206c16.369-6.941 30.695-19.045 40.248-35.592C38.16 21.02 24.238-30.933-16.249-54.308c-40.485-23.374-92.44-9.453-115.815 31.033-23.374 40.486-9.452 92.44 31.033 115.814 16.547 9.553 35.007 12.875 52.652 10.702a11.838 11.838 0 0 0 5.287 6.422zM-129.593-21.85c22.588-39.124 72.796-52.577 111.92-29.989C21.452-29.25 34.905 20.958 12.317 60.082 3.132 75.99-10.62 87.651-26.334 94.374a11.84 11.84 0 0 0-4.853-5.33c-5.693-3.287-12.972-1.335-16.258 4.357a11.836 11.836 0 0 0-1.537 7.042c-16.971 2.035-34.71-1.189-50.62-10.374-39.126-22.588-52.58-72.794-29.99-111.919h-.001z" style="mix-blend-mode:soft-light"/>
            </g>
        </g>
        <g fill="#FFF" fill-rule="nonzero" transform="translate(49 70)">
            <circle cx="49.929" cy="49.872" r="20.362"/>
            <path d="M91.483 15.32A7.002 7.002 0 0 0 84.48 8.32a6.965 6.965 0 0 0-4.582 1.716C71.548 3.738 61.168 0 49.928 0 22.43 0 .057 22.373.057 49.873c0 27.499 22.373 49.872 49.872 49.872 27.5 0 49.872-22.373 49.872-49.872 0-11.24-3.738-21.62-10.035-29.97a6.964 6.964 0 0 0 1.717-4.582zM49.928 98.068c-26.574 0-48.194-21.62-48.194-48.195 0-26.574 21.62-48.195 48.195-48.195a47.944 47.944 0 0 1 28.837 9.603 6.965 6.965 0 0 0-1.288 4.04 7.001 7.001 0 0 0 7.001 7.001c1.506 0 2.897-.48 4.04-1.288a47.942 47.942 0 0 1 9.603 28.838c0 26.575-21.619 48.195-48.194 48.195v.001z"/>
        </g>
    </g>
</svg>
