<svg xmlns="http://www.w3.org/2000/svg" xmlns:xlink="http://www.w3.org/1999/xlink" width="204" height="284" viewBox="0 0 204 284">
    <defs>
        <linearGradient id="c" x1="-3.556%" x2="80.066%" y1="-10.897%" y2="86.39%">
            <stop offset="0%" stop-color="#AAFFF0"/>
            <stop offset="100%" stop-color="#28D5B6"/>
        </linearGradient>
        <rect id="b" width="190" height="270" rx="15"/>
        <filter id="a" width="112.1%" height="108.5%" x="-6.1%" y="-3.5%" filterUnits="objectBoundingBox">
            <feOffset dy="2" in="SourceAlpha" result="shadowOffsetOuter1"/>
            <feGaussianBlur in="shadowOffsetOuter1" result="shadowBlurOuter1" stdDeviation="3.5"/>
            <feColorMatrix in="shadowBlurOuter1" values="0 0 0 0 0 0 0 0 0 0 0 0 0 0 0 0 0 0 0.116961051 0"/>
        </filter>
        <rect id="d" width="190" height="270" rx="15"/>
    </defs>
    <g fill="none" fill-rule="evenodd">
        <g transform="translate(7 5)">
            <use fill="#000" filter="url(#a)" xlink:href="#b"/>
            <use fill="url(#c)" xlink:href="#b"/>
        </g>
        <g style="mix-blend-mode:overlay" transform="translate(7 5)">
            <mask id="e" fill="#fff">
                <use xlink:href="#d"/>
            </mask>
            <g fill="#FFF" fill-rule="nonzero" mask="url(#e)">
                <path d="M85.242-44.435l163.667 176.443s7.322 5.164 12.922-.861c5.599-6.025 1.292-12.05 1.292-12.05L85.242-44.434zm105.336-27.543l114.347 123.27s5.116 3.608 9.027-.6c3.912-4.21.903-8.42.903-8.42L190.578-71.977zM100.992 8.928l114.346 123.27s5.116 3.608 9.027-.602c3.912-4.208.903-8.417.903-8.417L100.992 8.928zm148.35-54.225l51.825 56.04s2.53 1.691 4.465-.281c1.934-1.972.447-3.945.447-3.945L249.34-45.297zM129.604 65.733l51.825 56.04s2.53 1.692 4.465-.28c1.935-1.973.447-3.945.447-3.945l-56.737-51.814z" style="mix-blend-mode:soft-light"/>
                <path d="M124.756 230.565l78.886 85.044s3.529 2.489 6.228-.415.623-5.808.623-5.808l-85.737-78.82zm50.771-13.275l55.114 59.415s2.466 1.739 4.35-.29c1.886-2.029.436-4.058.436-4.058l-59.9-55.067zm-43.18 38.996l55.114 59.415s2.466 1.738 4.351-.29c1.885-2.03.435-4.058.435-4.058l-59.9-55.067zm71.503-26.136l24.98 27.01s1.219.816 2.151-.135c.933-.95.216-1.901.216-1.901L203.85 230.15zm-57.711 53.515l24.979 27.01s1.22.816 2.152-.135c.932-.95.215-1.9.215-1.9l-27.346-24.975zM-139.338 203.641L43.894 401.177s8.197 5.782 14.466-.964c6.269-6.745 1.447-13.49 1.447-13.49l-199.145-183.082zm117.928-30.835l128.016 138.006s5.727 4.04 10.106-.672c4.38-4.714 1.01-9.426 1.01-9.426L-21.41 172.806zm-100.295 90.578L6.309 401.39s5.728 4.04 10.107-.674c4.379-4.712 1.01-9.424 1.01-9.424l-139.131-127.908zm166.083-60.707l58.02 62.74s2.833 1.892 5-.316c2.165-2.208.5-4.417.5-4.417l-63.52-58.007zM-89.672 326.98l58.02 62.739s2.833 1.893 5-.314c2.165-2.21.5-4.417.5-4.417l-63.52-58.008z" style="mix-blend-mode:overlay"/>
            </g>
        </g>
        <path fill="#FFF" fill-rule="nonzero" d="M29 61l103.59 109.727s3.53 2.49 6.228-.415c2.698-2.904.622-5.808.622-5.808L29 61zm32.8 10.371l78.886 85.044s3.53 2.49 6.228-.415c2.699-2.904.623-5.808.623-5.808L61.8 71.372zM38.757 93.566l78.885 85.043s3.53 2.49 6.228-.415c2.7-2.904.623-5.807.623-5.807L38.757 93.566zm50.77-13.276l55.114 59.415s2.466 1.74 4.351-.29c1.886-2.028.435-4.057.435-4.057l-59.9-55.068zm-43.179 38.996l55.113 59.415s2.466 1.739 4.351-.29c1.886-2.029.435-4.057.435-4.057l-59.899-55.068zm71.503-26.135l24.979 27.01s1.22.815 2.152-.136c.932-.95.215-1.9.215-1.9L117.851 93.15zm-57.712 53.515l24.98 27.01s1.219.815 2.151-.135c.933-.95.216-1.901.216-1.901l-27.347-24.974z"/>
    </g>
</svg>
