<svg xmlns="http://www.w3.org/2000/svg" xmlns:xlink="http://www.w3.org/1999/xlink" width="30" height="30" viewBox="0 0 30 30">
    <defs>
        <path id="a" d="M20.524 5.616a11.093 11.093 0 0 0-4.003-4.104C14.836.504 12.996 0 11 0S7.164.504 5.479 1.512a11.092 11.092 0 0 0-4.004 4.104C.492 7.343 0 9.23 0 11.276c0 2.456.7 4.666 2.098 6.628 1.4 1.963 3.206 3.32 5.421 4.074.258.05.45.015.573-.102a.58.58 0 0 0 .186-.44l-.007-.793c-.005-.5-.007-.935-.007-1.307l-.33.059c-.21.039-.475.056-.794.051a5.913 5.913 0 0 1-.996-.103 2.198 2.198 0 0 1-.96-.44 1.862 1.862 0 0 1-.63-.903l-.143-.338a3.686 3.686 0 0 0-.45-.748c-.206-.274-.414-.46-.624-.558l-.1-.074a1.062 1.062 0 0 1-.186-.176.808.808 0 0 1-.13-.206c-.028-.068-.004-.125.072-.169.077-.044.215-.065.416-.065l.286.044c.191.039.427.156.71.352.28.196.512.45.694.763.22.402.484.707.795.918.31.21.623.315.938.315.315 0 .587-.024.816-.073a2.8 2.8 0 0 0 .645-.22c.085-.656.32-1.16.701-1.512a9.59 9.59 0 0 1-1.468-.265 5.767 5.767 0 0 1-1.346-.573 3.88 3.88 0 0 1-1.153-.983c-.306-.392-.556-.906-.752-1.542-.196-.636-.293-1.37-.293-2.202 0-1.185.377-2.193 1.131-3.025-.353-.89-.32-1.889.1-2.995.277-.088.688-.022 1.232.199.544.22.943.408 1.196.565.253.156.456.289.609.396A9.937 9.937 0 0 1 11 5.447a9.94 9.94 0 0 1 2.75.381l.544-.352c.372-.235.812-.45 1.318-.646s.893-.25 1.16-.161c.43 1.106.468 2.104.115 2.994.754.833 1.131 1.84 1.131 3.025 0 .832-.098 1.568-.293 2.21-.196.64-.449 1.154-.76 1.541-.31.387-.696.712-1.16.976a5.778 5.778 0 0 1-1.346.573 9.58 9.58 0 0 1-1.468.265c.496.44.745 1.135.745 2.084v3.098c0 .176.06.323.179.44.12.118.308.152.566.103 2.215-.754 4.022-2.112 5.42-4.074C21.302 15.94 22 13.732 22 11.275c0-2.045-.493-3.932-1.476-5.66z"/>
    </defs>
    <g fill="none" fill-rule="evenodd" transform="translate(4 4)">
        <mask id="b" fill="#fff">
            <use xlink:href="#a"/>
        </mask>
        <use fill="#B4BCD9" fill-rule="nonzero" xlink:href="#a"/>
        <g fill="#b4bcd9" mask="url(#b)">
            <path d="M-12-13h50v50h-50z"/>
        </g>
    </g>
</svg>
