<svg xmlns="http://www.w3.org/2000/svg" width="30" height="30" viewBox="0 0 30 30">
    <path fill="#B4BCD9" fill-rule="nonzero" d="M3 3l20.554 22.204s.7.504 1.235-.084c.536-.588.124-1.175.124-1.175L3 3zm6.508 2.099L25.16 22.308s.7.504 1.236-.084c.535-.588.123-1.175.123-1.175L9.508 5.099zm-4.572 4.49L20.588 26.8s.7.504 1.235-.084c.536-.588.124-1.175.124-1.175L4.936 9.59zm10.073-2.685l10.936 12.023s.489.351.863-.059.086-.821.086-.821L15.01 6.904zm-8.567 7.89l10.935 12.024s.49.352.864-.059c.374-.41.086-.821.086-.821L6.442 14.795zM20.63 9.507l4.956 5.466s.242.165.427-.028c.185-.192.043-.385.043-.385l-5.426-5.053zM9.18 20.336l4.956 5.465s.242.165.427-.028c.185-.192.042-.384.042-.384l-5.426-5.054z"/>
</svg>
