<svg xmlns="http://www.w3.org/2000/svg" width="30" height="30" viewBox="0 0 30 30">
    <path fill="#112B49" fill-rule="nonzero" d="M17.77 19.341h2.374l-3.79-9.837h-2.626l-3.79 9.837h2.374l.62-1.666h3.581l-.648-1.844h-2.358l1.534-4.233 2.729 7.743zm7.83-7.283a.57.57 0 1 0-1.102.306c.239.858.36 1.745.36 2.636 0 5.435-4.423 9.857-9.858 9.857-5.435 0-9.857-4.422-9.857-9.857S9.565 5.143 15 5.143c2.303 0 4.53.818 6.289 2.273a1.375 1.375 0 1 0 .85-.779A11.03 11.03 0 0 0 15 4C8.935 4 4 8.935 4 15s4.935 11 11 11 11-4.935 11-11c0-.994-.135-1.984-.4-2.942z"/>
</svg>
