<svg xmlns="http://www.w3.org/2000/svg" width="30" height="30" viewBox="0 0 30 30">
    <g fill="none" fill-rule="nonzero">
        <path fill="#6A778F" d="M8.083 20.917c-.004-.04-.012-.095-.02-.182-.008-.044-.012-.083-.016-.123l-.17.016h-.043c-.44.02-.95-.016-1.442-.099-.487-.083-.958-.214-1.322-.38-.749-.349-1.378-.844-1.667-1.235-.174-.246-.281-.503-.297-.765-.036-.51.178-.902.673-1.14.285-.139.677-.174 1.18-.071.645.134 1.053.221 1.31.285a23.735 23.735 0 0 1-2.502-5.79c-.697-2.517-.705-4.707.048-5.669 1.14-1.453 2.55-2.182 3.928-2.51 2.01-.48 4.014-.04 4.87.206.244-.045.49-.08.736-.107.357-.036.709-.06 1.065-.064.701-.012 1.335.08 1.905.25.41.12.804.291 1.172.51 2.094-.712 9.78-2.755 9.352 5.79-.051 1.02-.85 5.167-2.062 8.041-.42.994-.895 1.857-1.426 2.443-.732.816-1.576 1.176-2.534.831a2.503 2.503 0 0 1-.756-.435c-.04.047-.087.099-.135.142-.289.274-.756.488-1.124.578-.44.111-1.172.242-1.988.104a3.806 3.806 0 0 1-.927-.278c.012.13.02.274.016.424-.008.214-.012.428-.02.578-.02.519-.047 1.033-.102 1.532-.06.523-.147.986-.282 1.354-.02.052-.035.1-.055.155-.313.966-.875 2.684-3.544 2.114-1.037-.221-1.96-.503-2.7-1.564-.646-.914-1.057-2.383-1.12-4.941z"/>
        <path fill="#FFF" d="M9.152 19.107c.068-1.298-.574-1.532-1.021-1.659.047-.067.11-.146.182-.237.23-.282.519-.646.752-1.212.036-.087.143-.277.281-.527.59-1.057 1.754-3.143 1.525-4.573-.163-1.017-.939-1.69-2.875-1.489a6.424 6.424 0 0 1 .471-1.05c.848-1.54 2.689-3.689 5.967-3.74 3.956-.068 4.677 3.868 4.807 5.523a4.262 4.262 0 0 0-.602-.309 5.05 5.05 0 0 0-1.085-.309c-.392-.06-.787-.051-1.144.06-.558.174-1.002.59-1.176 1.381-.61 2.832-.063 4.051.365 5.005.313.69.183.395.379.948.072.201.135.39.179.565a.945.945 0 0 0-.143-.024c-.257-.024-.558.08-.768.23a1.503 1.503 0 0 0-.51.697c-.092.261-.08.51-.076.784.028 1.27.02 2.526-.028 3.547-.047 1.018-.13 1.778-.241 2.063-.119.297-.31.737-.67 1.042-.348.296-.886.475-1.741.293-.749-.163-1.256-.392-1.588-.74-.337-.345-.523-.836-.642-1.517a72.678 72.678 0 0 1-.313-2.233 76.08 76.08 0 0 1-.285-2.519zm9.293.622c-1.302-.27-1.433-.431-1.853-.966a6.302 6.302 0 0 0-.483-.546.235.235 0 0 0-.154-.072.547.547 0 0 0-.313.103.79.79 0 0 0-.261.365c-.052.154-.072.344.027.483.487.677 1.086.962 1.644 1.057.566.099 1.1 0 1.421-.08.158-.04.34-.114.46-.197a2.08 2.08 0 0 0-.488-.147zm.377-2.479c.106-.09.206-.186.3-.289a3.534 3.534 0 0 0 .903-2.05 3.605 3.605 0 0 0-.02-.876c-.166-1.192-.103-2.265-.067-2.823.008-.146.016-.257.012-.344.004-.028.095-3.611-1.944-5.615 1.84-.606 7.792-2.059 7.467 4.482-.047.954-.803 4.854-1.952 7.575-.36.855-.76 1.587-1.183 2.059-.353.392-.713.582-1.061.455-.19-.067-.396-.226-.614-.487a44.739 44.739 0 0 0-1.841-2.087zM11.548 4.544C9.683 5.368 8.51 6.86 7.869 8.033c-.197.349-.364.715-.499 1.093-.118.332-.162.593-.142.708 0 .012.004.024.004.036-.016.487.043.887.11 1.307.048.324.1.66.116 1.057.012.376-.036.772-.088 1.184-.126 1.049-.26 2.165.444 3.322-.012.016-.024.031-.036.043-.027.036-.055.072-.083.103a22.233 22.233 0 0 1-2.61-5.856C4.5 8.912 4.41 7.185 4.893 6.564A5.556 5.556 0 0 1 7.767 4.62c1.445-.416 2.886-.258 3.78-.076zm7.717 6.32c0 .102-.008.206-.012.308-.035.575-.103 1.687.075 2.958.036.246.04.487.016.717a2.824 2.824 0 0 1-.728 1.65c-.392.432-.911.725-1.481.805-.103.016-.21.02-.313.023a6.452 6.452 0 0 0-.207-.653c-.114-.313-.145-.44-.391-.982-.388-.863-.883-1.964-.317-4.581.107-.507.376-.768.705-.871.25-.08.542-.08.843-.036.317.048.638.15.927.266.5.206.88.38.883.396zm-2.031-.286a1.327 1.327 0 0 0-.824.115c-.13.076-.202.175-.19.281.012.084.095.202.222.29.118.079.281.138.455.114h.004a.76.76 0 0 0 .428-.233c.103-.111.168-.23.162-.334-.006-.102-.08-.188-.257-.233zm-9.317-.475c1.568-.194 2.174.234 2.28.903.19 1.196-.894 3.144-1.448 4.138a6.91 6.91 0 0 0-.313.594c-.06.134-.119.261-.182.372-.412-.871-.305-1.766-.202-2.613.051-.44.103-.867.09-1.283-.015-.432-.07-.792-.122-1.137a6.39 6.39 0 0 1-.103-.974zm-.194 7.94c.051.015.11.03.17.05.238.068.614.17.574.987-.031.031-.134.063-.289.09-.241.052-.562.06-.902.044-.594-.035-1.228-.162-1.632-.348-.416-.194-.764-.428-.978-.634.892.166 2.248.421 3.057-.19zm.831-7.465c-.012.072.048.194.147.298.12.124.259.2.406.217a.598.598 0 0 0 .354-.075c.14-.078.244-.184.246-.291.001-.073-.045-.147-.159-.212a1.226 1.226 0 0 0-.78-.107c-.122.028-.202.087-.214.17zm-1.243 6.977c-.158.15-.693.384-2.486.012-.349-.071-.594-.055-.753.02-.206.099-.297.261-.28.475.007.13.066.265.166.404.23.317.756.72 1.401 1.022.48.221 1.212.372 1.881.411.392.02.768.004 1.073-.055.075-.016.15-.036.218-.055.055.502.139 1.207.23 1.92.11.895.233 1.782.316 2.265.143.82.38 1.421.82 1.876.44.456 1.053.745 1.94.935 1.109.237 1.837-.024 2.328-.436.483-.408.713-.95.86-1.314.146-.36.241-1.204.293-2.285.035-.788.05-1.718.043-2.685.499.452 1.05.673 1.572.765.693.118 1.326.004 1.706-.092.278-.07.622-.225.824-.415a.681.681 0 0 0 .222-.392.547.547 0 0 0-.19-.495c-.155-.147-.44-.277-.915-.376-1.053-.218-1.148-.337-1.449-.72a5.78 5.78 0 0 0-.241-.286c.003-.016.003-.032.003-.048a3.075 3.075 0 0 0 1.358-.364c.286.301 1.05 1.129 1.885 2.134.297.36.606.582.915.693.653.234 1.251-.04 1.798-.641.475-.53.91-1.327 1.302-2.253 1.18-2.796 1.956-6.822 2.008-7.808.403-8.11-7.512-5.492-8.77-5.025-.75-.51-1.715-.828-2.966-.808a7.522 7.522 0 0 0-1.691.21c-.25-.067-.602-.166-.622-.174-.047-.012-.103-.024-.174-.04-.93-.218-2.633-.463-4.36.036a6.2 6.2 0 0 0-3.223 2.178c-.617.791-.566 2.747.076 5.068a23.032 23.032 0 0 0 2.882 6.343z"/>
    </g>
</svg>
