<svg xmlns="http://www.w3.org/2000/svg" width="30" height="30" viewBox="0 0 30 30">
    <path fill="#E535AB" fill-rule="evenodd" d="M16.655 4.95l5.293 3.056a2.3 2.3 0 0 1 3.656.43 2.3 2.3 0 0 1-1.453 3.379v6.114a2.288 2.288 0 0 1 1.446 3.378 2.298 2.298 0 0 1-3.702.38l-5.261 3.038a2.297 2.297 0 0 1-2.179 3.017 2.292 2.292 0 0 1-2.201-2.943l-5.292-3.055a2.296 2.296 0 1 1-2.203-3.815v-6.114a2.298 2.298 0 0 1-1.453-3.379 2.298 2.298 0 0 1 3.654-.432l5.295-3.057A2.292 2.292 0 0 1 14.455 2a2.292 2.292 0 0 1 2.2 2.95zm-.552.942l5.306 3.063a2.291 2.291 0 0 0 1.651 2.854v6.123l-.089.023-6.93-12.002.062-.061zm-3.233.062L5.94 17.956a2.311 2.311 0 0 0-.09-.024V11.81A2.291 2.291 0 0 0 7.5 8.951l5.305-3.062.065.065zm2.226.544l6.928 12a2.281 2.281 0 0 0-.645 1.12H7.532a2.3 2.3 0 0 0-.645-1.118L13.817 6.5a2.301 2.301 0 0 0 1.28-.001zm1.056 17.405l5.271-3.044c-.016-.05-.03-.1-.042-.15H7.529c-.007.03-.015.059-.024.088l5.297 3.059a2.287 2.287 0 0 1 1.653-.702 2.288 2.288 0 0 1 1.697.749z"/>
</svg>
