<svg xmlns="http://www.w3.org/2000/svg" width="30" height="30" viewBox="0 0 30 30">
    <g fill="none" fill-rule="nonzero">
        <path fill="#5C8DBC" d="M25.634 10.508c0-.37-.08-.698-.24-.98a1.875 1.875 0 0 0-.71-.692c-2.615-1.507-5.231-3.01-7.844-4.518-.705-.407-1.388-.392-2.087.02-1.04.614-6.25 3.598-7.802 4.497-.639.37-.95.937-.95 1.673L6 19.6c0 .363.076.684.23.961.157.286.397.524.72.711 1.553.9 6.763 3.884 7.803 4.497.7.413 1.382.428 2.087.021 2.613-1.509 5.23-3.011 7.844-4.519.324-.187.563-.425.721-.71a1.96 1.96 0 0 0 .23-.962l-.001-9.092"/>
        <path fill="#1A4674" d="M15.847 15.025L6.23 20.562c.157.286.397.524.72.711 1.553.9 6.763 3.884 7.803 4.497.7.413 1.382.428 2.087.021 2.613-1.509 5.23-3.011 7.844-4.519.324-.187.563-.425.721-.71l-9.558-5.537"/>
        <path fill="#1A4674" d="M12.999 16.665a3.245 3.245 0 0 0 5.648-.019l-2.8-1.621L13 16.665"/>
        <path fill="#1B598E" d="M25.634 10.508c0-.37-.08-.698-.24-.98l-9.547 5.497 9.558 5.537a1.96 1.96 0 0 0 .23-.962l-.001-9.092"/>
        <path fill="#FFF" d="M25.108 15.42h-.747v.748h-.747v-.747h-.747v-.747h.747v-.747h.747v.747h.747v.747m-2.725 0h-.747v.747h-.747v-.747h-.747v-.747h.747v-.747h.747v.747h.747v.747"/>
        <path fill="#FFF" d="M18.647 16.646a3.245 3.245 0 0 1-6.077-1.592 3.247 3.247 0 0 1 6.055-1.629l2.838-1.634a6.52 6.52 0 1 0 .017 6.497l-2.833-1.642"/>
    </g>
</svg>
