<svg xmlns="http://www.w3.org/2000/svg" width="30" height="30" viewBox="0 0 30 30">
    <g fill="none" fill-rule="nonzero">
        <path fill="#2F406A" d="M22.92 10.72v8.722l-7.411 4.385-.067.06v3.26l.067.064 10.437-6.03V9.03l-.099-.024-2.942 1.645.015.07"/>
        <path fill="#2379BD" d="M8.074 19.514l7.435 4.313v3.384L5 21.158V9.053l.108-.017 2.934 1.706.032.098v8.674"/>
        <path fill="#03AFEF" d="M8.074 10.84L5 9.053 15.485 3l10.46 6.029-3.025 1.692-7.435-4.242-7.411 4.36"/>
        <path fill="#2F406A" d="M15.381 18.516l-.08-.082V15.16l.08-.041.02-.081 2.807-1.638.086.02v3.374l-2.913 1.723"/>
        <path fill="#2379BD" d="M12.42 16.898v-3.504l.08-.004 2.857 1.662.024.066v3.398l-2.962-1.618"/>
        <path fill="#03AFEF" d="M15.333 11.67l-2.914 1.724 2.962 1.724 2.913-1.7-2.961-1.748"/>
        <path fill="#2F406A" d="M11.756 20.653l-.08-.083v-3.275l.08-.041.02-.08 2.807-1.639.086.02v3.374l-2.913 1.724"/>
        <path fill="#2379BD" d="M8.794 19.034V15.53l.082-.004 2.856 1.662.024.066v3.399l-2.962-1.619"/>
        <path fill="#03AFEF" d="M11.707 13.807L8.794 15.53l2.962 1.724 2.913-1.7-2.962-1.747"/>
        <path fill="#2F406A" d="M19.265 20.733l-.08-.082v-3.275l.08-.041.02-.081 2.808-1.638.085.02v3.374l-2.913 1.723"/>
        <path fill="#2379BD" d="M16.304 19.115v-3.504l.081-.004 2.856 1.662.024.066v3.398l-2.961-1.618"/>
        <path fill="#03AFEF" d="M19.217 13.888l-2.913 1.723 2.961 1.724 2.913-1.7-2.961-1.747"/>
        <path fill="#2F406A" d="M15.64 22.87l-.08-.082v-3.275l.08-.042.02-.08 2.807-1.638.086.019v3.374L15.64 22.87"/>
        <path fill="#2379BD" d="M12.678 21.251v-3.503l.082-.005 2.856 1.663.024.065v3.399l-2.962-1.619"/>
        <path fill="#03AFEF" d="M15.592 16.024l-2.914 1.724 2.962 1.723 2.913-1.7-2.961-1.747"/>
        <path fill="#2F406A" d="M15.381 13.871l-.08-.082v-3.275l.08-.041.02-.081 2.807-1.638.086.02v3.374l-2.913 1.723"/>
        <path fill="#2379BD" d="M12.42 12.253V8.749l.08-.004 2.857 1.662.024.066v3.398l-2.962-1.618"/>
        <path fill="#03AFEF" d="M15.333 7.026l-2.914 1.723 2.962 1.724 2.913-1.7-2.961-1.747"/>
        <path fill="#2F406A" d="M11.756 16.008l-.08-.082V12.65l.08-.042.02-.08 2.807-1.639.086.02v3.374l-2.913 1.724"/>
        <path fill="#2379BD" d="M8.794 14.39v-3.505l.082-.004 2.856 1.663.024.065v3.399l-2.962-1.619"/>
        <path fill="#03AFEF" d="M11.707 9.162l-2.913 1.723 2.962 1.724 2.913-1.7-2.962-1.747"/>
        <path fill="#2F406A" d="M19.265 16.089l-.08-.083v-3.274l.08-.042.02-.08 2.808-1.639.085.02v3.374l-2.913 1.724"/>
        <path fill="#2379BD" d="M16.304 14.47v-3.504l.081-.004 2.856 1.662.024.066v3.399l-2.961-1.619"/>
        <path fill="#03AFEF" d="M19.217 9.243l-2.913 1.723 2.961 1.724 2.913-1.7-2.961-1.747"/>
        <path fill="#2F406A" d="M15.64 18.225l-.08-.082v-3.275l.08-.042.02-.08 2.807-1.638.086.019v3.374l-2.913 1.724"/>
        <path fill="#2379BD" d="M12.678 16.607v-3.504l.082-.004 2.856 1.662.024.065v3.399l-2.962-1.618"/>
        <path fill="#03AFEF" d="M15.592 11.379l-2.914 1.724 2.962 1.723 2.913-1.699-2.961-1.748"/>
    </g>
</svg>
