<svg xmlns="http://www.w3.org/2000/svg" width="30" height="30" viewBox="0 0 30 30">
    <g fill="#B4BCD9" fill-rule="nonzero">
        <circle cx="14.983" cy="14.969" r="4.887"/>
        <path d="M24.956 6.677a1.68 1.68 0 0 0-2.78-1.269A11.907 11.907 0 0 0 14.982 3c-6.6 0-11.97 5.37-11.97 11.97 0 6.6 5.37 11.969 11.97 11.969 6.6 0 11.97-5.37 11.97-11.97 0-2.697-.898-5.188-2.409-7.192.266-.305.412-.696.412-1.1zm-9.973 19.86c-6.378 0-11.567-5.19-11.567-11.568 0-6.378 5.189-11.566 11.567-11.566 2.593 0 4.99.857 6.92 2.304a1.68 1.68 0 0 0 2.34 2.34 11.506 11.506 0 0 1 2.306 6.922c0 6.378-5.188 11.567-11.566 11.567z"/>
    </g>
</svg>
