<svg xmlns="http://www.w3.org/2000/svg" xmlns:xlink="http://www.w3.org/1999/xlink" width="30" height="30" viewBox="0 0 30 30">
    <defs>
        <path id="a" d="M21 6.489c0-.02 0-.034-.005-.054v-.02c-.005-.024-.005-.044-.01-.068 0-.01-.005-.015-.005-.025-.004-.02-.01-.034-.014-.054 0-.005-.005-.01-.005-.015-.01-.024-.015-.044-.025-.068 0-.005-.004-.01-.004-.015a.576.576 0 0 0-.074-.132c-.005-.005-.005-.01-.01-.015l-.043-.059c-.005-.005-.01-.01-.01-.015-.01-.014-.025-.024-.04-.039-.004-.005-.014-.01-.019-.02-.015-.014-.034-.029-.049-.044a.067.067 0 0 0-.02-.014l-.038-.03c-.005-.005-.015-.01-.02-.015-.005 0-.005-.004-.01-.004L11.065.117a.843.843 0 0 0-.841-.01L.567 5.547c-.005 0-.005.005-.01.005-.005.005-.014.01-.02.015l-.043.03c-.005.004-.015.009-.02.014-.02.015-.034.03-.049.04-.005.004-.014.009-.02.019-.014.01-.024.024-.038.039l-.015.015c-.015.02-.03.034-.044.054-.005.005-.01.01-.01.014a.278.278 0 0 0-.039.064s0 .005-.005.005c-.01.015-.014.03-.024.044l-.01.025a.107.107 0 0 1-.015.024l-.014.03c-.005.005-.005.014-.01.02a.091.091 0 0 0-.01.034c0 .005-.005.01-.005.014-.005.015-.005.025-.01.04 0 .004 0 .01-.004.014-.005.015-.005.03-.01.044v.01c0 .015-.005.03-.005.044V6.283L0 17.388c-.005.3.152.579.406.73l9.578 5.764a.848.848 0 0 0 .841.01l9.662-5.44a.846.846 0 0 0 .43-.726L21 6.523v-.01-.024zm-10.375-4.68l7.863 4.685-7.97 4.493-7.864-4.685 7.97-4.493zM1.799 7.75l7.868 4.69v9.29l-7.98-4.802.112-9.178zm9.54 13.93v-9.226l7.975-4.493-.068 9.266-7.908 4.454z"/>
    </defs>
    <g fill="none" fill-rule="evenodd" transform="translate(4 3)">
        <mask id="b" fill="#fff">
            <use xlink:href="#a"/>
        </mask>
        <use fill="#8797BB" fill-rule="nonzero" xlink:href="#a"/>
        <g fill="#4C84FF" mask="url(#b)">
            <path d="M-13-13h50v50h-50z"/>
        </g>
    </g>
</svg>
