<svg xmlns="http://www.w3.org/2000/svg" width="30" height="30" viewBox="0 0 30 30">
    <g fill="none" fill-rule="nonzero">
        <path fill="#FFF" d="M3.07 14.758c0 1.801 1.76 3.483 4.533 4.43-.554 2.789-.1 5.036 1.419 5.911 1.56.9 3.885.277 6.092-1.652 2.15 1.851 4.324 2.58 5.841 1.702 1.56-.903 2.033-3.302 1.464-6.177 2.889-.955 4.505-2.39 4.505-4.214 0-1.76-1.763-3.282-4.499-4.224.613-2.994.094-5.186-1.487-6.098-1.524-.879-3.723-.113-5.906 1.787-2.27-2.016-4.448-2.632-6.027-1.717-1.523.881-1.958 3.169-1.402 6.008-2.68.935-4.532 2.491-4.532 4.244z"/>
        <path fill="#53C1DE" d="M21.846 11.47a14.19 14.19 0 0 0-.682-.215c.038-.155.073-.31.106-.466.516-2.505.178-4.524-.974-5.188-1.105-.638-2.913.027-4.738 1.615-.18.157-.356.318-.527.484-.115-.11-.232-.218-.351-.324-1.913-1.699-3.83-2.414-4.982-1.748-1.104.64-1.431 2.537-.967 4.912.047.235.099.469.157.701-.271.078-.533.16-.784.247-2.243.782-3.675 2.007-3.675 3.278 0 1.313 1.538 2.63 3.874 3.428.189.065.38.125.572.18-.062.25-.118.502-.166.756-.443 2.333-.097 4.186 1.004 4.821 1.137.656 3.046-.018 4.905-1.643a12 12 0 0 0 .442-.407c.186.18.377.353.572.522 1.8 1.55 3.579 2.175 4.679 1.538 1.136-.658 1.505-2.648 1.026-5.07-.037-.185-.08-.373-.127-.566.134-.04.266-.08.394-.123 2.428-.804 4.008-2.105 4.008-3.436 0-1.275-1.478-2.509-3.766-3.297z"/>
        <path fill="#FFF" d="M21.32 17.343c-.116.039-.235.076-.356.112a21.24 21.24 0 0 0-1.073-2.684c.422-.91.77-1.801 1.03-2.645.217.063.428.13.63.2 1.96.674 3.157 1.672 3.157 2.44 0 .82-1.292 1.882-3.389 2.577zm-.87 1.724c.211 1.071.242 2.04.101 2.796-.126.68-.38 1.133-.693 1.315-.668.386-2.096-.116-3.635-1.44a12.974 12.974 0 0 1-.533-.486 21.266 21.266 0 0 0 1.776-2.255c1.024-.09 1.991-.24 2.869-.442.043.174.081.345.114.512zm-8.8 4.044c-.651.23-1.17.237-1.485.056-.668-.385-.946-1.873-.567-3.868.045-.236.097-.47.155-.704.867.192 1.828.33 2.855.414a22.02 22.02 0 0 0 1.818 2.246c-.132.127-.266.251-.404.372-.822.718-1.645 1.228-2.371 1.484zm-3.055-5.773c-1.033-.353-1.886-.812-2.47-1.312-.526-.45-.791-.897-.791-1.26 0-.77 1.15-1.755 3.068-2.423.24-.084.484-.16.73-.23.264.862.612 1.764 1.032 2.675a22.033 22.033 0 0 0-1.046 2.714c-.175-.05-.35-.105-.523-.164zm1.025-6.972c-.399-2.035-.134-3.57.531-3.955.709-.41 2.276.175 3.928 1.642.105.093.211.192.317.293a21.686 21.686 0 0 0-1.804 2.233c-.996.093-1.95.24-2.827.44a13.268 13.268 0 0 1-.145-.653zm9.137 2.256a28.78 28.78 0 0 0-.644-1.06c.676.086 1.323.2 1.932.339-.183.585-.41 1.196-.678 1.824a31.54 31.54 0 0 0-.61-1.103zm-3.726-3.63c.417.453.835.958 1.246 1.506-.834-.04-1.67-.04-2.503 0 .411-.544.833-1.048 1.257-1.505zm-3.75 3.636c-.208.36-.408.726-.598 1.096a19.971 19.971 0 0 1-.673-1.833 20.418 20.418 0 0 1 1.92-.33c-.225.35-.441.707-.65 1.067zm.668 5.408a19.268 19.268 0 0 1-1.952-.314c.187-.604.418-1.231.687-1.87a26.578 26.578 0 0 0 1.265 2.184zm3.107 2.568a20.34 20.34 0 0 1-1.275-1.525 31.58 31.58 0 0 0 2.518-.005c-.412.56-.829 1.074-1.243 1.53zm4.32-4.784c.282.645.52 1.27.71 1.863-.614.14-1.277.253-1.976.337a31.644 31.644 0 0 0 1.265-2.2zm-1.4.67a29.67 29.67 0 0 1-1.015 1.64c-.629.045-1.278.068-1.94.068-.66 0-1.3-.02-1.918-.06a25.669 25.669 0 0 1-1.94-3.35 25.43 25.43 0 0 1 1.928-3.343 25.64 25.64 0 0 1 3.862.001 29.664 29.664 0 0 1 1.934 3.33 27.263 27.263 0 0 1-.91 1.714zm1.868-10.105c.709.409.985 2.058.54 4.222-.03.14-.062.281-.096.421a21.679 21.679 0 0 0-2.832-.447 21.258 21.258 0 0 0-1.791-2.235c.159-.153.321-.302.487-.447C17.716 6.538 19.178 6 19.844 6.385z"/>
        <path fill="#53C1DE" d="M15.02 12.875a1.892 1.892 0 1 1 0 3.783 1.892 1.892 0 0 1 0-3.783"/>
    </g>
</svg>
