<svg xmlns="http://www.w3.org/2000/svg" width="30" height="30" viewBox="0 0 30 30">
    <g fill="#8CC84B" fill-rule="nonzero">
        <path d="M14.647 5.266a1.748 1.748 0 0 1 1.706 0c2.597 1.467 5.195 2.933 7.792 4.401.488.275.815.819.81 1.382v8.83c.004.585-.355 1.142-.87 1.41-2.59 1.46-5.177 2.922-7.765 4.381a1.698 1.698 0 0 1-1.725-.048c-.776-.45-1.553-.897-2.33-1.347-.158-.094-.337-.17-.449-.323.1-.134.276-.15.42-.209.324-.103.621-.268.92-.429.074-.051.166-.031.238.015.664.38 1.322.772 1.988 1.149.142.082.286-.027.407-.095 2.54-1.436 5.084-2.866 7.624-4.302a.252.252 0 0 0 .138-.248c.002-2.913 0-5.826.001-8.74a.273.273 0 0 0-.163-.272c-2.58-1.452-5.158-2.907-7.737-4.36a.269.269 0 0 0-.304-.001c-2.58 1.454-5.157 2.91-7.737 4.363a.27.27 0 0 0-.163.27v8.74c-.01.103.047.2.14.245.688.39 1.378.778 2.066 1.167.388.209.865.333 1.292.173a.98.98 0 0 0 .635-.92c.003-2.897-.002-5.793.002-8.688-.009-.129.113-.235.238-.223.33-.002.662-.004.993.001.138-.003.233.135.216.265-.002 2.914.003 5.828-.003 8.742.001.777-.318 1.622-1.036 2.002-.885.458-1.979.361-2.853-.078-.757-.378-1.48-.824-2.223-1.229-.517-.267-.874-.826-.87-1.412v-8.83a1.607 1.607 0 0 1 .838-1.398l7.764-4.384z"/>
        <path d="M16.905 11.382c1.129-.073 2.337-.043 3.353.513.787.426 1.223 1.32 1.236 2.194-.022.118-.145.183-.257.175-.328 0-.655.005-.983-.002-.139.005-.22-.123-.237-.246-.094-.418-.322-.832-.716-1.033-.604-.303-1.304-.288-1.963-.281-.48.025-.998.067-1.405.35-.313.214-.408.646-.296.995.105.25.394.33.63.405 1.36.355 2.802.32 4.136.788.553.191 1.093.562 1.282 1.14.248.776.14 1.703-.412 2.325-.448.512-1.1.791-1.749.942-.864.193-1.761.198-2.64.113-.825-.095-1.684-.311-2.321-.874-.545-.473-.811-1.21-.785-1.922.007-.12.126-.204.241-.194.33-.003.66-.003.99 0 .132-.009.23.105.236.23.06.397.21.816.558 1.052.67.432 1.511.403 2.279.415.636-.029 1.35-.037 1.869-.457.273-.24.355-.641.28-.986-.08-.292-.384-.427-.646-.516-1.343-.425-2.8-.27-4.13-.751-.54-.19-1.063-.552-1.27-1.106-.29-.785-.157-1.757.452-2.358.595-.598 1.452-.829 2.268-.911z"/>
    </g>
</svg>
