<svg xmlns="http://www.w3.org/2000/svg" width="30" height="30" viewBox="0 0 30 30">
    <g fill="none" fill-rule="nonzero">
        <path fill="#DFE4F3" d="M19.881 4.026c-.128-.06-.232 0-.232.146v17.431l7.638 3.815c.378.189.687 0 .687-.43V8.21a.21.21 0 0 0-.12-.198l-7.973-3.986z"/>
        <path fill="#C3CBE8" d="M11.325 17.445l8.187-13.308a.287.287 0 0 1 .37-.103l7.912 3.952c.094.052.137.172.077.267l-8.222 13.35-8.324-4.158z"/>
        <path fill="#959DBD" d="M3.92 4.378c-.508-.258-.68-.069-.379.421l7.784 12.646 8.324 4.167-8.273-13.445a.375.375 0 0 0-.146-.138L3.92 4.378z"/>
        <path fill="#6F7795" d="M11.325 24.997c0 .42-.31.618-.688.43l-7.173-3.592A.915.915 0 0 1 3 21.088V4.43c0-.284.206-.413.464-.284l7.758 3.883c.06.035.103.095.103.163v16.805z"/>
    </g>
</svg>
