<svg xmlns="http://www.w3.org/2000/svg" width="30" height="30" viewBox="0 0 30 30">
    <g fill="#5B6F9D" fill-rule="evenodd">
        <path d="M8.568 11.92c0 .704-.132 1.204-.396 1.5a3.447 3.447 0 0 1-.996.756c-.4.208-.672.344-.816.408l.456.24c.464.24.808.44 1.032.6.224.16.4.388.528.684.128.296.192.692.192 1.188v3.6c0 .592.164 1.012.492 1.26.328.248.908.372 1.74.372v2.496H9.6c-1.392 0-2.384-.24-2.976-.72-.592-.48-.888-1.296-.888-2.448V17.08c0-.432-.076-.74-.228-.924-.152-.184-.404-.276-.756-.276H3.96v-2.568h.792c.352 0 .604-.092.756-.276.152-.184.228-.492.228-.924V7.336c0-1.152.296-1.968.888-2.448.592-.48 1.584-.72 2.976-.72h1.2v2.496c-.832 0-1.412.124-1.74.372-.328.248-.492.668-.492 1.26v3.624zM20.192 11.92c0 .704.132 1.204.396 1.5.264.296.596.548.996.756.4.208.672.344.816.408l-.456.24c-.464.24-.808.44-1.032.6-.224.16-.4.388-.528.684-.128.296-.192.692-.192 1.188v3.6c0 .592-.164 1.012-.492 1.26-.328.248-.908.372-1.74.372v2.496h1.2c1.392 0 2.384-.24 2.976-.72.592-.48.888-1.296.888-2.448V17.08c0-.432.076-.74.228-.924.152-.184.404-.276.756-.276h.792v-2.568h-.792c-.352 0-.604-.092-.756-.276-.152-.184-.228-.492-.228-.924V7.336c0-1.152-.296-1.968-.888-2.448-.592-.48-1.584-.72-2.976-.72h-1.2v2.496c.832 0 1.412.124 1.74.372.328.248.492.668.492 1.26v3.624z"/>
    </g>
</svg>
