<svg xmlns="http://www.w3.org/2000/svg" width="30" height="30" viewBox="0 0 30 30">
    <path fill="#B4BCD9" fill-rule="evenodd" d="M10.176 25.956c9.812 0 15.178-8.43 15.178-15.739 0-.24 0-.478-.015-.715A11.085 11.085 0 0 0 28 6.64c-.974.447-2.006.74-3.064.87a5.52 5.52 0 0 0 2.345-3.06 10.462 10.462 0 0 1-3.387 1.343c-1.653-1.823-4.28-2.27-6.409-1.088-2.128 1.18-3.227 3.695-2.682 6.133-4.289-.223-8.285-2.323-10.993-5.78-1.416 2.528-.693 5.762 1.651 7.385a5.151 5.151 0 0 1-2.421-.692v.07c0 2.633 1.79 4.9 4.28 5.422a5.142 5.142 0 0 1-2.409.095c.699 2.253 2.701 3.797 4.984 3.841C7.66 22.998 4.82 23.824 2 23.471a14.712 14.712 0 0 0 8.176 2.48"/>
</svg>
