<svg xmlns="http://www.w3.org/2000/svg" width="30" height="30" viewBox="0 0 30 30">
    <g fill="none" fill-rule="nonzero">
        <path fill="#8ED6FB" d="M25.575 22.355l-10.63 6.013v-4.683l6.623-3.643 4.007 2.313zm.727-.658V9.122l-3.89 2.245v8.082l3.89 2.248zm-22.92.658l10.63 6.013v-4.683l-6.623-3.643-4.007 2.313zm-.727-.658V9.122l3.89 2.245v8.082l-3.89 2.248zM3.11 8.308l10.902-6.167v4.528L7.028 10.51l-.053.03L3.11 8.309zm22.737 0L14.945 2.141v4.528l6.984 3.841.053.03 3.865-2.232z"/>
        <path fill="#1C78C0" d="M14.012 22.62l-6.534-3.593v-7.119l6.534 3.773v6.938m.933 0l6.534-3.592v-7.119l-6.534 3.773v6.938M7.92 11.085l6.56-3.608 6.559 3.608-6.56 3.788-6.559-3.788"/>
    </g>
</svg>
