<svg xmlns="http://www.w3.org/2000/svg" xmlns:xlink="http://www.w3.org/1999/xlink" width="30" height="30" viewBox="0 0 30 30">
    <defs>
        <path id="a" d="M15.336 4.517l-1.525-2.796a1 1 0 1 1 1.755-.958l2.927 5.366a1 1 0 0 1-.543 1.42l-5.854 2.078a1 1 0 0 1-.669-1.885l3.517-1.248a8.961 8.961 0 0 0-6.022.049 9 9 0 0 0-5.38 11.535 8.952 8.952 0 0 0 2.914 4.013 9 9 0 0 0 14.001-10.17 1 1 0 0 1 1.88-.683c2.077 5.709-.866 12.02-6.575 14.099a10.991 10.991 0 0 1-10.536-1.669 10.952 10.952 0 0 1-3.563-4.906c-2.077-5.709.866-12.02 6.575-14.099a10.96 10.96 0 0 1 7.098-.146zM12 15h3a1 1 0 0 1 0 2h-4a1 1 0 0 1-1-1v-4a1 1 0 0 1 2 0v3z"/>
    </defs>
    <g fill="none" fill-rule="evenodd" transform="translate(3 2)">
        <mask id="b" fill="#fff">
            <use xlink:href="#a"/>
        </mask>
        <use fill="#162C5E" fill-rule="nonzero" xlink:href="#a"/>
        <g fill="#4C84FF" mask="url(#b)">
            <path d="M-12-12h50v50h-50z"/>
        </g>
    </g>
</svg>
